G04 #@! TF.GenerationSoftware,KiCad,Pcbnew,7.0.8*
G04 #@! TF.CreationDate,2024-11-23T18:49:15+01:00*
G04 #@! TF.ProjectId,PCK-Controller,50434b2d-436f-46e7-9472-6f6c6c65722e,rev?*
G04 #@! TF.SameCoordinates,Original*
G04 #@! TF.FileFunction,Soldermask,Top*
G04 #@! TF.FilePolarity,Negative*
%FSLAX46Y46*%
G04 Gerber Fmt 4.6, Leading zero omitted, Abs format (unit mm)*
G04 Created by KiCad (PCBNEW 7.0.8) date 2024-11-23 18:49:15*
%MOMM*%
%LPD*%
G01*
G04 APERTURE LIST*
G04 Aperture macros list*
%AMRoundRect*
0 Rectangle with rounded corners*
0 $1 Rounding radius*
0 $2 $3 $4 $5 $6 $7 $8 $9 X,Y pos of 4 corners*
0 Add a 4 corners polygon primitive as box body*
4,1,4,$2,$3,$4,$5,$6,$7,$8,$9,$2,$3,0*
0 Add four circle primitives for the rounded corners*
1,1,$1+$1,$2,$3*
1,1,$1+$1,$4,$5*
1,1,$1+$1,$6,$7*
1,1,$1+$1,$8,$9*
0 Add four rect primitives between the rounded corners*
20,1,$1+$1,$2,$3,$4,$5,0*
20,1,$1+$1,$4,$5,$6,$7,0*
20,1,$1+$1,$6,$7,$8,$9,0*
20,1,$1+$1,$8,$9,$2,$3,0*%
G04 Aperture macros list end*
%ADD10RoundRect,0.250000X0.600000X0.725000X-0.600000X0.725000X-0.600000X-0.725000X0.600000X-0.725000X0*%
%ADD11O,1.700000X1.950000*%
%ADD12RoundRect,0.218750X-0.256250X0.218750X-0.256250X-0.218750X0.256250X-0.218750X0.256250X0.218750X0*%
%ADD13RoundRect,0.137500X0.662500X0.137500X-0.662500X0.137500X-0.662500X-0.137500X0.662500X-0.137500X0*%
%ADD14R,2.600000X2.600000*%
%ADD15C,2.600000*%
%ADD16RoundRect,0.250000X1.100000X-0.325000X1.100000X0.325000X-1.100000X0.325000X-1.100000X-0.325000X0*%
%ADD17RoundRect,0.135000X-0.135000X-0.185000X0.135000X-0.185000X0.135000X0.185000X-0.135000X0.185000X0*%
%ADD18RoundRect,0.200000X-0.275000X0.200000X-0.275000X-0.200000X0.275000X-0.200000X0.275000X0.200000X0*%
%ADD19RoundRect,0.200000X0.200000X0.275000X-0.200000X0.275000X-0.200000X-0.275000X0.200000X-0.275000X0*%
%ADD20RoundRect,0.225000X0.225000X0.250000X-0.225000X0.250000X-0.225000X-0.250000X0.225000X-0.250000X0*%
%ADD21RoundRect,0.160000X0.160000X-0.197500X0.160000X0.197500X-0.160000X0.197500X-0.160000X-0.197500X0*%
%ADD22R,0.435000X1.475000*%
%ADD23R,8.000000X3.800000*%
%ADD24RoundRect,0.140000X-0.170000X0.140000X-0.170000X-0.140000X0.170000X-0.140000X0.170000X0.140000X0*%
%ADD25RoundRect,0.135000X-0.185000X0.135000X-0.185000X-0.135000X0.185000X-0.135000X0.185000X0.135000X0*%
%ADD26RoundRect,0.250000X-0.475000X0.250000X-0.475000X-0.250000X0.475000X-0.250000X0.475000X0.250000X0*%
%ADD27R,2.400000X2.400000*%
%ADD28C,2.400000*%
%ADD29R,1.500000X2.000000*%
%ADD30R,3.800000X2.000000*%
%ADD31RoundRect,0.250000X-0.325000X-1.100000X0.325000X-1.100000X0.325000X1.100000X-0.325000X1.100000X0*%
%ADD32R,1.700000X1.700000*%
%ADD33O,1.700000X1.700000*%
%ADD34R,0.750000X0.750000*%
%ADD35RoundRect,0.250000X0.600000X0.750000X-0.600000X0.750000X-0.600000X-0.750000X0.600000X-0.750000X0*%
%ADD36O,1.700000X2.000000*%
%ADD37RoundRect,0.250000X-0.600000X-0.750000X0.600000X-0.750000X0.600000X0.750000X-0.600000X0.750000X0*%
%ADD38RoundRect,0.250000X-0.650000X1.000000X-0.650000X-1.000000X0.650000X-1.000000X0.650000X1.000000X0*%
%ADD39RoundRect,0.250000X0.250000X0.475000X-0.250000X0.475000X-0.250000X-0.475000X0.250000X-0.475000X0*%
%ADD40RoundRect,0.225000X-0.250000X0.225000X-0.250000X-0.225000X0.250000X-0.225000X0.250000X0.225000X0*%
%ADD41RoundRect,0.150000X0.150000X-0.825000X0.150000X0.825000X-0.150000X0.825000X-0.150000X-0.825000X0*%
%ADD42R,1.525000X0.650000*%
%ADD43R,2.400000X3.100000*%
%ADD44C,7.000000*%
%ADD45RoundRect,0.075000X0.548008X-0.441942X-0.441942X0.548008X-0.548008X0.441942X0.441942X-0.548008X0*%
%ADD46RoundRect,0.075000X0.548008X0.441942X0.441942X0.548008X-0.548008X-0.441942X-0.441942X-0.548008X0*%
%ADD47RoundRect,0.140000X-0.140000X-0.170000X0.140000X-0.170000X0.140000X0.170000X-0.140000X0.170000X0*%
%ADD48RoundRect,0.250000X0.725000X-0.600000X0.725000X0.600000X-0.725000X0.600000X-0.725000X-0.600000X0*%
%ADD49O,1.950000X1.700000*%
%ADD50RoundRect,0.250000X0.475000X-0.250000X0.475000X0.250000X-0.475000X0.250000X-0.475000X-0.250000X0*%
%ADD51RoundRect,0.135000X0.135000X0.185000X-0.135000X0.185000X-0.135000X-0.185000X0.135000X-0.185000X0*%
%ADD52R,0.650000X1.528000*%
%ADD53R,1.200000X1.200000*%
%ADD54R,1.500000X1.600000*%
%ADD55RoundRect,0.200000X0.275000X-0.200000X0.275000X0.200000X-0.275000X0.200000X-0.275000X-0.200000X0*%
%ADD56RoundRect,0.200000X-0.200000X-0.275000X0.200000X-0.275000X0.200000X0.275000X-0.200000X0.275000X0*%
%ADD57RoundRect,0.250000X-1.000000X1.950000X-1.000000X-1.950000X1.000000X-1.950000X1.000000X1.950000X0*%
%ADD58RoundRect,0.137500X-0.137500X0.662500X-0.137500X-0.662500X0.137500X-0.662500X0.137500X0.662500X0*%
%ADD59RoundRect,0.137500X-0.662500X-0.137500X0.662500X-0.137500X0.662500X0.137500X-0.662500X0.137500X0*%
%ADD60R,0.510000X0.400000*%
%ADD61RoundRect,0.250000X-1.000000X1.500000X-1.000000X-1.500000X1.000000X-1.500000X1.000000X1.500000X0*%
%ADD62RoundRect,0.140000X0.170000X-0.140000X0.170000X0.140000X-0.170000X0.140000X-0.170000X-0.140000X0*%
%ADD63C,1.700000*%
%ADD64C,3.500000*%
%ADD65RoundRect,0.218750X0.218750X0.256250X-0.218750X0.256250X-0.218750X-0.256250X0.218750X-0.256250X0*%
%ADD66RoundRect,0.225000X0.250000X-0.225000X0.250000X0.225000X-0.250000X0.225000X-0.250000X-0.225000X0*%
%ADD67RoundRect,0.225000X-0.225000X-0.250000X0.225000X-0.250000X0.225000X0.250000X-0.225000X0.250000X0*%
%ADD68RoundRect,0.160000X-0.160000X0.197500X-0.160000X-0.197500X0.160000X-0.197500X0.160000X0.197500X0*%
%ADD69RoundRect,0.140000X0.140000X0.170000X-0.140000X0.170000X-0.140000X-0.170000X0.140000X-0.170000X0*%
%ADD70R,5.400000X2.900000*%
%ADD71RoundRect,0.150000X-0.587500X-0.150000X0.587500X-0.150000X0.587500X0.150000X-0.587500X0.150000X0*%
%ADD72RoundRect,0.250000X-0.250000X-0.475000X0.250000X-0.475000X0.250000X0.475000X-0.250000X0.475000X0*%
%ADD73R,0.900000X0.800000*%
%ADD74R,1.200000X0.600000*%
G04 APERTURE END LIST*
D10*
X127152400Y-141986000D03*
D11*
X124652400Y-141986000D03*
X122152400Y-141986000D03*
D12*
X161086800Y-95826100D03*
X161086800Y-97401100D03*
D13*
X164743200Y-143078200D03*
X164743200Y-141808200D03*
X158243200Y-141808200D03*
X158243200Y-143078200D03*
D14*
X194513400Y-98704400D03*
D15*
X194513400Y-93704400D03*
D16*
X174955200Y-117045000D03*
X174955200Y-114095000D03*
D17*
X152804400Y-131000000D03*
X153824400Y-131000000D03*
D18*
X142750000Y-73425000D03*
X142750000Y-75075000D03*
D19*
X135758200Y-105765600D03*
X134108200Y-105765600D03*
D20*
X122288600Y-123748800D03*
X120738600Y-123748800D03*
D10*
X188712800Y-142003000D03*
D11*
X186212800Y-142003000D03*
X183712800Y-142003000D03*
X181212800Y-142003000D03*
D21*
X143588646Y-129722440D03*
X143588646Y-128527440D03*
D20*
X165087600Y-61914400D03*
X163537600Y-61914400D03*
D22*
X164418000Y-63712000D03*
X163782000Y-63712000D03*
X163148000Y-63712000D03*
X162512000Y-63712000D03*
X161878000Y-63712000D03*
X161242000Y-63712000D03*
X160608000Y-63712000D03*
X159972000Y-63712000D03*
X159338000Y-63712000D03*
X158702000Y-63712000D03*
X158068000Y-63712000D03*
X157432000Y-63712000D03*
X156798000Y-63712000D03*
X156162000Y-63712000D03*
X155528000Y-63712000D03*
X154892000Y-63712000D03*
X154258000Y-63712000D03*
X153622000Y-63712000D03*
X152988000Y-63712000D03*
X152352000Y-63712000D03*
X151718000Y-63712000D03*
X151082000Y-63712000D03*
X151082000Y-71288000D03*
X151718000Y-71288000D03*
X152352000Y-71288000D03*
X152988000Y-71288000D03*
X153622000Y-71288000D03*
X154258000Y-71288000D03*
X154892000Y-71288000D03*
X155528000Y-71288000D03*
X156162000Y-71288000D03*
X156798000Y-71288000D03*
X157432000Y-71288000D03*
X158068000Y-71288000D03*
X158702000Y-71288000D03*
X159338000Y-71288000D03*
X159972000Y-71288000D03*
X160608000Y-71288000D03*
X161242000Y-71288000D03*
X161878000Y-71288000D03*
X162512000Y-71288000D03*
X163148000Y-71288000D03*
X163782000Y-71288000D03*
X164418000Y-71288000D03*
D23*
X157750000Y-67500000D03*
D20*
X123101400Y-105664000D03*
X121551400Y-105664000D03*
D24*
X141032199Y-130007341D03*
X141032199Y-130967341D03*
D25*
X134112000Y-116025200D03*
X134112000Y-117045200D03*
D20*
X112077800Y-105664000D03*
X110527800Y-105664000D03*
D26*
X176229719Y-93573632D03*
X176229719Y-95473632D03*
D27*
X112000000Y-54000000D03*
D28*
X115500000Y-54000000D03*
X119000000Y-54000000D03*
X122500000Y-54000000D03*
D17*
X140460000Y-133690332D03*
X141480000Y-133690332D03*
D29*
X167895600Y-99872800D03*
X170195600Y-99872800D03*
D30*
X170195600Y-93572800D03*
D29*
X172495600Y-99872800D03*
D19*
X152004600Y-105765600D03*
X150354600Y-105765600D03*
D18*
X119750000Y-73425000D03*
X119750000Y-75075000D03*
D31*
X164742600Y-104495600D03*
X167692600Y-104495600D03*
D32*
X154560000Y-87500000D03*
D33*
X152020000Y-87500000D03*
X154560000Y-84960000D03*
X152020000Y-84960000D03*
X154560000Y-82420000D03*
X152020000Y-82420000D03*
X154560000Y-79880000D03*
X152020000Y-79880000D03*
D34*
X106415200Y-86000200D03*
D35*
X146822800Y-141986000D03*
D36*
X144322800Y-141986000D03*
D25*
X156666000Y-115828600D03*
X156666000Y-116848600D03*
D18*
X111750000Y-73425000D03*
X111750000Y-75075000D03*
D37*
X194451600Y-119075200D03*
D36*
X196951600Y-119075200D03*
D34*
X134469000Y-86076400D03*
D32*
X145907061Y-124927690D03*
D33*
X148447061Y-124927690D03*
D38*
X174802800Y-107169200D03*
X174802800Y-111169200D03*
D39*
X190434000Y-59842400D03*
X188534000Y-59842400D03*
D18*
X179500000Y-73550000D03*
X179500000Y-75200000D03*
D20*
X149542800Y-61889000D03*
X147992800Y-61889000D03*
D40*
X129082800Y-135115000D03*
X129082800Y-136665000D03*
D41*
X178714400Y-136725200D03*
X179984400Y-136725200D03*
X181254400Y-136725200D03*
X182524400Y-136725200D03*
X182524400Y-131775200D03*
X181254400Y-131775200D03*
X179984400Y-131775200D03*
X178714400Y-131775200D03*
D42*
X164928000Y-107467400D03*
X164928000Y-108737400D03*
X164928000Y-110007400D03*
X164928000Y-111277400D03*
X170352000Y-111277400D03*
X170352000Y-110007400D03*
X170352000Y-108737400D03*
X170352000Y-107467400D03*
D43*
X167640000Y-109372400D03*
D44*
X196000000Y-141000000D03*
D45*
X132495731Y-133394481D03*
X132849284Y-133040928D03*
X133202837Y-132687375D03*
X133556391Y-132333821D03*
X133909944Y-131980268D03*
X134263498Y-131626714D03*
X134617051Y-131273161D03*
X134970604Y-130919608D03*
X135324158Y-130566054D03*
X135677711Y-130212501D03*
X136031264Y-129858948D03*
X136384818Y-129505394D03*
X136738371Y-129151841D03*
X137091925Y-128798287D03*
X137445478Y-128444734D03*
X137799031Y-128091181D03*
D46*
X137799031Y-125368819D03*
X137445478Y-125015266D03*
X137091925Y-124661713D03*
X136738371Y-124308159D03*
X136384818Y-123954606D03*
X136031264Y-123601052D03*
X135677711Y-123247499D03*
X135324158Y-122893946D03*
X134970604Y-122540392D03*
X134617051Y-122186839D03*
X134263498Y-121833286D03*
X133909944Y-121479732D03*
X133556391Y-121126179D03*
X133202837Y-120772625D03*
X132849284Y-120419072D03*
X132495731Y-120065519D03*
D45*
X129773369Y-120065519D03*
X129419816Y-120419072D03*
X129066263Y-120772625D03*
X128712709Y-121126179D03*
X128359156Y-121479732D03*
X128005602Y-121833286D03*
X127652049Y-122186839D03*
X127298496Y-122540392D03*
X126944942Y-122893946D03*
X126591389Y-123247499D03*
X126237836Y-123601052D03*
X125884282Y-123954606D03*
X125530729Y-124308159D03*
X125177175Y-124661713D03*
X124823622Y-125015266D03*
X124470069Y-125368819D03*
D46*
X124470069Y-128091181D03*
X124823622Y-128444734D03*
X125177175Y-128798287D03*
X125530729Y-129151841D03*
X125884282Y-129505394D03*
X126237836Y-129858948D03*
X126591389Y-130212501D03*
X126944942Y-130566054D03*
X127298496Y-130919608D03*
X127652049Y-131273161D03*
X128005602Y-131626714D03*
X128359156Y-131980268D03*
X128712709Y-132333821D03*
X129066263Y-132687375D03*
X129419816Y-133040928D03*
X129773369Y-133394481D03*
D32*
X141750000Y-87500000D03*
D33*
X139210000Y-87500000D03*
X141750000Y-84960000D03*
X139210000Y-84960000D03*
X141750000Y-82420000D03*
X139210000Y-82420000D03*
X141750000Y-79880000D03*
X139210000Y-79880000D03*
D24*
X127609600Y-135714800D03*
X127609600Y-136674800D03*
D47*
X138759486Y-123479166D03*
X139719486Y-123479166D03*
D39*
X165491200Y-59893200D03*
X163591200Y-59893200D03*
D48*
X129250000Y-101000000D03*
D49*
X129250000Y-98500000D03*
X129250000Y-96000000D03*
D34*
X165633400Y-88051000D03*
D50*
X148285200Y-75372000D03*
X148285200Y-73472000D03*
D51*
X153824400Y-121500000D03*
X152804400Y-121500000D03*
D52*
X112095000Y-113211000D03*
X113365000Y-113211000D03*
X114635000Y-113211000D03*
X115905000Y-113211000D03*
X115905000Y-107789000D03*
X114635000Y-107789000D03*
X113365000Y-107789000D03*
X112095000Y-107789000D03*
D53*
X193859000Y-82229200D03*
D54*
X190609000Y-81229200D03*
D53*
X193859000Y-80229200D03*
D55*
X113750000Y-75075000D03*
X113750000Y-73425000D03*
D56*
X172555400Y-137261600D03*
X174205400Y-137261600D03*
D52*
X117595000Y-113211000D03*
X118865000Y-113211000D03*
X120135000Y-113211000D03*
X121405000Y-113211000D03*
X121405000Y-107789000D03*
X120135000Y-107789000D03*
X118865000Y-107789000D03*
X117595000Y-107789000D03*
D34*
X168633400Y-86051000D03*
D39*
X125029000Y-59690000D03*
X123129000Y-59690000D03*
D18*
X117750000Y-73425000D03*
X117750000Y-75075000D03*
D57*
X182930800Y-93793200D03*
X182930800Y-102193200D03*
D58*
X135635000Y-107750000D03*
X134365000Y-107750000D03*
X134365000Y-114250000D03*
X135635000Y-114250000D03*
D40*
X109750000Y-73475000D03*
X109750000Y-75025000D03*
X134750000Y-73475000D03*
X134750000Y-75025000D03*
D59*
X158243200Y-131241800D03*
X158243200Y-132511800D03*
X164743200Y-132511800D03*
X164743200Y-131241800D03*
D24*
X117602000Y-114672800D03*
X117602000Y-115632800D03*
X128600200Y-114672800D03*
X128600200Y-115632800D03*
D34*
X192135000Y-88025600D03*
D60*
X155057000Y-128500000D03*
X155057000Y-129500000D03*
X156347000Y-129000000D03*
D58*
X148635000Y-107750000D03*
X147365000Y-107750000D03*
X147365000Y-114250000D03*
X148635000Y-114250000D03*
D50*
X176428400Y-61772200D03*
X176428400Y-59872200D03*
D61*
X129750000Y-64250000D03*
X129750000Y-70750000D03*
D60*
X155057000Y-138996800D03*
X155057000Y-139996800D03*
X156347000Y-139496800D03*
D51*
X153824400Y-138988800D03*
X152804400Y-138988800D03*
D40*
X132839846Y-116776200D03*
X132839846Y-118326200D03*
D51*
X153824400Y-131978400D03*
X152804400Y-131978400D03*
D60*
X155063990Y-132010946D03*
X155063990Y-133010946D03*
X156353990Y-132510946D03*
D17*
X152804400Y-140004800D03*
X153824400Y-140004800D03*
D56*
X163767000Y-116281200D03*
X165417000Y-116281200D03*
D34*
X193635000Y-86025600D03*
D18*
X140750000Y-73425000D03*
X140750000Y-75075000D03*
D22*
X148918000Y-63712000D03*
X148282000Y-63712000D03*
X147648000Y-63712000D03*
X147012000Y-63712000D03*
X146378000Y-63712000D03*
X145742000Y-63712000D03*
X145108000Y-63712000D03*
X144472000Y-63712000D03*
X143838000Y-63712000D03*
X143202000Y-63712000D03*
X142568000Y-63712000D03*
X141932000Y-63712000D03*
X141298000Y-63712000D03*
X140662000Y-63712000D03*
X140028000Y-63712000D03*
X139392000Y-63712000D03*
X138758000Y-63712000D03*
X138122000Y-63712000D03*
X137488000Y-63712000D03*
X136852000Y-63712000D03*
X136218000Y-63712000D03*
X135582000Y-63712000D03*
X135582000Y-71288000D03*
X136218000Y-71288000D03*
X136852000Y-71288000D03*
X137488000Y-71288000D03*
X138122000Y-71288000D03*
X138758000Y-71288000D03*
X139392000Y-71288000D03*
X140028000Y-71288000D03*
X140662000Y-71288000D03*
X141298000Y-71288000D03*
X141932000Y-71288000D03*
X142568000Y-71288000D03*
X143202000Y-71288000D03*
X143838000Y-71288000D03*
X144472000Y-71288000D03*
X145108000Y-71288000D03*
X145742000Y-71288000D03*
X146378000Y-71288000D03*
X147012000Y-71288000D03*
X147648000Y-71288000D03*
X148282000Y-71288000D03*
X148918000Y-71288000D03*
D23*
X142250000Y-67500000D03*
D25*
X137158800Y-115803200D03*
X137158800Y-116823200D03*
D37*
X194451600Y-105206800D03*
D36*
X196951600Y-105206800D03*
D40*
X177500000Y-73600000D03*
X177500000Y-75150000D03*
D19*
X155255800Y-105765600D03*
X153605800Y-105765600D03*
D56*
X167175000Y-136150000D03*
X168825000Y-136150000D03*
D32*
X123000000Y-87500000D03*
D33*
X120460000Y-87500000D03*
X123000000Y-84960000D03*
X120460000Y-84960000D03*
X123000000Y-82420000D03*
X120460000Y-82420000D03*
X123000000Y-79880000D03*
X120460000Y-79880000D03*
D25*
X140435400Y-115828600D03*
X140435400Y-116848600D03*
D24*
X106578400Y-114672800D03*
X106578400Y-115632800D03*
D55*
X161086800Y-100443800D03*
X161086800Y-98793800D03*
D34*
X192135000Y-86025600D03*
D53*
X131118200Y-80127600D03*
D54*
X134368200Y-81127600D03*
D53*
X131118200Y-82127600D03*
D56*
X185153800Y-137210800D03*
X186803800Y-137210800D03*
D62*
X129911031Y-118318073D03*
X129911031Y-117358073D03*
D34*
X167133400Y-88051000D03*
D19*
X168825000Y-139650000D03*
X167175000Y-139650000D03*
D59*
X158243200Y-127736600D03*
X158243200Y-129006600D03*
X164743200Y-129006600D03*
X164743200Y-127736600D03*
D37*
X194449875Y-132875800D03*
D36*
X196949875Y-132875800D03*
D56*
X167175000Y-132650000D03*
X168825000Y-132650000D03*
D34*
X132969000Y-84076400D03*
D58*
X151885000Y-107750000D03*
X150615000Y-107750000D03*
X150615000Y-114250000D03*
X151885000Y-114250000D03*
D17*
X152804400Y-132994400D03*
X153824400Y-132994400D03*
D32*
X111500000Y-128000000D03*
D63*
X111500000Y-125500000D03*
X109500000Y-125500000D03*
X109500000Y-128000000D03*
D64*
X106790000Y-132770000D03*
X106790000Y-120730000D03*
D12*
X163271200Y-95826100D03*
X163271200Y-97401100D03*
D17*
X152804400Y-120497600D03*
X153824400Y-120497600D03*
D65*
X144246700Y-133692372D03*
X142671700Y-133692372D03*
D18*
X136750000Y-73425000D03*
X136750000Y-75075000D03*
D19*
X168825000Y-143150000D03*
X167175000Y-143150000D03*
D24*
X138988800Y-133784400D03*
X138988800Y-134744400D03*
D34*
X190635000Y-86025600D03*
D18*
X188000000Y-73550000D03*
X188000000Y-75200000D03*
D40*
X175500000Y-73600000D03*
X175500000Y-75150000D03*
D66*
X141308507Y-128702605D03*
X141308507Y-127152605D03*
D59*
X158221562Y-138247620D03*
X158221562Y-139517620D03*
X164721562Y-139517620D03*
X164721562Y-138247620D03*
D56*
X167175000Y-122145000D03*
X168825000Y-122145000D03*
D52*
X101095000Y-113211000D03*
X102365000Y-113211000D03*
X103635000Y-113211000D03*
X104905000Y-113211000D03*
X104905000Y-107789000D03*
X103635000Y-107789000D03*
X102365000Y-107789000D03*
X101095000Y-107789000D03*
D32*
X122159000Y-132040200D03*
D33*
X122159000Y-134580200D03*
X119619000Y-132040200D03*
X119619000Y-134580200D03*
X117079000Y-132040200D03*
X117079000Y-134580200D03*
D34*
X131469000Y-84076400D03*
D59*
X158237591Y-134717837D03*
X158237591Y-135987837D03*
X164737591Y-135987837D03*
X164737591Y-134717837D03*
D51*
X131828000Y-137464800D03*
X130808000Y-137464800D03*
D47*
X136348672Y-136144000D03*
X137308672Y-136144000D03*
D27*
X136750000Y-54000000D03*
D28*
X140250000Y-54000000D03*
X143750000Y-54000000D03*
X147250000Y-54000000D03*
D34*
X107915200Y-86000200D03*
D48*
X122500000Y-101000000D03*
D49*
X122500000Y-98500000D03*
X122500000Y-96000000D03*
D32*
X179560000Y-87500000D03*
D33*
X177020000Y-87500000D03*
X179560000Y-84960000D03*
X177020000Y-84960000D03*
X179560000Y-82420000D03*
X177020000Y-82420000D03*
X179560000Y-79880000D03*
X177020000Y-79880000D03*
D67*
X185153000Y-131927600D03*
X186703000Y-131927600D03*
D58*
X155135000Y-107750000D03*
X153865000Y-107750000D03*
X153865000Y-114250000D03*
X155135000Y-114250000D03*
D34*
X192135000Y-84025600D03*
D26*
X190246000Y-73370400D03*
X190246000Y-75270400D03*
D34*
X167133400Y-86051000D03*
D12*
X165455600Y-95826100D03*
X165455600Y-97401100D03*
D19*
X145503400Y-105765600D03*
X143853400Y-105765600D03*
D24*
X120091200Y-127434400D03*
X120091200Y-128394400D03*
D17*
X152804400Y-129489200D03*
X153824400Y-129489200D03*
X152804400Y-134500000D03*
X153824400Y-134500000D03*
D19*
X158508200Y-105765600D03*
X156858200Y-105765600D03*
D26*
X165250000Y-73300000D03*
X165250000Y-75200000D03*
D58*
X142135000Y-107750000D03*
X140865000Y-107750000D03*
X140865000Y-114250000D03*
X142135000Y-114250000D03*
D50*
X110947200Y-61772200D03*
X110947200Y-59872200D03*
D44*
X104000000Y-141000000D03*
D40*
X176326800Y-131798800D03*
X176326800Y-133348800D03*
D32*
X148000000Y-87500000D03*
D33*
X145460000Y-87500000D03*
X148000000Y-84960000D03*
X145460000Y-84960000D03*
X148000000Y-82420000D03*
X145460000Y-82420000D03*
X148000000Y-79880000D03*
X145460000Y-79880000D03*
D55*
X163271200Y-100443800D03*
X163271200Y-98793800D03*
D34*
X134469000Y-88076400D03*
D68*
X143582067Y-124918391D03*
X143582067Y-126113391D03*
D60*
X155057000Y-121500000D03*
X155057000Y-122500000D03*
X156347000Y-122000000D03*
D20*
X190055800Y-61925200D03*
X188505800Y-61925200D03*
D17*
X152804400Y-124000000D03*
X153824400Y-124000000D03*
D61*
X170250000Y-64250000D03*
X170250000Y-70750000D03*
D27*
X152750000Y-54000000D03*
D28*
X156250000Y-54000000D03*
X159750000Y-54000000D03*
X163250000Y-54000000D03*
D69*
X122377785Y-125222000D03*
X121417785Y-125222000D03*
D34*
X193635000Y-84025600D03*
D10*
X138226800Y-141986000D03*
D11*
X135726800Y-141986000D03*
X133226800Y-141986000D03*
D51*
X153824400Y-124968000D03*
X152804400Y-124968000D03*
D60*
X155057000Y-125000000D03*
X155057000Y-126000000D03*
X156347000Y-125500000D03*
X155057000Y-135491600D03*
X155057000Y-136491600D03*
X156347000Y-135991600D03*
D55*
X156500000Y-75200000D03*
X156500000Y-73550000D03*
D17*
X152804400Y-122478800D03*
X153824400Y-122478800D03*
D32*
X103784400Y-102463600D03*
D33*
X103784400Y-99923600D03*
X103784400Y-97383600D03*
X103784400Y-94843600D03*
D61*
X195250000Y-64250000D03*
X195250000Y-70750000D03*
D58*
X138885000Y-107750000D03*
X137615000Y-107750000D03*
X137615000Y-114250000D03*
X138885000Y-114250000D03*
D34*
X107915200Y-84000200D03*
D20*
X124625400Y-61889000D03*
X123075400Y-61889000D03*
D56*
X167175000Y-125650000D03*
X168825000Y-125650000D03*
D18*
X170992800Y-115761000D03*
X170992800Y-117411000D03*
D34*
X168633400Y-88051000D03*
D56*
X163817800Y-113690400D03*
X165467800Y-113690400D03*
D27*
X177500000Y-54000000D03*
D28*
X181000000Y-54000000D03*
X184500000Y-54000000D03*
X188000000Y-54000000D03*
D20*
X169024600Y-114960400D03*
X167474600Y-114960400D03*
D34*
X109415200Y-84000200D03*
D35*
X175096800Y-141969200D03*
D36*
X172596800Y-141969200D03*
D34*
X131469000Y-86076400D03*
D32*
X160810000Y-87500000D03*
D33*
X158270000Y-87500000D03*
X160810000Y-84960000D03*
X158270000Y-84960000D03*
X160810000Y-82420000D03*
X158270000Y-82420000D03*
X160810000Y-79880000D03*
X158270000Y-79880000D03*
D24*
X133502400Y-135613200D03*
X133502400Y-136573200D03*
D34*
X106415200Y-88000200D03*
D19*
X174205400Y-131826000D03*
X172555400Y-131826000D03*
D51*
X116994400Y-123698000D03*
X115974400Y-123698000D03*
D34*
X109415200Y-88000200D03*
D70*
X183388000Y-107165600D03*
X183388000Y-117065600D03*
D17*
X140460000Y-135331200D03*
X141480000Y-135331200D03*
D18*
X163000000Y-73495400D03*
X163000000Y-75145400D03*
X154500000Y-73550000D03*
X154500000Y-75200000D03*
D34*
X132969000Y-88076400D03*
D48*
X136000000Y-101000000D03*
D49*
X136000000Y-98500000D03*
X136000000Y-96000000D03*
D34*
X109415200Y-86000200D03*
D40*
X152500000Y-73600000D03*
X152500000Y-75150000D03*
D32*
X148462910Y-128539430D03*
D33*
X145922910Y-128539430D03*
D20*
X117564200Y-105664000D03*
X116014200Y-105664000D03*
D67*
X138773688Y-122255516D03*
X140323688Y-122255516D03*
D59*
X158243200Y-120726200D03*
X158243200Y-121996200D03*
X164743200Y-121996200D03*
X164743200Y-120726200D03*
D17*
X152804400Y-141803344D03*
X153824400Y-141803344D03*
D40*
X132750000Y-73475000D03*
X132750000Y-75025000D03*
D17*
X152804400Y-125984000D03*
X153824400Y-125984000D03*
D65*
X144246700Y-135331200D03*
X142671700Y-135331200D03*
D19*
X138999800Y-105765600D03*
X137349800Y-105765600D03*
X165417000Y-118872000D03*
X163767000Y-118872000D03*
D34*
X132969000Y-86076400D03*
D44*
X196000000Y-54000000D03*
D18*
X183500000Y-73550000D03*
X183500000Y-75200000D03*
D44*
X104000000Y-54000000D03*
D37*
X194451600Y-112115600D03*
D36*
X196951600Y-112115600D03*
D56*
X172555400Y-134518400D03*
X174205400Y-134518400D03*
D58*
X145385000Y-107750000D03*
X144115000Y-107750000D03*
X144115000Y-114250000D03*
X145385000Y-114250000D03*
D34*
X190635000Y-88025600D03*
D53*
X168882800Y-82243800D03*
D54*
X165632800Y-81243800D03*
D53*
X168882800Y-80243800D03*
D18*
X160500000Y-73550000D03*
X160500000Y-75200000D03*
D51*
X110898400Y-137363200D03*
X109878400Y-137363200D03*
D71*
X186062500Y-125800000D03*
X186062500Y-127700000D03*
X187937500Y-126750000D03*
D18*
X158500000Y-73550000D03*
X158500000Y-75200000D03*
D50*
X151688800Y-60792400D03*
X151688800Y-58892400D03*
D22*
X189418000Y-63712000D03*
X188782000Y-63712000D03*
X188148000Y-63712000D03*
X187512000Y-63712000D03*
X186878000Y-63712000D03*
X186242000Y-63712000D03*
X185608000Y-63712000D03*
X184972000Y-63712000D03*
X184338000Y-63712000D03*
X183702000Y-63712000D03*
X183068000Y-63712000D03*
X182432000Y-63712000D03*
X181798000Y-63712000D03*
X181162000Y-63712000D03*
X180528000Y-63712000D03*
X179892000Y-63712000D03*
X179258000Y-63712000D03*
X178622000Y-63712000D03*
X177988000Y-63712000D03*
X177352000Y-63712000D03*
X176718000Y-63712000D03*
X176082000Y-63712000D03*
X176082000Y-71288000D03*
X176718000Y-71288000D03*
X177352000Y-71288000D03*
X177988000Y-71288000D03*
X178622000Y-71288000D03*
X179258000Y-71288000D03*
X179892000Y-71288000D03*
X180528000Y-71288000D03*
X181162000Y-71288000D03*
X181798000Y-71288000D03*
X182432000Y-71288000D03*
X183068000Y-71288000D03*
X183702000Y-71288000D03*
X184338000Y-71288000D03*
X184972000Y-71288000D03*
X185608000Y-71288000D03*
X186242000Y-71288000D03*
X186878000Y-71288000D03*
X187512000Y-71288000D03*
X188148000Y-71288000D03*
X188782000Y-71288000D03*
X189418000Y-71288000D03*
D23*
X182750000Y-67500000D03*
D25*
X153414800Y-115822000D03*
X153414800Y-116842000D03*
D17*
X152804400Y-127500000D03*
X153824400Y-127500000D03*
X152804400Y-138000000D03*
X153824400Y-138000000D03*
D51*
X116994400Y-124663200D03*
X115974400Y-124663200D03*
D34*
X106415200Y-84000200D03*
D18*
X144750000Y-73425000D03*
X144750000Y-75075000D03*
D71*
X173062500Y-125800000D03*
X173062500Y-127700000D03*
X174937500Y-126750000D03*
D50*
X176213857Y-99835524D03*
X176213857Y-97935524D03*
D48*
X156250000Y-101000000D03*
D49*
X156250000Y-98500000D03*
X156250000Y-96000000D03*
D18*
X115750000Y-73425000D03*
X115750000Y-75075000D03*
D52*
X123095000Y-113211000D03*
X124365000Y-113211000D03*
X125635000Y-113211000D03*
X126905000Y-113211000D03*
X126905000Y-107789000D03*
X125635000Y-107789000D03*
X124365000Y-107789000D03*
X123095000Y-107789000D03*
D10*
X116078000Y-141986000D03*
D11*
X113578000Y-141986000D03*
X111078000Y-141986000D03*
D51*
X153824400Y-135483600D03*
X152804400Y-135483600D03*
D48*
X149500000Y-101000000D03*
D49*
X149500000Y-98500000D03*
X149500000Y-96000000D03*
D34*
X165633400Y-86051000D03*
D56*
X167175000Y-129082800D03*
X168825000Y-129082800D03*
D34*
X168633400Y-84051000D03*
D22*
X123918000Y-63712000D03*
X123282000Y-63712000D03*
X122648000Y-63712000D03*
X122012000Y-63712000D03*
X121378000Y-63712000D03*
X120742000Y-63712000D03*
X120108000Y-63712000D03*
X119472000Y-63712000D03*
X118838000Y-63712000D03*
X118202000Y-63712000D03*
X117568000Y-63712000D03*
X116932000Y-63712000D03*
X116298000Y-63712000D03*
X115662000Y-63712000D03*
X115028000Y-63712000D03*
X114392000Y-63712000D03*
X113758000Y-63712000D03*
X113122000Y-63712000D03*
X112488000Y-63712000D03*
X111852000Y-63712000D03*
X111218000Y-63712000D03*
X110582000Y-63712000D03*
X110582000Y-71288000D03*
X111218000Y-71288000D03*
X111852000Y-71288000D03*
X112488000Y-71288000D03*
X113122000Y-71288000D03*
X113758000Y-71288000D03*
X114392000Y-71288000D03*
X115028000Y-71288000D03*
X115662000Y-71288000D03*
X116298000Y-71288000D03*
X116932000Y-71288000D03*
X117568000Y-71288000D03*
X118202000Y-71288000D03*
X118838000Y-71288000D03*
X119472000Y-71288000D03*
X120108000Y-71288000D03*
X120742000Y-71288000D03*
X121378000Y-71288000D03*
X122012000Y-71288000D03*
X122648000Y-71288000D03*
X123282000Y-71288000D03*
X123918000Y-71288000D03*
D23*
X117250000Y-67500000D03*
D52*
X106595000Y-113211000D03*
X107865000Y-113211000D03*
X109135000Y-113211000D03*
X110405000Y-113211000D03*
X110405000Y-107789000D03*
X109135000Y-107789000D03*
X107865000Y-107789000D03*
X106595000Y-107789000D03*
D34*
X131469000Y-88076400D03*
D20*
X169024600Y-117398800D03*
X167474600Y-117398800D03*
D48*
X109000000Y-101000000D03*
D49*
X109000000Y-98500000D03*
X109000000Y-96000000D03*
D19*
X186803800Y-134569200D03*
X185153800Y-134569200D03*
D71*
X179562500Y-125800000D03*
X179562500Y-127700000D03*
X181437500Y-126750000D03*
D34*
X107915200Y-88000200D03*
D25*
X146912400Y-115822000D03*
X146912400Y-116842000D03*
D55*
X138750000Y-75075000D03*
X138750000Y-73425000D03*
D48*
X142750000Y-101000000D03*
D49*
X142750000Y-98500000D03*
X142750000Y-96000000D03*
D72*
X147995600Y-59131200D03*
X149895600Y-59131200D03*
D19*
X148753400Y-105765600D03*
X147103400Y-105765600D03*
D34*
X165633400Y-84051000D03*
D58*
X158385000Y-107750000D03*
X157115000Y-107750000D03*
X157115000Y-114250000D03*
X158385000Y-114250000D03*
D53*
X106089600Y-80218400D03*
D54*
X109339600Y-81218400D03*
D53*
X106089600Y-82218400D03*
D73*
X137504400Y-133714400D03*
X136104400Y-133714400D03*
X136104400Y-134814400D03*
X137504400Y-134814400D03*
D40*
X107750000Y-73475000D03*
X107750000Y-75025000D03*
D62*
X114350800Y-127988000D03*
X114350800Y-127028000D03*
D25*
X143686600Y-115828600D03*
X143686600Y-116848600D03*
D40*
X170383200Y-103771400D03*
X170383200Y-105321400D03*
D25*
X150163600Y-115828600D03*
X150163600Y-116848600D03*
D19*
X142251000Y-105765600D03*
X140601000Y-105765600D03*
D40*
X150500000Y-73600000D03*
X150500000Y-75150000D03*
D24*
X123088400Y-114672800D03*
X123088400Y-115632800D03*
D50*
X136194800Y-61656000D03*
X136194800Y-59756000D03*
D20*
X128587800Y-105613200D03*
X127037800Y-105613200D03*
D34*
X190635000Y-84025600D03*
D66*
X131236273Y-118318829D03*
X131236273Y-116768829D03*
D55*
X165455600Y-100443800D03*
X165455600Y-98793800D03*
D32*
X116750000Y-87500000D03*
D33*
X114210000Y-87500000D03*
X116750000Y-84960000D03*
X114210000Y-84960000D03*
X116750000Y-82420000D03*
X114210000Y-82420000D03*
X116750000Y-79880000D03*
X114210000Y-79880000D03*
D48*
X115750000Y-101000000D03*
D49*
X115750000Y-98500000D03*
X115750000Y-96000000D03*
D20*
X106591400Y-105664000D03*
X105041400Y-105664000D03*
D61*
X104750000Y-64250000D03*
X104750000Y-70750000D03*
D37*
X194451600Y-125984000D03*
D36*
X196951600Y-125984000D03*
D51*
X120652000Y-137363200D03*
X119632000Y-137363200D03*
D32*
X185810000Y-87500000D03*
D33*
X183270000Y-87500000D03*
X185810000Y-84960000D03*
X183270000Y-84960000D03*
X185810000Y-82420000D03*
X183270000Y-82420000D03*
X185810000Y-79880000D03*
X183270000Y-79880000D03*
D50*
X123000000Y-75200000D03*
X123000000Y-73300000D03*
D24*
X112090200Y-114672800D03*
X112090200Y-115632800D03*
D18*
X185500000Y-73550000D03*
X185500000Y-75200000D03*
D55*
X181500000Y-75200000D03*
X181500000Y-73550000D03*
D66*
X101092000Y-105880200D03*
X101092000Y-104330200D03*
D34*
X193635000Y-88025600D03*
X134469000Y-84076400D03*
D24*
X101090000Y-114672800D03*
X101090000Y-115632800D03*
D17*
X152804400Y-136499600D03*
X153824400Y-136499600D03*
D74*
X115844000Y-126116800D03*
X115844000Y-127066800D03*
X115844000Y-128016800D03*
X118344000Y-128016800D03*
X118344000Y-126116800D03*
D34*
X167133400Y-84051000D03*
D59*
X158243200Y-124231400D03*
X158243200Y-125501400D03*
X164743200Y-125501400D03*
X164743200Y-124231400D03*
D51*
X153824400Y-128473200D03*
X152804400Y-128473200D03*
D52*
X128595000Y-113211000D03*
X129865000Y-113211000D03*
X131135000Y-113211000D03*
X132405000Y-113211000D03*
X132405000Y-107789000D03*
X131135000Y-107789000D03*
X129865000Y-107789000D03*
X128595000Y-107789000D03*
M02*
