G04 #@! TF.GenerationSoftware,KiCad,Pcbnew,7.0.8*
G04 #@! TF.CreationDate,2024-11-23T18:49:15+01:00*
G04 #@! TF.ProjectId,PCK-Controller,50434b2d-436f-46e7-9472-6f6c6c65722e,rev?*
G04 #@! TF.SameCoordinates,Original*
G04 #@! TF.FileFunction,Legend,Bot*
G04 #@! TF.FilePolarity,Positive*
%FSLAX46Y46*%
G04 Gerber Fmt 4.6, Leading zero omitted, Abs format (unit mm)*
G04 Created by KiCad (PCBNEW 7.0.8) date 2024-11-23 18:49:15*
%MOMM*%
%LPD*%
G01*
G04 APERTURE LIST*
G04 Aperture macros list*
%AMRoundRect*
0 Rectangle with rounded corners*
0 $1 Rounding radius*
0 $2 $3 $4 $5 $6 $7 $8 $9 X,Y pos of 4 corners*
0 Add a 4 corners polygon primitive as box body*
4,1,4,$2,$3,$4,$5,$6,$7,$8,$9,$2,$3,0*
0 Add four circle primitives for the rounded corners*
1,1,$1+$1,$2,$3*
1,1,$1+$1,$4,$5*
1,1,$1+$1,$6,$7*
1,1,$1+$1,$8,$9*
0 Add four rect primitives between the rounded corners*
20,1,$1+$1,$2,$3,$4,$5,0*
20,1,$1+$1,$4,$5,$6,$7,0*
20,1,$1+$1,$6,$7,$8,$9,0*
20,1,$1+$1,$8,$9,$2,$3,0*%
G04 Aperture macros list end*
%ADD10C,0.150000*%
%ADD11C,0.175000*%
%ADD12C,0.200000*%
%ADD13C,0.120000*%
%ADD14RoundRect,0.250000X0.600000X0.725000X-0.600000X0.725000X-0.600000X-0.725000X0.600000X-0.725000X0*%
%ADD15O,1.700000X1.950000*%
%ADD16R,2.600000X2.600000*%
%ADD17C,2.600000*%
%ADD18R,2.400000X2.400000*%
%ADD19C,2.400000*%
%ADD20R,1.700000X1.700000*%
%ADD21O,1.700000X1.700000*%
%ADD22RoundRect,0.250000X0.600000X0.750000X-0.600000X0.750000X-0.600000X-0.750000X0.600000X-0.750000X0*%
%ADD23O,1.700000X2.000000*%
%ADD24RoundRect,0.250000X-0.600000X-0.750000X0.600000X-0.750000X0.600000X0.750000X-0.600000X0.750000X0*%
%ADD25C,7.000000*%
%ADD26RoundRect,0.250000X0.725000X-0.600000X0.725000X0.600000X-0.725000X0.600000X-0.725000X-0.600000X0*%
%ADD27O,1.950000X1.700000*%
%ADD28C,1.700000*%
%ADD29C,3.500000*%
%ADD30RoundRect,0.200000X-0.275000X0.200000X-0.275000X-0.200000X0.275000X-0.200000X0.275000X0.200000X0*%
G04 APERTURE END LIST*
D10*
X182473600Y-143500000D02*
X182473600Y-137261600D01*
X166608200Y-116586000D02*
X186858200Y-116586000D01*
X186858200Y-118836000D01*
X166608200Y-118836000D01*
X166608200Y-116586000D01*
X166608200Y-123291600D02*
X186858200Y-123291600D01*
X186858200Y-125541600D01*
X166608200Y-125541600D01*
X166608200Y-123291600D01*
X147500000Y-78500000D02*
X150000000Y-78500000D01*
X166608200Y-127762000D02*
X186858200Y-127762000D01*
X186858200Y-130012000D01*
X166608200Y-130012000D01*
X166608200Y-127762000D01*
X172000000Y-56500000D02*
X174500000Y-56500000D01*
X172000000Y-56500000D02*
X172000000Y-59000000D01*
X150000000Y-56500000D02*
X150000000Y-59000000D01*
X166608200Y-107601800D02*
X186858200Y-107601800D01*
X186858200Y-109851800D01*
X166608200Y-109851800D01*
X166608200Y-107601800D01*
X194000000Y-78500000D02*
X191500000Y-78500000D01*
X181868200Y-130021200D02*
X181868200Y-103121200D01*
X125500000Y-56500000D02*
X128000000Y-56500000D01*
X172000000Y-78500000D02*
X174500000Y-78500000D01*
X150000000Y-78500000D02*
X150000000Y-76000000D01*
X184962800Y-143500000D02*
X184962800Y-137261600D01*
X105999777Y-57500013D02*
X105999777Y-59000013D01*
X166618200Y-103121200D02*
X186868200Y-103121200D01*
X186868200Y-105371200D01*
X166618200Y-105371200D01*
X166618200Y-103121200D01*
X166608200Y-105366600D02*
X186858200Y-105366600D01*
X186858200Y-107616600D01*
X166608200Y-107616600D01*
X166608200Y-105366600D01*
X128000000Y-56500000D02*
X130500000Y-56500000D01*
X166608200Y-121056400D02*
X186858200Y-121056400D01*
X186858200Y-123306400D01*
X166608200Y-123306400D01*
X166608200Y-121056400D01*
X194000000Y-78500000D02*
X194000000Y-76000000D01*
X125500000Y-78500000D02*
X128000000Y-78500000D01*
X173786800Y-143500000D02*
X173786800Y-137261600D01*
X107250000Y-99750000D02*
X161500000Y-99750000D01*
X171500800Y-137261600D02*
X189992000Y-137261600D01*
X150000000Y-78500000D02*
X152500000Y-78500000D01*
X169500000Y-78500000D02*
X172000000Y-78500000D01*
X128000000Y-56500000D02*
X128000000Y-59000000D01*
X193005005Y-56499185D02*
X191505005Y-56499185D01*
X107250000Y-97250000D02*
X161500000Y-97250000D01*
X176868200Y-130021200D02*
X176868200Y-103121200D01*
X166608200Y-125526800D02*
X186858200Y-125526800D01*
X186858200Y-127776800D01*
X166608200Y-127776800D01*
X166608200Y-125526800D01*
X166608200Y-118821200D02*
X186858200Y-118821200D01*
X186858200Y-121071200D01*
X166608200Y-121071200D01*
X166608200Y-118821200D01*
X187452000Y-143500000D02*
X187452000Y-137261600D01*
X147500000Y-56500000D02*
X150000000Y-56500000D01*
X128000000Y-78500000D02*
X128000000Y-76000000D01*
X106999777Y-56500013D02*
X108499777Y-56500013D01*
X106000000Y-78500000D02*
X106000000Y-76000000D01*
X194005005Y-57499185D02*
X194005005Y-58999185D01*
X172000000Y-78500000D02*
X172000000Y-76000000D01*
X166608200Y-109837000D02*
X186858200Y-109837000D01*
X186858200Y-112087000D01*
X166608200Y-112087000D01*
X166608200Y-109837000D01*
X128000000Y-78500000D02*
X130500000Y-78500000D01*
X169500000Y-56500000D02*
X172000000Y-56500000D01*
X166608200Y-112115600D02*
X186858200Y-112115600D01*
X186858200Y-114365600D01*
X166608200Y-114365600D01*
X166608200Y-112115600D01*
X166608200Y-114350800D02*
X186858200Y-114350800D01*
X186858200Y-116600800D01*
X166608200Y-116600800D01*
X166608200Y-114350800D01*
X106000000Y-78500000D02*
X108500000Y-78500000D01*
X150000000Y-56500000D02*
X152500000Y-56500000D01*
X180847830Y-51406861D02*
X180669258Y-51466385D01*
X180669258Y-51466385D02*
X180609735Y-51525909D01*
X180609735Y-51525909D02*
X180550211Y-51644957D01*
X180550211Y-51644957D02*
X180550211Y-51823528D01*
X180550211Y-51823528D02*
X180609735Y-51942576D01*
X180609735Y-51942576D02*
X180669258Y-52002100D01*
X180669258Y-52002100D02*
X180788306Y-52061623D01*
X180788306Y-52061623D02*
X181264496Y-52061623D01*
X181264496Y-52061623D02*
X181264496Y-50811623D01*
X181264496Y-50811623D02*
X180847830Y-50811623D01*
X180847830Y-50811623D02*
X180728782Y-50871147D01*
X180728782Y-50871147D02*
X180669258Y-50930671D01*
X180669258Y-50930671D02*
X180609735Y-51049719D01*
X180609735Y-51049719D02*
X180609735Y-51168766D01*
X180609735Y-51168766D02*
X180669258Y-51287814D01*
X180669258Y-51287814D02*
X180728782Y-51347338D01*
X180728782Y-51347338D02*
X180847830Y-51406861D01*
X180847830Y-51406861D02*
X181264496Y-51406861D01*
X180014496Y-51585433D02*
X179062116Y-51585433D01*
X179538306Y-52061623D02*
X179538306Y-51109242D01*
X187823239Y-136829800D02*
X187680382Y-136877419D01*
X187680382Y-136877419D02*
X187442287Y-136877419D01*
X187442287Y-136877419D02*
X187347049Y-136829800D01*
X187347049Y-136829800D02*
X187299430Y-136782180D01*
X187299430Y-136782180D02*
X187251811Y-136686942D01*
X187251811Y-136686942D02*
X187251811Y-136591704D01*
X187251811Y-136591704D02*
X187299430Y-136496466D01*
X187299430Y-136496466D02*
X187347049Y-136448847D01*
X187347049Y-136448847D02*
X187442287Y-136401228D01*
X187442287Y-136401228D02*
X187632763Y-136353609D01*
X187632763Y-136353609D02*
X187728001Y-136305990D01*
X187728001Y-136305990D02*
X187775620Y-136258371D01*
X187775620Y-136258371D02*
X187823239Y-136163133D01*
X187823239Y-136163133D02*
X187823239Y-136067895D01*
X187823239Y-136067895D02*
X187775620Y-135972657D01*
X187775620Y-135972657D02*
X187728001Y-135925038D01*
X187728001Y-135925038D02*
X187632763Y-135877419D01*
X187632763Y-135877419D02*
X187394668Y-135877419D01*
X187394668Y-135877419D02*
X187251811Y-135925038D01*
X186823239Y-136877419D02*
X186823239Y-135877419D01*
X186823239Y-135877419D02*
X186442287Y-135877419D01*
X186442287Y-135877419D02*
X186347049Y-135925038D01*
X186347049Y-135925038D02*
X186299430Y-135972657D01*
X186299430Y-135972657D02*
X186251811Y-136067895D01*
X186251811Y-136067895D02*
X186251811Y-136210752D01*
X186251811Y-136210752D02*
X186299430Y-136305990D01*
X186299430Y-136305990D02*
X186347049Y-136353609D01*
X186347049Y-136353609D02*
X186442287Y-136401228D01*
X186442287Y-136401228D02*
X186823239Y-136401228D01*
X185823239Y-136877419D02*
X185823239Y-135877419D01*
X185347049Y-136877419D02*
X185347049Y-135877419D01*
X185347049Y-135877419D02*
X184775621Y-136877419D01*
X184775621Y-136877419D02*
X184775621Y-135877419D01*
X184299430Y-136877419D02*
X184299430Y-135877419D01*
X184299430Y-135877419D02*
X184061335Y-135877419D01*
X184061335Y-135877419D02*
X183918478Y-135925038D01*
X183918478Y-135925038D02*
X183823240Y-136020276D01*
X183823240Y-136020276D02*
X183775621Y-136115514D01*
X183775621Y-136115514D02*
X183728002Y-136305990D01*
X183728002Y-136305990D02*
X183728002Y-136448847D01*
X183728002Y-136448847D02*
X183775621Y-136639323D01*
X183775621Y-136639323D02*
X183823240Y-136734561D01*
X183823240Y-136734561D02*
X183918478Y-136829800D01*
X183918478Y-136829800D02*
X184061335Y-136877419D01*
X184061335Y-136877419D02*
X184299430Y-136877419D01*
X182823240Y-136877419D02*
X183299430Y-136877419D01*
X183299430Y-136877419D02*
X183299430Y-135877419D01*
X182489906Y-136353609D02*
X182156573Y-136353609D01*
X182013716Y-136877419D02*
X182489906Y-136877419D01*
X182489906Y-136877419D02*
X182489906Y-135877419D01*
X182489906Y-135877419D02*
X182013716Y-135877419D01*
X180823239Y-136877419D02*
X180823239Y-135877419D01*
X180347049Y-136877419D02*
X180347049Y-135877419D01*
X180347049Y-135877419D02*
X179775621Y-136877419D01*
X179775621Y-136877419D02*
X179775621Y-135877419D01*
X179442287Y-135877419D02*
X178870859Y-135877419D01*
X179156573Y-136877419D02*
X179156573Y-135877419D01*
X178537525Y-136353609D02*
X178204192Y-136353609D01*
X178061335Y-136877419D02*
X178537525Y-136877419D01*
X178537525Y-136877419D02*
X178537525Y-135877419D01*
X178537525Y-135877419D02*
X178061335Y-135877419D01*
X177061335Y-136877419D02*
X177394668Y-136401228D01*
X177632763Y-136877419D02*
X177632763Y-135877419D01*
X177632763Y-135877419D02*
X177251811Y-135877419D01*
X177251811Y-135877419D02*
X177156573Y-135925038D01*
X177156573Y-135925038D02*
X177108954Y-135972657D01*
X177108954Y-135972657D02*
X177061335Y-136067895D01*
X177061335Y-136067895D02*
X177061335Y-136210752D01*
X177061335Y-136210752D02*
X177108954Y-136305990D01*
X177108954Y-136305990D02*
X177156573Y-136353609D01*
X177156573Y-136353609D02*
X177251811Y-136401228D01*
X177251811Y-136401228D02*
X177632763Y-136401228D01*
X176299430Y-136353609D02*
X176632763Y-136353609D01*
X176632763Y-136877419D02*
X176632763Y-135877419D01*
X176632763Y-135877419D02*
X176156573Y-135877419D01*
X175823239Y-136591704D02*
X175347049Y-136591704D01*
X175918477Y-136877419D02*
X175585144Y-135877419D01*
X175585144Y-135877419D02*
X175251811Y-136877419D01*
X174347049Y-136782180D02*
X174394668Y-136829800D01*
X174394668Y-136829800D02*
X174537525Y-136877419D01*
X174537525Y-136877419D02*
X174632763Y-136877419D01*
X174632763Y-136877419D02*
X174775620Y-136829800D01*
X174775620Y-136829800D02*
X174870858Y-136734561D01*
X174870858Y-136734561D02*
X174918477Y-136639323D01*
X174918477Y-136639323D02*
X174966096Y-136448847D01*
X174966096Y-136448847D02*
X174966096Y-136305990D01*
X174966096Y-136305990D02*
X174918477Y-136115514D01*
X174918477Y-136115514D02*
X174870858Y-136020276D01*
X174870858Y-136020276D02*
X174775620Y-135925038D01*
X174775620Y-135925038D02*
X174632763Y-135877419D01*
X174632763Y-135877419D02*
X174537525Y-135877419D01*
X174537525Y-135877419D02*
X174394668Y-135925038D01*
X174394668Y-135925038D02*
X174347049Y-135972657D01*
X173918477Y-136353609D02*
X173585144Y-136353609D01*
X173442287Y-136877419D02*
X173918477Y-136877419D01*
X173918477Y-136877419D02*
X173918477Y-135877419D01*
X173918477Y-135877419D02*
X173442287Y-135877419D01*
X197919811Y-124329819D02*
X198491239Y-124329819D01*
X198205525Y-124329819D02*
X198205525Y-123329819D01*
X198205525Y-123329819D02*
X198300763Y-123472676D01*
X198300763Y-123472676D02*
X198396001Y-123567914D01*
X198396001Y-123567914D02*
X198491239Y-123615533D01*
X197538858Y-123425057D02*
X197491239Y-123377438D01*
X197491239Y-123377438D02*
X197396001Y-123329819D01*
X197396001Y-123329819D02*
X197157906Y-123329819D01*
X197157906Y-123329819D02*
X197062668Y-123377438D01*
X197062668Y-123377438D02*
X197015049Y-123425057D01*
X197015049Y-123425057D02*
X196967430Y-123520295D01*
X196967430Y-123520295D02*
X196967430Y-123615533D01*
X196967430Y-123615533D02*
X197015049Y-123758390D01*
X197015049Y-123758390D02*
X197586477Y-124329819D01*
X197586477Y-124329819D02*
X196967430Y-124329819D01*
X196681715Y-123329819D02*
X196348382Y-124329819D01*
X196348382Y-124329819D02*
X196015049Y-123329819D01*
X197919811Y-103501819D02*
X198491239Y-103501819D01*
X198205525Y-103501819D02*
X198205525Y-102501819D01*
X198205525Y-102501819D02*
X198300763Y-102644676D01*
X198300763Y-102644676D02*
X198396001Y-102739914D01*
X198396001Y-102739914D02*
X198491239Y-102787533D01*
X197538858Y-102597057D02*
X197491239Y-102549438D01*
X197491239Y-102549438D02*
X197396001Y-102501819D01*
X197396001Y-102501819D02*
X197157906Y-102501819D01*
X197157906Y-102501819D02*
X197062668Y-102549438D01*
X197062668Y-102549438D02*
X197015049Y-102597057D01*
X197015049Y-102597057D02*
X196967430Y-102692295D01*
X196967430Y-102692295D02*
X196967430Y-102787533D01*
X196967430Y-102787533D02*
X197015049Y-102930390D01*
X197015049Y-102930390D02*
X197586477Y-103501819D01*
X197586477Y-103501819D02*
X196967430Y-103501819D01*
X196681715Y-102501819D02*
X196348382Y-103501819D01*
X196348382Y-103501819D02*
X196015049Y-102501819D01*
X194567011Y-102549438D02*
X194662249Y-102501819D01*
X194662249Y-102501819D02*
X194805106Y-102501819D01*
X194805106Y-102501819D02*
X194947963Y-102549438D01*
X194947963Y-102549438D02*
X195043201Y-102644676D01*
X195043201Y-102644676D02*
X195090820Y-102739914D01*
X195090820Y-102739914D02*
X195138439Y-102930390D01*
X195138439Y-102930390D02*
X195138439Y-103073247D01*
X195138439Y-103073247D02*
X195090820Y-103263723D01*
X195090820Y-103263723D02*
X195043201Y-103358961D01*
X195043201Y-103358961D02*
X194947963Y-103454200D01*
X194947963Y-103454200D02*
X194805106Y-103501819D01*
X194805106Y-103501819D02*
X194709868Y-103501819D01*
X194709868Y-103501819D02*
X194567011Y-103454200D01*
X194567011Y-103454200D02*
X194519392Y-103406580D01*
X194519392Y-103406580D02*
X194519392Y-103073247D01*
X194519392Y-103073247D02*
X194709868Y-103073247D01*
X194090820Y-103501819D02*
X194090820Y-102501819D01*
X194090820Y-102501819D02*
X193519392Y-103501819D01*
X193519392Y-103501819D02*
X193519392Y-102501819D01*
X193043201Y-103501819D02*
X193043201Y-102501819D01*
X193043201Y-102501819D02*
X192805106Y-102501819D01*
X192805106Y-102501819D02*
X192662249Y-102549438D01*
X192662249Y-102549438D02*
X192567011Y-102644676D01*
X192567011Y-102644676D02*
X192519392Y-102739914D01*
X192519392Y-102739914D02*
X192471773Y-102930390D01*
X192471773Y-102930390D02*
X192471773Y-103073247D01*
X192471773Y-103073247D02*
X192519392Y-103263723D01*
X192519392Y-103263723D02*
X192567011Y-103358961D01*
X192567011Y-103358961D02*
X192662249Y-103454200D01*
X192662249Y-103454200D02*
X192805106Y-103501819D01*
X192805106Y-103501819D02*
X193043201Y-103501819D01*
X163544020Y-51653680D02*
X162948782Y-51653680D01*
X163663068Y-52010823D02*
X163246401Y-50760823D01*
X163246401Y-50760823D02*
X162829735Y-52010823D01*
X162413067Y-51534633D02*
X161460687Y-51534633D01*
X161936877Y-52010823D02*
X161936877Y-51058442D01*
D11*
X184054764Y-118199276D02*
X184114288Y-118258800D01*
X184114288Y-118258800D02*
X184292859Y-118318323D01*
X184292859Y-118318323D02*
X184411907Y-118318323D01*
X184411907Y-118318323D02*
X184590478Y-118258800D01*
X184590478Y-118258800D02*
X184709526Y-118139752D01*
X184709526Y-118139752D02*
X184769049Y-118020704D01*
X184769049Y-118020704D02*
X184828573Y-117782609D01*
X184828573Y-117782609D02*
X184828573Y-117604038D01*
X184828573Y-117604038D02*
X184769049Y-117365942D01*
X184769049Y-117365942D02*
X184709526Y-117246895D01*
X184709526Y-117246895D02*
X184590478Y-117127847D01*
X184590478Y-117127847D02*
X184411907Y-117068323D01*
X184411907Y-117068323D02*
X184292859Y-117068323D01*
X184292859Y-117068323D02*
X184114288Y-117127847D01*
X184114288Y-117127847D02*
X184054764Y-117187371D01*
X184718249Y-120553523D02*
X184718249Y-119303523D01*
X184718249Y-119303523D02*
X184420630Y-119303523D01*
X184420630Y-119303523D02*
X184242059Y-119363047D01*
X184242059Y-119363047D02*
X184123011Y-119482095D01*
X184123011Y-119482095D02*
X184063488Y-119601142D01*
X184063488Y-119601142D02*
X184003964Y-119839238D01*
X184003964Y-119839238D02*
X184003964Y-120017809D01*
X184003964Y-120017809D02*
X184063488Y-120255904D01*
X184063488Y-120255904D02*
X184123011Y-120374952D01*
X184123011Y-120374952D02*
X184242059Y-120494000D01*
X184242059Y-120494000D02*
X184420630Y-120553523D01*
X184420630Y-120553523D02*
X184718249Y-120553523D01*
X184718249Y-127259123D02*
X184718249Y-126009123D01*
X184718249Y-126009123D02*
X184420630Y-126009123D01*
X184420630Y-126009123D02*
X184242059Y-126068647D01*
X184242059Y-126068647D02*
X184123011Y-126187695D01*
X184123011Y-126187695D02*
X184063488Y-126306742D01*
X184063488Y-126306742D02*
X184003964Y-126544838D01*
X184003964Y-126544838D02*
X184003964Y-126723409D01*
X184003964Y-126723409D02*
X184063488Y-126961504D01*
X184063488Y-126961504D02*
X184123011Y-127080552D01*
X184123011Y-127080552D02*
X184242059Y-127199600D01*
X184242059Y-127199600D02*
X184420630Y-127259123D01*
X184420630Y-127259123D02*
X184718249Y-127259123D01*
D10*
X117563780Y-137868573D02*
X117563780Y-137404287D01*
X117563780Y-137404287D02*
X117182828Y-137654287D01*
X117182828Y-137654287D02*
X117182828Y-137547144D01*
X117182828Y-137547144D02*
X117135209Y-137475716D01*
X117135209Y-137475716D02*
X117087590Y-137440001D01*
X117087590Y-137440001D02*
X116992352Y-137404287D01*
X116992352Y-137404287D02*
X116754257Y-137404287D01*
X116754257Y-137404287D02*
X116659019Y-137440001D01*
X116659019Y-137440001D02*
X116611400Y-137475716D01*
X116611400Y-137475716D02*
X116563780Y-137547144D01*
X116563780Y-137547144D02*
X116563780Y-137761430D01*
X116563780Y-137761430D02*
X116611400Y-137832858D01*
X116611400Y-137832858D02*
X116659019Y-137868573D01*
X117563780Y-137190001D02*
X116563780Y-136940001D01*
X116563780Y-136940001D02*
X117563780Y-136690001D01*
X117563780Y-136511430D02*
X117563780Y-136047144D01*
X117563780Y-136047144D02*
X117182828Y-136297144D01*
X117182828Y-136297144D02*
X117182828Y-136190001D01*
X117182828Y-136190001D02*
X117135209Y-136118573D01*
X117135209Y-136118573D02*
X117087590Y-136082858D01*
X117087590Y-136082858D02*
X116992352Y-136047144D01*
X116992352Y-136047144D02*
X116754257Y-136047144D01*
X116754257Y-136047144D02*
X116659019Y-136082858D01*
X116659019Y-136082858D02*
X116611400Y-136118573D01*
X116611400Y-136118573D02*
X116563780Y-136190001D01*
X116563780Y-136190001D02*
X116563780Y-136404287D01*
X116563780Y-136404287D02*
X116611400Y-136475715D01*
X116611400Y-136475715D02*
X116659019Y-136511430D01*
D11*
X184301583Y-106436761D02*
X184123011Y-106496285D01*
X184123011Y-106496285D02*
X184063488Y-106555809D01*
X184063488Y-106555809D02*
X184003964Y-106674857D01*
X184003964Y-106674857D02*
X184003964Y-106853428D01*
X184003964Y-106853428D02*
X184063488Y-106972476D01*
X184063488Y-106972476D02*
X184123011Y-107032000D01*
X184123011Y-107032000D02*
X184242059Y-107091523D01*
X184242059Y-107091523D02*
X184718249Y-107091523D01*
X184718249Y-107091523D02*
X184718249Y-105841523D01*
X184718249Y-105841523D02*
X184301583Y-105841523D01*
X184301583Y-105841523D02*
X184182535Y-105901047D01*
X184182535Y-105901047D02*
X184123011Y-105960571D01*
X184123011Y-105960571D02*
X184063488Y-106079619D01*
X184063488Y-106079619D02*
X184063488Y-106198666D01*
X184063488Y-106198666D02*
X184123011Y-106317714D01*
X184123011Y-106317714D02*
X184182535Y-106377238D01*
X184182535Y-106377238D02*
X184301583Y-106436761D01*
X184301583Y-106436761D02*
X184718249Y-106436761D01*
D10*
X139245811Y-139481038D02*
X139341049Y-139433419D01*
X139341049Y-139433419D02*
X139483906Y-139433419D01*
X139483906Y-139433419D02*
X139626763Y-139481038D01*
X139626763Y-139481038D02*
X139722001Y-139576276D01*
X139722001Y-139576276D02*
X139769620Y-139671514D01*
X139769620Y-139671514D02*
X139817239Y-139861990D01*
X139817239Y-139861990D02*
X139817239Y-140004847D01*
X139817239Y-140004847D02*
X139769620Y-140195323D01*
X139769620Y-140195323D02*
X139722001Y-140290561D01*
X139722001Y-140290561D02*
X139626763Y-140385800D01*
X139626763Y-140385800D02*
X139483906Y-140433419D01*
X139483906Y-140433419D02*
X139388668Y-140433419D01*
X139388668Y-140433419D02*
X139245811Y-140385800D01*
X139245811Y-140385800D02*
X139198192Y-140338180D01*
X139198192Y-140338180D02*
X139198192Y-140004847D01*
X139198192Y-140004847D02*
X139388668Y-140004847D01*
X138769620Y-140433419D02*
X138769620Y-139433419D01*
X138769620Y-139433419D02*
X138198192Y-140433419D01*
X138198192Y-140433419D02*
X138198192Y-139433419D01*
X137722001Y-140433419D02*
X137722001Y-139433419D01*
X137722001Y-139433419D02*
X137483906Y-139433419D01*
X137483906Y-139433419D02*
X137341049Y-139481038D01*
X137341049Y-139481038D02*
X137245811Y-139576276D01*
X137245811Y-139576276D02*
X137198192Y-139671514D01*
X137198192Y-139671514D02*
X137150573Y-139861990D01*
X137150573Y-139861990D02*
X137150573Y-140004847D01*
X137150573Y-140004847D02*
X137198192Y-140195323D01*
X137198192Y-140195323D02*
X137245811Y-140290561D01*
X137245811Y-140290561D02*
X137341049Y-140385800D01*
X137341049Y-140385800D02*
X137483906Y-140433419D01*
X137483906Y-140433419D02*
X137722001Y-140433419D01*
X136007715Y-140385800D02*
X135864858Y-140433419D01*
X135864858Y-140433419D02*
X135626763Y-140433419D01*
X135626763Y-140433419D02*
X135531525Y-140385800D01*
X135531525Y-140385800D02*
X135483906Y-140338180D01*
X135483906Y-140338180D02*
X135436287Y-140242942D01*
X135436287Y-140242942D02*
X135436287Y-140147704D01*
X135436287Y-140147704D02*
X135483906Y-140052466D01*
X135483906Y-140052466D02*
X135531525Y-140004847D01*
X135531525Y-140004847D02*
X135626763Y-139957228D01*
X135626763Y-139957228D02*
X135817239Y-139909609D01*
X135817239Y-139909609D02*
X135912477Y-139861990D01*
X135912477Y-139861990D02*
X135960096Y-139814371D01*
X135960096Y-139814371D02*
X136007715Y-139719133D01*
X136007715Y-139719133D02*
X136007715Y-139623895D01*
X136007715Y-139623895D02*
X135960096Y-139528657D01*
X135960096Y-139528657D02*
X135912477Y-139481038D01*
X135912477Y-139481038D02*
X135817239Y-139433419D01*
X135817239Y-139433419D02*
X135579144Y-139433419D01*
X135579144Y-139433419D02*
X135436287Y-139481038D01*
X134341048Y-139433419D02*
X133722001Y-139433419D01*
X133722001Y-139433419D02*
X134055334Y-139814371D01*
X134055334Y-139814371D02*
X133912477Y-139814371D01*
X133912477Y-139814371D02*
X133817239Y-139861990D01*
X133817239Y-139861990D02*
X133769620Y-139909609D01*
X133769620Y-139909609D02*
X133722001Y-140004847D01*
X133722001Y-140004847D02*
X133722001Y-140242942D01*
X133722001Y-140242942D02*
X133769620Y-140338180D01*
X133769620Y-140338180D02*
X133817239Y-140385800D01*
X133817239Y-140385800D02*
X133912477Y-140433419D01*
X133912477Y-140433419D02*
X134198191Y-140433419D01*
X134198191Y-140433419D02*
X134293429Y-140385800D01*
X134293429Y-140385800D02*
X134341048Y-140338180D01*
X133436286Y-139433419D02*
X133102953Y-140433419D01*
X133102953Y-140433419D02*
X132769620Y-139433419D01*
X132531524Y-139433419D02*
X131912477Y-139433419D01*
X131912477Y-139433419D02*
X132245810Y-139814371D01*
X132245810Y-139814371D02*
X132102953Y-139814371D01*
X132102953Y-139814371D02*
X132007715Y-139861990D01*
X132007715Y-139861990D02*
X131960096Y-139909609D01*
X131960096Y-139909609D02*
X131912477Y-140004847D01*
X131912477Y-140004847D02*
X131912477Y-140242942D01*
X131912477Y-140242942D02*
X131960096Y-140338180D01*
X131960096Y-140338180D02*
X132007715Y-140385800D01*
X132007715Y-140385800D02*
X132102953Y-140433419D01*
X132102953Y-140433419D02*
X132388667Y-140433419D01*
X132388667Y-140433419D02*
X132483905Y-140385800D01*
X132483905Y-140385800D02*
X132531524Y-140338180D01*
X184778420Y-51704480D02*
X184183182Y-51704480D01*
X184897468Y-52061623D02*
X184480801Y-50811623D01*
X184480801Y-50811623D02*
X184064135Y-52061623D01*
X183647467Y-51585433D02*
X182695087Y-51585433D01*
X175774087Y-106498009D02*
X176107420Y-106498009D01*
X176107420Y-107021819D02*
X176107420Y-106021819D01*
X176107420Y-106021819D02*
X175631230Y-106021819D01*
X175297896Y-106974200D02*
X175155039Y-107021819D01*
X175155039Y-107021819D02*
X174916944Y-107021819D01*
X174916944Y-107021819D02*
X174821706Y-106974200D01*
X174821706Y-106974200D02*
X174774087Y-106926580D01*
X174774087Y-106926580D02*
X174726468Y-106831342D01*
X174726468Y-106831342D02*
X174726468Y-106736104D01*
X174726468Y-106736104D02*
X174774087Y-106640866D01*
X174774087Y-106640866D02*
X174821706Y-106593247D01*
X174821706Y-106593247D02*
X174916944Y-106545628D01*
X174916944Y-106545628D02*
X175107420Y-106498009D01*
X175107420Y-106498009D02*
X175202658Y-106450390D01*
X175202658Y-106450390D02*
X175250277Y-106402771D01*
X175250277Y-106402771D02*
X175297896Y-106307533D01*
X175297896Y-106307533D02*
X175297896Y-106212295D01*
X175297896Y-106212295D02*
X175250277Y-106117057D01*
X175250277Y-106117057D02*
X175202658Y-106069438D01*
X175202658Y-106069438D02*
X175107420Y-106021819D01*
X175107420Y-106021819D02*
X174869325Y-106021819D01*
X174869325Y-106021819D02*
X174726468Y-106069438D01*
X173012182Y-107021819D02*
X173583610Y-107021819D01*
X173297896Y-107021819D02*
X173297896Y-106021819D01*
X173297896Y-106021819D02*
X173393134Y-106164676D01*
X173393134Y-106164676D02*
X173488372Y-106259914D01*
X173488372Y-106259914D02*
X173583610Y-106307533D01*
X172393134Y-106021819D02*
X172297896Y-106021819D01*
X172297896Y-106021819D02*
X172202658Y-106069438D01*
X172202658Y-106069438D02*
X172155039Y-106117057D01*
X172155039Y-106117057D02*
X172107420Y-106212295D01*
X172107420Y-106212295D02*
X172059801Y-106402771D01*
X172059801Y-106402771D02*
X172059801Y-106640866D01*
X172059801Y-106640866D02*
X172107420Y-106831342D01*
X172107420Y-106831342D02*
X172155039Y-106926580D01*
X172155039Y-106926580D02*
X172202658Y-106974200D01*
X172202658Y-106974200D02*
X172297896Y-107021819D01*
X172297896Y-107021819D02*
X172393134Y-107021819D01*
X172393134Y-107021819D02*
X172488372Y-106974200D01*
X172488372Y-106974200D02*
X172535991Y-106926580D01*
X172535991Y-106926580D02*
X172583610Y-106831342D01*
X172583610Y-106831342D02*
X172631229Y-106640866D01*
X172631229Y-106640866D02*
X172631229Y-106402771D01*
X172631229Y-106402771D02*
X172583610Y-106212295D01*
X172583610Y-106212295D02*
X172535991Y-106117057D01*
X172535991Y-106117057D02*
X172488372Y-106069438D01*
X172488372Y-106069438D02*
X172393134Y-106021819D01*
X171440753Y-106021819D02*
X171345515Y-106021819D01*
X171345515Y-106021819D02*
X171250277Y-106069438D01*
X171250277Y-106069438D02*
X171202658Y-106117057D01*
X171202658Y-106117057D02*
X171155039Y-106212295D01*
X171155039Y-106212295D02*
X171107420Y-106402771D01*
X171107420Y-106402771D02*
X171107420Y-106640866D01*
X171107420Y-106640866D02*
X171155039Y-106831342D01*
X171155039Y-106831342D02*
X171202658Y-106926580D01*
X171202658Y-106926580D02*
X171250277Y-106974200D01*
X171250277Y-106974200D02*
X171345515Y-107021819D01*
X171345515Y-107021819D02*
X171440753Y-107021819D01*
X171440753Y-107021819D02*
X171535991Y-106974200D01*
X171535991Y-106974200D02*
X171583610Y-106926580D01*
X171583610Y-106926580D02*
X171631229Y-106831342D01*
X171631229Y-106831342D02*
X171678848Y-106640866D01*
X171678848Y-106640866D02*
X171678848Y-106402771D01*
X171678848Y-106402771D02*
X171631229Y-106212295D01*
X171631229Y-106212295D02*
X171583610Y-106117057D01*
X171583610Y-106117057D02*
X171535991Y-106069438D01*
X171535991Y-106069438D02*
X171440753Y-106021819D01*
X170726467Y-107021819D02*
X169964563Y-106021819D01*
X170583610Y-106021819D02*
X170488372Y-106069438D01*
X170488372Y-106069438D02*
X170440753Y-106164676D01*
X170440753Y-106164676D02*
X170488372Y-106259914D01*
X170488372Y-106259914D02*
X170583610Y-106307533D01*
X170583610Y-106307533D02*
X170678848Y-106259914D01*
X170678848Y-106259914D02*
X170726467Y-106164676D01*
X170726467Y-106164676D02*
X170678848Y-106069438D01*
X170678848Y-106069438D02*
X170583610Y-106021819D01*
X170012182Y-106974200D02*
X169964563Y-106878961D01*
X169964563Y-106878961D02*
X170012182Y-106783723D01*
X170012182Y-106783723D02*
X170107420Y-106736104D01*
X170107420Y-106736104D02*
X170202658Y-106783723D01*
X170202658Y-106783723D02*
X170250277Y-106878961D01*
X170250277Y-106878961D02*
X170202658Y-106974200D01*
X170202658Y-106974200D02*
X170107420Y-107021819D01*
X170107420Y-107021819D02*
X170012182Y-106974200D01*
X175583611Y-129373819D02*
X176155039Y-129373819D01*
X175869325Y-129373819D02*
X175869325Y-128373819D01*
X175869325Y-128373819D02*
X175964563Y-128516676D01*
X175964563Y-128516676D02*
X176059801Y-128611914D01*
X176059801Y-128611914D02*
X176155039Y-128659533D01*
X174440754Y-128326200D02*
X175297896Y-129611914D01*
X174155039Y-128469057D02*
X174107420Y-128421438D01*
X174107420Y-128421438D02*
X174012182Y-128373819D01*
X174012182Y-128373819D02*
X173774087Y-128373819D01*
X173774087Y-128373819D02*
X173678849Y-128421438D01*
X173678849Y-128421438D02*
X173631230Y-128469057D01*
X173631230Y-128469057D02*
X173583611Y-128564295D01*
X173583611Y-128564295D02*
X173583611Y-128659533D01*
X173583611Y-128659533D02*
X173631230Y-128802390D01*
X173631230Y-128802390D02*
X174202658Y-129373819D01*
X174202658Y-129373819D02*
X173583611Y-129373819D01*
X172678849Y-128373819D02*
X173155039Y-128373819D01*
X173155039Y-128373819D02*
X173202658Y-128850009D01*
X173202658Y-128850009D02*
X173155039Y-128802390D01*
X173155039Y-128802390D02*
X173059801Y-128754771D01*
X173059801Y-128754771D02*
X172821706Y-128754771D01*
X172821706Y-128754771D02*
X172726468Y-128802390D01*
X172726468Y-128802390D02*
X172678849Y-128850009D01*
X172678849Y-128850009D02*
X172631230Y-128945247D01*
X172631230Y-128945247D02*
X172631230Y-129183342D01*
X172631230Y-129183342D02*
X172678849Y-129278580D01*
X172678849Y-129278580D02*
X172726468Y-129326200D01*
X172726468Y-129326200D02*
X172821706Y-129373819D01*
X172821706Y-129373819D02*
X173059801Y-129373819D01*
X173059801Y-129373819D02*
X173155039Y-129326200D01*
X173155039Y-129326200D02*
X173202658Y-129278580D01*
X171774087Y-128373819D02*
X171964563Y-128373819D01*
X171964563Y-128373819D02*
X172059801Y-128421438D01*
X172059801Y-128421438D02*
X172107420Y-128469057D01*
X172107420Y-128469057D02*
X172202658Y-128611914D01*
X172202658Y-128611914D02*
X172250277Y-128802390D01*
X172250277Y-128802390D02*
X172250277Y-129183342D01*
X172250277Y-129183342D02*
X172202658Y-129278580D01*
X172202658Y-129278580D02*
X172155039Y-129326200D01*
X172155039Y-129326200D02*
X172059801Y-129373819D01*
X172059801Y-129373819D02*
X171869325Y-129373819D01*
X171869325Y-129373819D02*
X171774087Y-129326200D01*
X171774087Y-129326200D02*
X171726468Y-129278580D01*
X171726468Y-129278580D02*
X171678849Y-129183342D01*
X171678849Y-129183342D02*
X171678849Y-128945247D01*
X171678849Y-128945247D02*
X171726468Y-128850009D01*
X171726468Y-128850009D02*
X171774087Y-128802390D01*
X171774087Y-128802390D02*
X171869325Y-128754771D01*
X171869325Y-128754771D02*
X172059801Y-128754771D01*
X172059801Y-128754771D02*
X172155039Y-128802390D01*
X172155039Y-128802390D02*
X172202658Y-128850009D01*
X172202658Y-128850009D02*
X172250277Y-128945247D01*
X170535991Y-129326200D02*
X170440753Y-129373819D01*
X170440753Y-129373819D02*
X170250277Y-129373819D01*
X170250277Y-129373819D02*
X170155039Y-129326200D01*
X170155039Y-129326200D02*
X170107420Y-129230961D01*
X170107420Y-129230961D02*
X170107420Y-129183342D01*
X170107420Y-129183342D02*
X170155039Y-129088104D01*
X170155039Y-129088104D02*
X170250277Y-129040485D01*
X170250277Y-129040485D02*
X170393134Y-129040485D01*
X170393134Y-129040485D02*
X170488372Y-128992866D01*
X170488372Y-128992866D02*
X170535991Y-128897628D01*
X170535991Y-128897628D02*
X170535991Y-128850009D01*
X170535991Y-128850009D02*
X170488372Y-128754771D01*
X170488372Y-128754771D02*
X170393134Y-128707152D01*
X170393134Y-128707152D02*
X170250277Y-128707152D01*
X170250277Y-128707152D02*
X170155039Y-128754771D01*
X169821705Y-128707152D02*
X169440753Y-128707152D01*
X169678848Y-128373819D02*
X169678848Y-129230961D01*
X169678848Y-129230961D02*
X169631229Y-129326200D01*
X169631229Y-129326200D02*
X169535991Y-129373819D01*
X169535991Y-129373819D02*
X169440753Y-129373819D01*
X168726467Y-129326200D02*
X168821705Y-129373819D01*
X168821705Y-129373819D02*
X169012181Y-129373819D01*
X169012181Y-129373819D02*
X169107419Y-129326200D01*
X169107419Y-129326200D02*
X169155038Y-129230961D01*
X169155038Y-129230961D02*
X169155038Y-128850009D01*
X169155038Y-128850009D02*
X169107419Y-128754771D01*
X169107419Y-128754771D02*
X169012181Y-128707152D01*
X169012181Y-128707152D02*
X168821705Y-128707152D01*
X168821705Y-128707152D02*
X168726467Y-128754771D01*
X168726467Y-128754771D02*
X168678848Y-128850009D01*
X168678848Y-128850009D02*
X168678848Y-128945247D01*
X168678848Y-128945247D02*
X169155038Y-129040485D01*
X168250276Y-128707152D02*
X168250276Y-129707152D01*
X168250276Y-128754771D02*
X168155038Y-128707152D01*
X168155038Y-128707152D02*
X167964562Y-128707152D01*
X167964562Y-128707152D02*
X167869324Y-128754771D01*
X167869324Y-128754771D02*
X167821705Y-128802390D01*
X167821705Y-128802390D02*
X167774086Y-128897628D01*
X167774086Y-128897628D02*
X167774086Y-129183342D01*
X167774086Y-129183342D02*
X167821705Y-129278580D01*
X167821705Y-129278580D02*
X167869324Y-129326200D01*
X167869324Y-129326200D02*
X167964562Y-129373819D01*
X167964562Y-129373819D02*
X168155038Y-129373819D01*
X168155038Y-129373819D02*
X168250276Y-129326200D01*
X188191780Y-140379220D02*
X189191780Y-140379220D01*
X189191780Y-140379220D02*
X189191780Y-140141125D01*
X189191780Y-140141125D02*
X189144161Y-139998268D01*
X189144161Y-139998268D02*
X189048923Y-139903030D01*
X189048923Y-139903030D02*
X188953685Y-139855411D01*
X188953685Y-139855411D02*
X188763209Y-139807792D01*
X188763209Y-139807792D02*
X188620352Y-139807792D01*
X188620352Y-139807792D02*
X188429876Y-139855411D01*
X188429876Y-139855411D02*
X188334638Y-139903030D01*
X188334638Y-139903030D02*
X188239400Y-139998268D01*
X188239400Y-139998268D02*
X188191780Y-140141125D01*
X188191780Y-140141125D02*
X188191780Y-140379220D01*
X188191780Y-139379220D02*
X189191780Y-139379220D01*
X188191780Y-138331602D02*
X188667971Y-138664935D01*
X188191780Y-138903030D02*
X189191780Y-138903030D01*
X189191780Y-138903030D02*
X189191780Y-138522078D01*
X189191780Y-138522078D02*
X189144161Y-138426840D01*
X189144161Y-138426840D02*
X189096542Y-138379221D01*
X189096542Y-138379221D02*
X189001304Y-138331602D01*
X189001304Y-138331602D02*
X188858447Y-138331602D01*
X188858447Y-138331602D02*
X188763209Y-138379221D01*
X188763209Y-138379221D02*
X188715590Y-138426840D01*
X188715590Y-138426840D02*
X188667971Y-138522078D01*
X188667971Y-138522078D02*
X188667971Y-138903030D01*
X147542020Y-51653680D02*
X146946782Y-51653680D01*
X147661068Y-52010823D02*
X147244401Y-50760823D01*
X147244401Y-50760823D02*
X146827735Y-52010823D01*
X146411067Y-51534633D02*
X145458687Y-51534633D01*
X145934877Y-52010823D02*
X145934877Y-51058442D01*
D11*
X178923964Y-120434476D02*
X178983488Y-120494000D01*
X178983488Y-120494000D02*
X179162059Y-120553523D01*
X179162059Y-120553523D02*
X179281107Y-120553523D01*
X179281107Y-120553523D02*
X179459678Y-120494000D01*
X179459678Y-120494000D02*
X179578726Y-120374952D01*
X179578726Y-120374952D02*
X179638249Y-120255904D01*
X179638249Y-120255904D02*
X179697773Y-120017809D01*
X179697773Y-120017809D02*
X179697773Y-119839238D01*
X179697773Y-119839238D02*
X179638249Y-119601142D01*
X179638249Y-119601142D02*
X179578726Y-119482095D01*
X179578726Y-119482095D02*
X179459678Y-119363047D01*
X179459678Y-119363047D02*
X179281107Y-119303523D01*
X179281107Y-119303523D02*
X179162059Y-119303523D01*
X179162059Y-119303523D02*
X178983488Y-119363047D01*
X178983488Y-119363047D02*
X178923964Y-119422571D01*
X184301583Y-115479161D02*
X184123011Y-115538685D01*
X184123011Y-115538685D02*
X184063488Y-115598209D01*
X184063488Y-115598209D02*
X184003964Y-115717257D01*
X184003964Y-115717257D02*
X184003964Y-115895828D01*
X184003964Y-115895828D02*
X184063488Y-116014876D01*
X184063488Y-116014876D02*
X184123011Y-116074400D01*
X184123011Y-116074400D02*
X184242059Y-116133923D01*
X184242059Y-116133923D02*
X184718249Y-116133923D01*
X184718249Y-116133923D02*
X184718249Y-114883923D01*
X184718249Y-114883923D02*
X184301583Y-114883923D01*
X184301583Y-114883923D02*
X184182535Y-114943447D01*
X184182535Y-114943447D02*
X184123011Y-115002971D01*
X184123011Y-115002971D02*
X184063488Y-115122019D01*
X184063488Y-115122019D02*
X184063488Y-115241066D01*
X184063488Y-115241066D02*
X184123011Y-115360114D01*
X184123011Y-115360114D02*
X184182535Y-115419638D01*
X184182535Y-115419638D02*
X184301583Y-115479161D01*
X184301583Y-115479161D02*
X184718249Y-115479161D01*
D10*
X160378611Y-96542219D02*
X160950039Y-96542219D01*
X160664325Y-96542219D02*
X160664325Y-95542219D01*
X160664325Y-95542219D02*
X160759563Y-95685076D01*
X160759563Y-95685076D02*
X160854801Y-95780314D01*
X160854801Y-95780314D02*
X160950039Y-95827933D01*
X159997658Y-95637457D02*
X159950039Y-95589838D01*
X159950039Y-95589838D02*
X159854801Y-95542219D01*
X159854801Y-95542219D02*
X159616706Y-95542219D01*
X159616706Y-95542219D02*
X159521468Y-95589838D01*
X159521468Y-95589838D02*
X159473849Y-95637457D01*
X159473849Y-95637457D02*
X159426230Y-95732695D01*
X159426230Y-95732695D02*
X159426230Y-95827933D01*
X159426230Y-95827933D02*
X159473849Y-95970790D01*
X159473849Y-95970790D02*
X160045277Y-96542219D01*
X160045277Y-96542219D02*
X159426230Y-96542219D01*
X159140515Y-95542219D02*
X158807182Y-96542219D01*
X158807182Y-96542219D02*
X158473849Y-95542219D01*
X181197190Y-140045887D02*
X181197190Y-140379220D01*
X180673380Y-140379220D02*
X181673380Y-140379220D01*
X181673380Y-140379220D02*
X181673380Y-139903030D01*
X181197190Y-139188744D02*
X181149571Y-139045887D01*
X181149571Y-139045887D02*
X181101952Y-138998268D01*
X181101952Y-138998268D02*
X181006714Y-138950649D01*
X181006714Y-138950649D02*
X180863857Y-138950649D01*
X180863857Y-138950649D02*
X180768619Y-138998268D01*
X180768619Y-138998268D02*
X180721000Y-139045887D01*
X180721000Y-139045887D02*
X180673380Y-139141125D01*
X180673380Y-139141125D02*
X180673380Y-139522077D01*
X180673380Y-139522077D02*
X181673380Y-139522077D01*
X181673380Y-139522077D02*
X181673380Y-139188744D01*
X181673380Y-139188744D02*
X181625761Y-139093506D01*
X181625761Y-139093506D02*
X181578142Y-139045887D01*
X181578142Y-139045887D02*
X181482904Y-138998268D01*
X181482904Y-138998268D02*
X181387666Y-138998268D01*
X181387666Y-138998268D02*
X181292428Y-139045887D01*
X181292428Y-139045887D02*
X181244809Y-139093506D01*
X181244809Y-139093506D02*
X181197190Y-139188744D01*
X181197190Y-139188744D02*
X181197190Y-139522077D01*
D11*
X179596173Y-124666780D02*
X179000935Y-124666780D01*
X179715221Y-125023923D02*
X179298554Y-123773923D01*
X179298554Y-123773923D02*
X178881888Y-125023923D01*
D10*
X144036820Y-51704480D02*
X143441582Y-51704480D01*
X144155868Y-52061623D02*
X143739201Y-50811623D01*
X143739201Y-50811623D02*
X143322535Y-52061623D01*
X142905867Y-51585433D02*
X141953487Y-51585433D01*
X175634411Y-113778219D02*
X176205839Y-113778219D01*
X175920125Y-113778219D02*
X175920125Y-112778219D01*
X175920125Y-112778219D02*
X176015363Y-112921076D01*
X176015363Y-112921076D02*
X176110601Y-113016314D01*
X176110601Y-113016314D02*
X176205839Y-113063933D01*
X174491554Y-112730600D02*
X175348696Y-114016314D01*
X174205839Y-112873457D02*
X174158220Y-112825838D01*
X174158220Y-112825838D02*
X174062982Y-112778219D01*
X174062982Y-112778219D02*
X173824887Y-112778219D01*
X173824887Y-112778219D02*
X173729649Y-112825838D01*
X173729649Y-112825838D02*
X173682030Y-112873457D01*
X173682030Y-112873457D02*
X173634411Y-112968695D01*
X173634411Y-112968695D02*
X173634411Y-113063933D01*
X173634411Y-113063933D02*
X173682030Y-113206790D01*
X173682030Y-113206790D02*
X174253458Y-113778219D01*
X174253458Y-113778219D02*
X173634411Y-113778219D01*
X172491553Y-113730600D02*
X172396315Y-113778219D01*
X172396315Y-113778219D02*
X172205839Y-113778219D01*
X172205839Y-113778219D02*
X172110601Y-113730600D01*
X172110601Y-113730600D02*
X172062982Y-113635361D01*
X172062982Y-113635361D02*
X172062982Y-113587742D01*
X172062982Y-113587742D02*
X172110601Y-113492504D01*
X172110601Y-113492504D02*
X172205839Y-113444885D01*
X172205839Y-113444885D02*
X172348696Y-113444885D01*
X172348696Y-113444885D02*
X172443934Y-113397266D01*
X172443934Y-113397266D02*
X172491553Y-113302028D01*
X172491553Y-113302028D02*
X172491553Y-113254409D01*
X172491553Y-113254409D02*
X172443934Y-113159171D01*
X172443934Y-113159171D02*
X172348696Y-113111552D01*
X172348696Y-113111552D02*
X172205839Y-113111552D01*
X172205839Y-113111552D02*
X172110601Y-113159171D01*
X171777267Y-113111552D02*
X171396315Y-113111552D01*
X171634410Y-112778219D02*
X171634410Y-113635361D01*
X171634410Y-113635361D02*
X171586791Y-113730600D01*
X171586791Y-113730600D02*
X171491553Y-113778219D01*
X171491553Y-113778219D02*
X171396315Y-113778219D01*
X170682029Y-113730600D02*
X170777267Y-113778219D01*
X170777267Y-113778219D02*
X170967743Y-113778219D01*
X170967743Y-113778219D02*
X171062981Y-113730600D01*
X171062981Y-113730600D02*
X171110600Y-113635361D01*
X171110600Y-113635361D02*
X171110600Y-113254409D01*
X171110600Y-113254409D02*
X171062981Y-113159171D01*
X171062981Y-113159171D02*
X170967743Y-113111552D01*
X170967743Y-113111552D02*
X170777267Y-113111552D01*
X170777267Y-113111552D02*
X170682029Y-113159171D01*
X170682029Y-113159171D02*
X170634410Y-113254409D01*
X170634410Y-113254409D02*
X170634410Y-113349647D01*
X170634410Y-113349647D02*
X171110600Y-113444885D01*
X170205838Y-113111552D02*
X170205838Y-114111552D01*
X170205838Y-113159171D02*
X170110600Y-113111552D01*
X170110600Y-113111552D02*
X169920124Y-113111552D01*
X169920124Y-113111552D02*
X169824886Y-113159171D01*
X169824886Y-113159171D02*
X169777267Y-113206790D01*
X169777267Y-113206790D02*
X169729648Y-113302028D01*
X169729648Y-113302028D02*
X169729648Y-113587742D01*
X169729648Y-113587742D02*
X169777267Y-113682980D01*
X169777267Y-113682980D02*
X169824886Y-113730600D01*
X169824886Y-113730600D02*
X169920124Y-113778219D01*
X169920124Y-113778219D02*
X170110600Y-113778219D01*
X170110600Y-113778219D02*
X170205838Y-113730600D01*
X156108230Y-51406861D02*
X155929658Y-51466385D01*
X155929658Y-51466385D02*
X155870135Y-51525909D01*
X155870135Y-51525909D02*
X155810611Y-51644957D01*
X155810611Y-51644957D02*
X155810611Y-51823528D01*
X155810611Y-51823528D02*
X155870135Y-51942576D01*
X155870135Y-51942576D02*
X155929658Y-52002100D01*
X155929658Y-52002100D02*
X156048706Y-52061623D01*
X156048706Y-52061623D02*
X156524896Y-52061623D01*
X156524896Y-52061623D02*
X156524896Y-50811623D01*
X156524896Y-50811623D02*
X156108230Y-50811623D01*
X156108230Y-50811623D02*
X155989182Y-50871147D01*
X155989182Y-50871147D02*
X155929658Y-50930671D01*
X155929658Y-50930671D02*
X155870135Y-51049719D01*
X155870135Y-51049719D02*
X155870135Y-51168766D01*
X155870135Y-51168766D02*
X155929658Y-51287814D01*
X155929658Y-51287814D02*
X155989182Y-51347338D01*
X155989182Y-51347338D02*
X156108230Y-51406861D01*
X156108230Y-51406861D02*
X156524896Y-51406861D01*
X155274896Y-51585433D02*
X154322516Y-51585433D01*
X154798706Y-52061623D02*
X154798706Y-51109242D01*
D11*
X184718249Y-113847923D02*
X184718249Y-112597923D01*
X184718249Y-112597923D02*
X184420630Y-112597923D01*
X184420630Y-112597923D02*
X184242059Y-112657447D01*
X184242059Y-112657447D02*
X184123011Y-112776495D01*
X184123011Y-112776495D02*
X184063488Y-112895542D01*
X184063488Y-112895542D02*
X184003964Y-113133638D01*
X184003964Y-113133638D02*
X184003964Y-113312209D01*
X184003964Y-113312209D02*
X184063488Y-113550304D01*
X184063488Y-113550304D02*
X184123011Y-113669352D01*
X184123011Y-113669352D02*
X184242059Y-113788400D01*
X184242059Y-113788400D02*
X184420630Y-113847923D01*
X184420630Y-113847923D02*
X184718249Y-113847923D01*
D10*
X160038820Y-51704480D02*
X159443582Y-51704480D01*
X160157868Y-52061623D02*
X159741201Y-50811623D01*
X159741201Y-50811623D02*
X159324535Y-52061623D01*
X158907867Y-51585433D02*
X157955487Y-51585433D01*
D12*
X180333002Y-104905823D02*
X180333002Y-103655823D01*
X180333002Y-103655823D02*
X179916336Y-104548680D01*
X179916336Y-104548680D02*
X179499669Y-103655823D01*
X179499669Y-103655823D02*
X179499669Y-104905823D01*
X178249670Y-104905823D02*
X178963955Y-104905823D01*
X178606812Y-104905823D02*
X178606812Y-103655823D01*
X178606812Y-103655823D02*
X178725860Y-103834395D01*
X178725860Y-103834395D02*
X178844908Y-103953442D01*
X178844908Y-103953442D02*
X178963955Y-104012966D01*
D10*
X172138980Y-139753811D02*
X172138980Y-140325239D01*
X172138980Y-140039525D02*
X173138980Y-140039525D01*
X173138980Y-140039525D02*
X172996123Y-140134763D01*
X172996123Y-140134763D02*
X172900885Y-140230001D01*
X172900885Y-140230001D02*
X172853266Y-140325239D01*
X173043742Y-139372858D02*
X173091361Y-139325239D01*
X173091361Y-139325239D02*
X173138980Y-139230001D01*
X173138980Y-139230001D02*
X173138980Y-138991906D01*
X173138980Y-138991906D02*
X173091361Y-138896668D01*
X173091361Y-138896668D02*
X173043742Y-138849049D01*
X173043742Y-138849049D02*
X172948504Y-138801430D01*
X172948504Y-138801430D02*
X172853266Y-138801430D01*
X172853266Y-138801430D02*
X172710409Y-138849049D01*
X172710409Y-138849049D02*
X172138980Y-139420477D01*
X172138980Y-139420477D02*
X172138980Y-138801430D01*
X173138980Y-138515715D02*
X172138980Y-138182382D01*
X172138980Y-138182382D02*
X173138980Y-137849049D01*
X140106230Y-51406861D02*
X139927658Y-51466385D01*
X139927658Y-51466385D02*
X139868135Y-51525909D01*
X139868135Y-51525909D02*
X139808611Y-51644957D01*
X139808611Y-51644957D02*
X139808611Y-51823528D01*
X139808611Y-51823528D02*
X139868135Y-51942576D01*
X139868135Y-51942576D02*
X139927658Y-52002100D01*
X139927658Y-52002100D02*
X140046706Y-52061623D01*
X140046706Y-52061623D02*
X140522896Y-52061623D01*
X140522896Y-52061623D02*
X140522896Y-50811623D01*
X140522896Y-50811623D02*
X140106230Y-50811623D01*
X140106230Y-50811623D02*
X139987182Y-50871147D01*
X139987182Y-50871147D02*
X139927658Y-50930671D01*
X139927658Y-50930671D02*
X139868135Y-51049719D01*
X139868135Y-51049719D02*
X139868135Y-51168766D01*
X139868135Y-51168766D02*
X139927658Y-51287814D01*
X139927658Y-51287814D02*
X139987182Y-51347338D01*
X139987182Y-51347338D02*
X140106230Y-51406861D01*
X140106230Y-51406861D02*
X140522896Y-51406861D01*
X139272896Y-51585433D02*
X138320516Y-51585433D01*
X138796706Y-52061623D02*
X138796706Y-51109242D01*
X122802420Y-51653680D02*
X122207182Y-51653680D01*
X122921468Y-52010823D02*
X122504801Y-50760823D01*
X122504801Y-50760823D02*
X122088135Y-52010823D01*
X121671467Y-51534633D02*
X120719087Y-51534633D01*
X121195277Y-52010823D02*
X121195277Y-51058442D01*
X101936779Y-101990638D02*
X102032017Y-101943019D01*
X102032017Y-101943019D02*
X102174874Y-101943019D01*
X102174874Y-101943019D02*
X102317731Y-101990638D01*
X102317731Y-101990638D02*
X102412969Y-102085876D01*
X102412969Y-102085876D02*
X102460588Y-102181114D01*
X102460588Y-102181114D02*
X102508207Y-102371590D01*
X102508207Y-102371590D02*
X102508207Y-102514447D01*
X102508207Y-102514447D02*
X102460588Y-102704923D01*
X102460588Y-102704923D02*
X102412969Y-102800161D01*
X102412969Y-102800161D02*
X102317731Y-102895400D01*
X102317731Y-102895400D02*
X102174874Y-102943019D01*
X102174874Y-102943019D02*
X102079636Y-102943019D01*
X102079636Y-102943019D02*
X101936779Y-102895400D01*
X101936779Y-102895400D02*
X101889160Y-102847780D01*
X101889160Y-102847780D02*
X101889160Y-102514447D01*
X101889160Y-102514447D02*
X102079636Y-102514447D01*
X136601030Y-51406861D02*
X136422458Y-51466385D01*
X136422458Y-51466385D02*
X136362935Y-51525909D01*
X136362935Y-51525909D02*
X136303411Y-51644957D01*
X136303411Y-51644957D02*
X136303411Y-51823528D01*
X136303411Y-51823528D02*
X136362935Y-51942576D01*
X136362935Y-51942576D02*
X136422458Y-52002100D01*
X136422458Y-52002100D02*
X136541506Y-52061623D01*
X136541506Y-52061623D02*
X137017696Y-52061623D01*
X137017696Y-52061623D02*
X137017696Y-50811623D01*
X137017696Y-50811623D02*
X136601030Y-50811623D01*
X136601030Y-50811623D02*
X136481982Y-50871147D01*
X136481982Y-50871147D02*
X136422458Y-50930671D01*
X136422458Y-50930671D02*
X136362935Y-51049719D01*
X136362935Y-51049719D02*
X136362935Y-51168766D01*
X136362935Y-51168766D02*
X136422458Y-51287814D01*
X136422458Y-51287814D02*
X136481982Y-51347338D01*
X136481982Y-51347338D02*
X136601030Y-51406861D01*
X136601030Y-51406861D02*
X137017696Y-51406861D01*
X135767696Y-51585433D02*
X134815316Y-51585433D01*
X175482011Y-120483819D02*
X176053439Y-120483819D01*
X175767725Y-120483819D02*
X175767725Y-119483819D01*
X175767725Y-119483819D02*
X175862963Y-119626676D01*
X175862963Y-119626676D02*
X175958201Y-119721914D01*
X175958201Y-119721914D02*
X176053439Y-119769533D01*
X174339154Y-119436200D02*
X175196296Y-120721914D01*
X173482011Y-120483819D02*
X174053439Y-120483819D01*
X173767725Y-120483819D02*
X173767725Y-119483819D01*
X173767725Y-119483819D02*
X173862963Y-119626676D01*
X173862963Y-119626676D02*
X173958201Y-119721914D01*
X173958201Y-119721914D02*
X174053439Y-119769533D01*
X172624868Y-119483819D02*
X172815344Y-119483819D01*
X172815344Y-119483819D02*
X172910582Y-119531438D01*
X172910582Y-119531438D02*
X172958201Y-119579057D01*
X172958201Y-119579057D02*
X173053439Y-119721914D01*
X173053439Y-119721914D02*
X173101058Y-119912390D01*
X173101058Y-119912390D02*
X173101058Y-120293342D01*
X173101058Y-120293342D02*
X173053439Y-120388580D01*
X173053439Y-120388580D02*
X173005820Y-120436200D01*
X173005820Y-120436200D02*
X172910582Y-120483819D01*
X172910582Y-120483819D02*
X172720106Y-120483819D01*
X172720106Y-120483819D02*
X172624868Y-120436200D01*
X172624868Y-120436200D02*
X172577249Y-120388580D01*
X172577249Y-120388580D02*
X172529630Y-120293342D01*
X172529630Y-120293342D02*
X172529630Y-120055247D01*
X172529630Y-120055247D02*
X172577249Y-119960009D01*
X172577249Y-119960009D02*
X172624868Y-119912390D01*
X172624868Y-119912390D02*
X172720106Y-119864771D01*
X172720106Y-119864771D02*
X172910582Y-119864771D01*
X172910582Y-119864771D02*
X173005820Y-119912390D01*
X173005820Y-119912390D02*
X173053439Y-119960009D01*
X173053439Y-119960009D02*
X173101058Y-120055247D01*
X171386772Y-120436200D02*
X171291534Y-120483819D01*
X171291534Y-120483819D02*
X171101058Y-120483819D01*
X171101058Y-120483819D02*
X171005820Y-120436200D01*
X171005820Y-120436200D02*
X170958201Y-120340961D01*
X170958201Y-120340961D02*
X170958201Y-120293342D01*
X170958201Y-120293342D02*
X171005820Y-120198104D01*
X171005820Y-120198104D02*
X171101058Y-120150485D01*
X171101058Y-120150485D02*
X171243915Y-120150485D01*
X171243915Y-120150485D02*
X171339153Y-120102866D01*
X171339153Y-120102866D02*
X171386772Y-120007628D01*
X171386772Y-120007628D02*
X171386772Y-119960009D01*
X171386772Y-119960009D02*
X171339153Y-119864771D01*
X171339153Y-119864771D02*
X171243915Y-119817152D01*
X171243915Y-119817152D02*
X171101058Y-119817152D01*
X171101058Y-119817152D02*
X171005820Y-119864771D01*
X170672486Y-119817152D02*
X170291534Y-119817152D01*
X170529629Y-119483819D02*
X170529629Y-120340961D01*
X170529629Y-120340961D02*
X170482010Y-120436200D01*
X170482010Y-120436200D02*
X170386772Y-120483819D01*
X170386772Y-120483819D02*
X170291534Y-120483819D01*
X169577248Y-120436200D02*
X169672486Y-120483819D01*
X169672486Y-120483819D02*
X169862962Y-120483819D01*
X169862962Y-120483819D02*
X169958200Y-120436200D01*
X169958200Y-120436200D02*
X170005819Y-120340961D01*
X170005819Y-120340961D02*
X170005819Y-119960009D01*
X170005819Y-119960009D02*
X169958200Y-119864771D01*
X169958200Y-119864771D02*
X169862962Y-119817152D01*
X169862962Y-119817152D02*
X169672486Y-119817152D01*
X169672486Y-119817152D02*
X169577248Y-119864771D01*
X169577248Y-119864771D02*
X169529629Y-119960009D01*
X169529629Y-119960009D02*
X169529629Y-120055247D01*
X169529629Y-120055247D02*
X170005819Y-120150485D01*
X169101057Y-119817152D02*
X169101057Y-120817152D01*
X169101057Y-119864771D02*
X169005819Y-119817152D01*
X169005819Y-119817152D02*
X168815343Y-119817152D01*
X168815343Y-119817152D02*
X168720105Y-119864771D01*
X168720105Y-119864771D02*
X168672486Y-119912390D01*
X168672486Y-119912390D02*
X168624867Y-120007628D01*
X168624867Y-120007628D02*
X168624867Y-120293342D01*
X168624867Y-120293342D02*
X168672486Y-120388580D01*
X168672486Y-120388580D02*
X168720105Y-120436200D01*
X168720105Y-120436200D02*
X168815343Y-120483819D01*
X168815343Y-120483819D02*
X169005819Y-120483819D01*
X169005819Y-120483819D02*
X169101057Y-120436200D01*
X197919811Y-110410619D02*
X198491239Y-110410619D01*
X198205525Y-110410619D02*
X198205525Y-109410619D01*
X198205525Y-109410619D02*
X198300763Y-109553476D01*
X198300763Y-109553476D02*
X198396001Y-109648714D01*
X198396001Y-109648714D02*
X198491239Y-109696333D01*
X197538858Y-109505857D02*
X197491239Y-109458238D01*
X197491239Y-109458238D02*
X197396001Y-109410619D01*
X197396001Y-109410619D02*
X197157906Y-109410619D01*
X197157906Y-109410619D02*
X197062668Y-109458238D01*
X197062668Y-109458238D02*
X197015049Y-109505857D01*
X197015049Y-109505857D02*
X196967430Y-109601095D01*
X196967430Y-109601095D02*
X196967430Y-109696333D01*
X196967430Y-109696333D02*
X197015049Y-109839190D01*
X197015049Y-109839190D02*
X197586477Y-110410619D01*
X197586477Y-110410619D02*
X196967430Y-110410619D01*
X196681715Y-109410619D02*
X196348382Y-110410619D01*
X196348382Y-110410619D02*
X196015049Y-109410619D01*
D11*
X178923964Y-118199276D02*
X178983488Y-118258800D01*
X178983488Y-118258800D02*
X179162059Y-118318323D01*
X179162059Y-118318323D02*
X179281107Y-118318323D01*
X179281107Y-118318323D02*
X179459678Y-118258800D01*
X179459678Y-118258800D02*
X179578726Y-118139752D01*
X179578726Y-118139752D02*
X179638249Y-118020704D01*
X179638249Y-118020704D02*
X179697773Y-117782609D01*
X179697773Y-117782609D02*
X179697773Y-117604038D01*
X179697773Y-117604038D02*
X179638249Y-117365942D01*
X179638249Y-117365942D02*
X179578726Y-117246895D01*
X179578726Y-117246895D02*
X179459678Y-117127847D01*
X179459678Y-117127847D02*
X179281107Y-117068323D01*
X179281107Y-117068323D02*
X179162059Y-117068323D01*
X179162059Y-117068323D02*
X178983488Y-117127847D01*
X178983488Y-117127847D02*
X178923964Y-117187371D01*
D10*
X116662200Y-130466858D02*
X116614580Y-130359716D01*
X116614580Y-130359716D02*
X116614580Y-130181144D01*
X116614580Y-130181144D02*
X116662200Y-130109716D01*
X116662200Y-130109716D02*
X116709819Y-130074001D01*
X116709819Y-130074001D02*
X116805057Y-130038287D01*
X116805057Y-130038287D02*
X116900295Y-130038287D01*
X116900295Y-130038287D02*
X116995533Y-130074001D01*
X116995533Y-130074001D02*
X117043152Y-130109716D01*
X117043152Y-130109716D02*
X117090771Y-130181144D01*
X117090771Y-130181144D02*
X117138390Y-130324001D01*
X117138390Y-130324001D02*
X117186009Y-130395430D01*
X117186009Y-130395430D02*
X117233628Y-130431144D01*
X117233628Y-130431144D02*
X117328866Y-130466858D01*
X117328866Y-130466858D02*
X117424104Y-130466858D01*
X117424104Y-130466858D02*
X117519342Y-130431144D01*
X117519342Y-130431144D02*
X117566961Y-130395430D01*
X117566961Y-130395430D02*
X117614580Y-130324001D01*
X117614580Y-130324001D02*
X117614580Y-130145430D01*
X117614580Y-130145430D02*
X117566961Y-130038287D01*
X116709819Y-129288287D02*
X116662200Y-129324001D01*
X116662200Y-129324001D02*
X116614580Y-129431144D01*
X116614580Y-129431144D02*
X116614580Y-129502572D01*
X116614580Y-129502572D02*
X116662200Y-129609715D01*
X116662200Y-129609715D02*
X116757438Y-129681144D01*
X116757438Y-129681144D02*
X116852676Y-129716858D01*
X116852676Y-129716858D02*
X117043152Y-129752572D01*
X117043152Y-129752572D02*
X117186009Y-129752572D01*
X117186009Y-129752572D02*
X117376485Y-129716858D01*
X117376485Y-129716858D02*
X117471723Y-129681144D01*
X117471723Y-129681144D02*
X117566961Y-129609715D01*
X117566961Y-129609715D02*
X117614580Y-129502572D01*
X117614580Y-129502572D02*
X117614580Y-129431144D01*
X117614580Y-129431144D02*
X117566961Y-129324001D01*
X117566961Y-129324001D02*
X117519342Y-129288287D01*
X116614580Y-128966858D02*
X117614580Y-128966858D01*
X116614580Y-128538287D02*
X117186009Y-128859715D01*
X117614580Y-128538287D02*
X117043152Y-128966858D01*
D11*
X184054764Y-111493676D02*
X184114288Y-111553200D01*
X184114288Y-111553200D02*
X184292859Y-111612723D01*
X184292859Y-111612723D02*
X184411907Y-111612723D01*
X184411907Y-111612723D02*
X184590478Y-111553200D01*
X184590478Y-111553200D02*
X184709526Y-111434152D01*
X184709526Y-111434152D02*
X184769049Y-111315104D01*
X184769049Y-111315104D02*
X184828573Y-111077009D01*
X184828573Y-111077009D02*
X184828573Y-110898438D01*
X184828573Y-110898438D02*
X184769049Y-110660342D01*
X184769049Y-110660342D02*
X184709526Y-110541295D01*
X184709526Y-110541295D02*
X184590478Y-110422247D01*
X184590478Y-110422247D02*
X184411907Y-110362723D01*
X184411907Y-110362723D02*
X184292859Y-110362723D01*
X184292859Y-110362723D02*
X184114288Y-110422247D01*
X184114288Y-110422247D02*
X184054764Y-110481771D01*
D12*
X176379326Y-104846300D02*
X176200755Y-104905823D01*
X176200755Y-104905823D02*
X175903136Y-104905823D01*
X175903136Y-104905823D02*
X175784088Y-104846300D01*
X175784088Y-104846300D02*
X175724564Y-104786776D01*
X175724564Y-104786776D02*
X175665041Y-104667728D01*
X175665041Y-104667728D02*
X175665041Y-104548680D01*
X175665041Y-104548680D02*
X175724564Y-104429633D01*
X175724564Y-104429633D02*
X175784088Y-104370109D01*
X175784088Y-104370109D02*
X175903136Y-104310585D01*
X175903136Y-104310585D02*
X176141231Y-104251061D01*
X176141231Y-104251061D02*
X176260279Y-104191538D01*
X176260279Y-104191538D02*
X176319802Y-104132014D01*
X176319802Y-104132014D02*
X176379326Y-104012966D01*
X176379326Y-104012966D02*
X176379326Y-103893919D01*
X176379326Y-103893919D02*
X176319802Y-103774871D01*
X176319802Y-103774871D02*
X176260279Y-103715347D01*
X176260279Y-103715347D02*
X176141231Y-103655823D01*
X176141231Y-103655823D02*
X175843612Y-103655823D01*
X175843612Y-103655823D02*
X175665041Y-103715347D01*
X175307898Y-104072490D02*
X174831707Y-104072490D01*
X175129326Y-103655823D02*
X175129326Y-104727252D01*
X175129326Y-104727252D02*
X175069803Y-104846300D01*
X175069803Y-104846300D02*
X174950755Y-104905823D01*
X174950755Y-104905823D02*
X174831707Y-104905823D01*
X173938850Y-104846300D02*
X174057898Y-104905823D01*
X174057898Y-104905823D02*
X174295993Y-104905823D01*
X174295993Y-104905823D02*
X174415040Y-104846300D01*
X174415040Y-104846300D02*
X174474564Y-104727252D01*
X174474564Y-104727252D02*
X174474564Y-104251061D01*
X174474564Y-104251061D02*
X174415040Y-104132014D01*
X174415040Y-104132014D02*
X174295993Y-104072490D01*
X174295993Y-104072490D02*
X174057898Y-104072490D01*
X174057898Y-104072490D02*
X173938850Y-104132014D01*
X173938850Y-104132014D02*
X173879326Y-104251061D01*
X173879326Y-104251061D02*
X173879326Y-104370109D01*
X173879326Y-104370109D02*
X174474564Y-104489157D01*
X173343611Y-104072490D02*
X173343611Y-105322490D01*
X173343611Y-104132014D02*
X173224564Y-104072490D01*
X173224564Y-104072490D02*
X172986469Y-104072490D01*
X172986469Y-104072490D02*
X172867421Y-104132014D01*
X172867421Y-104132014D02*
X172807897Y-104191538D01*
X172807897Y-104191538D02*
X172748373Y-104310585D01*
X172748373Y-104310585D02*
X172748373Y-104667728D01*
X172748373Y-104667728D02*
X172807897Y-104786776D01*
X172807897Y-104786776D02*
X172867421Y-104846300D01*
X172867421Y-104846300D02*
X172986469Y-104905823D01*
X172986469Y-104905823D02*
X173224564Y-104905823D01*
X173224564Y-104905823D02*
X173343611Y-104846300D01*
X171260278Y-104905823D02*
X171260278Y-103655823D01*
X171260278Y-103655823D02*
X170843612Y-104548680D01*
X170843612Y-104548680D02*
X170426945Y-103655823D01*
X170426945Y-103655823D02*
X170426945Y-104905823D01*
X169653136Y-104905823D02*
X169772184Y-104846300D01*
X169772184Y-104846300D02*
X169831707Y-104786776D01*
X169831707Y-104786776D02*
X169891231Y-104667728D01*
X169891231Y-104667728D02*
X169891231Y-104310585D01*
X169891231Y-104310585D02*
X169831707Y-104191538D01*
X169831707Y-104191538D02*
X169772184Y-104132014D01*
X169772184Y-104132014D02*
X169653136Y-104072490D01*
X169653136Y-104072490D02*
X169474565Y-104072490D01*
X169474565Y-104072490D02*
X169355517Y-104132014D01*
X169355517Y-104132014D02*
X169295993Y-104191538D01*
X169295993Y-104191538D02*
X169236469Y-104310585D01*
X169236469Y-104310585D02*
X169236469Y-104667728D01*
X169236469Y-104667728D02*
X169295993Y-104786776D01*
X169295993Y-104786776D02*
X169355517Y-104846300D01*
X169355517Y-104846300D02*
X169474565Y-104905823D01*
X169474565Y-104905823D02*
X169653136Y-104905823D01*
X168165041Y-104905823D02*
X168165041Y-103655823D01*
X168165041Y-104846300D02*
X168284089Y-104905823D01*
X168284089Y-104905823D02*
X168522184Y-104905823D01*
X168522184Y-104905823D02*
X168641232Y-104846300D01*
X168641232Y-104846300D02*
X168700755Y-104786776D01*
X168700755Y-104786776D02*
X168760279Y-104667728D01*
X168760279Y-104667728D02*
X168760279Y-104310585D01*
X168760279Y-104310585D02*
X168700755Y-104191538D01*
X168700755Y-104191538D02*
X168641232Y-104132014D01*
X168641232Y-104132014D02*
X168522184Y-104072490D01*
X168522184Y-104072490D02*
X168284089Y-104072490D01*
X168284089Y-104072490D02*
X168165041Y-104132014D01*
X167093613Y-104846300D02*
X167212661Y-104905823D01*
X167212661Y-104905823D02*
X167450756Y-104905823D01*
X167450756Y-104905823D02*
X167569803Y-104846300D01*
X167569803Y-104846300D02*
X167629327Y-104727252D01*
X167629327Y-104727252D02*
X167629327Y-104251061D01*
X167629327Y-104251061D02*
X167569803Y-104132014D01*
X167569803Y-104132014D02*
X167450756Y-104072490D01*
X167450756Y-104072490D02*
X167212661Y-104072490D01*
X167212661Y-104072490D02*
X167093613Y-104132014D01*
X167093613Y-104132014D02*
X167034089Y-104251061D01*
X167034089Y-104251061D02*
X167034089Y-104370109D01*
X167034089Y-104370109D02*
X167629327Y-104489157D01*
D10*
X102460588Y-100355400D02*
X102317731Y-100403019D01*
X102317731Y-100403019D02*
X102079636Y-100403019D01*
X102079636Y-100403019D02*
X101984398Y-100355400D01*
X101984398Y-100355400D02*
X101936779Y-100307780D01*
X101936779Y-100307780D02*
X101889160Y-100212542D01*
X101889160Y-100212542D02*
X101889160Y-100117304D01*
X101889160Y-100117304D02*
X101936779Y-100022066D01*
X101936779Y-100022066D02*
X101984398Y-99974447D01*
X101984398Y-99974447D02*
X102079636Y-99926828D01*
X102079636Y-99926828D02*
X102270112Y-99879209D01*
X102270112Y-99879209D02*
X102365350Y-99831590D01*
X102365350Y-99831590D02*
X102412969Y-99783971D01*
X102412969Y-99783971D02*
X102460588Y-99688733D01*
X102460588Y-99688733D02*
X102460588Y-99593495D01*
X102460588Y-99593495D02*
X102412969Y-99498257D01*
X102412969Y-99498257D02*
X102365350Y-99450638D01*
X102365350Y-99450638D02*
X102270112Y-99403019D01*
X102270112Y-99403019D02*
X102032017Y-99403019D01*
X102032017Y-99403019D02*
X101889160Y-99450638D01*
D11*
X178923964Y-115964076D02*
X178983488Y-116023600D01*
X178983488Y-116023600D02*
X179162059Y-116083123D01*
X179162059Y-116083123D02*
X179281107Y-116083123D01*
X179281107Y-116083123D02*
X179459678Y-116023600D01*
X179459678Y-116023600D02*
X179578726Y-115904552D01*
X179578726Y-115904552D02*
X179638249Y-115785504D01*
X179638249Y-115785504D02*
X179697773Y-115547409D01*
X179697773Y-115547409D02*
X179697773Y-115368838D01*
X179697773Y-115368838D02*
X179638249Y-115130742D01*
X179638249Y-115130742D02*
X179578726Y-115011695D01*
X179578726Y-115011695D02*
X179459678Y-114892647D01*
X179459678Y-114892647D02*
X179281107Y-114833123D01*
X179281107Y-114833123D02*
X179162059Y-114833123D01*
X179162059Y-114833123D02*
X178983488Y-114892647D01*
X178983488Y-114892647D02*
X178923964Y-114952171D01*
D10*
X188283620Y-51653680D02*
X187688382Y-51653680D01*
X188402668Y-52010823D02*
X187986001Y-50760823D01*
X187986001Y-50760823D02*
X187569335Y-52010823D01*
X187152667Y-51534633D02*
X186200287Y-51534633D01*
X186676477Y-52010823D02*
X186676477Y-51058442D01*
X111861430Y-51406861D02*
X111682858Y-51466385D01*
X111682858Y-51466385D02*
X111623335Y-51525909D01*
X111623335Y-51525909D02*
X111563811Y-51644957D01*
X111563811Y-51644957D02*
X111563811Y-51823528D01*
X111563811Y-51823528D02*
X111623335Y-51942576D01*
X111623335Y-51942576D02*
X111682858Y-52002100D01*
X111682858Y-52002100D02*
X111801906Y-52061623D01*
X111801906Y-52061623D02*
X112278096Y-52061623D01*
X112278096Y-52061623D02*
X112278096Y-50811623D01*
X112278096Y-50811623D02*
X111861430Y-50811623D01*
X111861430Y-50811623D02*
X111742382Y-50871147D01*
X111742382Y-50871147D02*
X111682858Y-50930671D01*
X111682858Y-50930671D02*
X111623335Y-51049719D01*
X111623335Y-51049719D02*
X111623335Y-51168766D01*
X111623335Y-51168766D02*
X111682858Y-51287814D01*
X111682858Y-51287814D02*
X111742382Y-51347338D01*
X111742382Y-51347338D02*
X111861430Y-51406861D01*
X111861430Y-51406861D02*
X112278096Y-51406861D01*
X111028096Y-51585433D02*
X110075716Y-51585433D01*
D11*
X179646973Y-109020380D02*
X179051735Y-109020380D01*
X179766021Y-109377523D02*
X179349354Y-108127523D01*
X179349354Y-108127523D02*
X178932688Y-109377523D01*
D10*
X175774087Y-108733209D02*
X176107420Y-108733209D01*
X176107420Y-109257019D02*
X176107420Y-108257019D01*
X176107420Y-108257019D02*
X175631230Y-108257019D01*
X175297896Y-109209400D02*
X175155039Y-109257019D01*
X175155039Y-109257019D02*
X174916944Y-109257019D01*
X174916944Y-109257019D02*
X174821706Y-109209400D01*
X174821706Y-109209400D02*
X174774087Y-109161780D01*
X174774087Y-109161780D02*
X174726468Y-109066542D01*
X174726468Y-109066542D02*
X174726468Y-108971304D01*
X174726468Y-108971304D02*
X174774087Y-108876066D01*
X174774087Y-108876066D02*
X174821706Y-108828447D01*
X174821706Y-108828447D02*
X174916944Y-108780828D01*
X174916944Y-108780828D02*
X175107420Y-108733209D01*
X175107420Y-108733209D02*
X175202658Y-108685590D01*
X175202658Y-108685590D02*
X175250277Y-108637971D01*
X175250277Y-108637971D02*
X175297896Y-108542733D01*
X175297896Y-108542733D02*
X175297896Y-108447495D01*
X175297896Y-108447495D02*
X175250277Y-108352257D01*
X175250277Y-108352257D02*
X175202658Y-108304638D01*
X175202658Y-108304638D02*
X175107420Y-108257019D01*
X175107420Y-108257019D02*
X174869325Y-108257019D01*
X174869325Y-108257019D02*
X174726468Y-108304638D01*
X173631229Y-108257019D02*
X172964563Y-108257019D01*
X172964563Y-108257019D02*
X173393134Y-109257019D01*
X172059801Y-109257019D02*
X172631229Y-109257019D01*
X172345515Y-109257019D02*
X172345515Y-108257019D01*
X172345515Y-108257019D02*
X172440753Y-108399876D01*
X172440753Y-108399876D02*
X172535991Y-108495114D01*
X172535991Y-108495114D02*
X172631229Y-108542733D01*
X171678848Y-109257019D02*
X170916944Y-108257019D01*
X171535991Y-108257019D02*
X171440753Y-108304638D01*
X171440753Y-108304638D02*
X171393134Y-108399876D01*
X171393134Y-108399876D02*
X171440753Y-108495114D01*
X171440753Y-108495114D02*
X171535991Y-108542733D01*
X171535991Y-108542733D02*
X171631229Y-108495114D01*
X171631229Y-108495114D02*
X171678848Y-108399876D01*
X171678848Y-108399876D02*
X171631229Y-108304638D01*
X171631229Y-108304638D02*
X171535991Y-108257019D01*
X170964563Y-109209400D02*
X170916944Y-109114161D01*
X170916944Y-109114161D02*
X170964563Y-109018923D01*
X170964563Y-109018923D02*
X171059801Y-108971304D01*
X171059801Y-108971304D02*
X171155039Y-109018923D01*
X171155039Y-109018923D02*
X171202658Y-109114161D01*
X171202658Y-109114161D02*
X171155039Y-109209400D01*
X171155039Y-109209400D02*
X171059801Y-109257019D01*
X171059801Y-109257019D02*
X170964563Y-109209400D01*
X175482011Y-122719019D02*
X176053439Y-122719019D01*
X175767725Y-122719019D02*
X175767725Y-121719019D01*
X175767725Y-121719019D02*
X175862963Y-121861876D01*
X175862963Y-121861876D02*
X175958201Y-121957114D01*
X175958201Y-121957114D02*
X176053439Y-122004733D01*
X174339154Y-121671400D02*
X175196296Y-122957114D01*
X174101058Y-121719019D02*
X173482011Y-121719019D01*
X173482011Y-121719019D02*
X173815344Y-122099971D01*
X173815344Y-122099971D02*
X173672487Y-122099971D01*
X173672487Y-122099971D02*
X173577249Y-122147590D01*
X173577249Y-122147590D02*
X173529630Y-122195209D01*
X173529630Y-122195209D02*
X173482011Y-122290447D01*
X173482011Y-122290447D02*
X173482011Y-122528542D01*
X173482011Y-122528542D02*
X173529630Y-122623780D01*
X173529630Y-122623780D02*
X173577249Y-122671400D01*
X173577249Y-122671400D02*
X173672487Y-122719019D01*
X173672487Y-122719019D02*
X173958201Y-122719019D01*
X173958201Y-122719019D02*
X174053439Y-122671400D01*
X174053439Y-122671400D02*
X174101058Y-122623780D01*
X173101058Y-121814257D02*
X173053439Y-121766638D01*
X173053439Y-121766638D02*
X172958201Y-121719019D01*
X172958201Y-121719019D02*
X172720106Y-121719019D01*
X172720106Y-121719019D02*
X172624868Y-121766638D01*
X172624868Y-121766638D02*
X172577249Y-121814257D01*
X172577249Y-121814257D02*
X172529630Y-121909495D01*
X172529630Y-121909495D02*
X172529630Y-122004733D01*
X172529630Y-122004733D02*
X172577249Y-122147590D01*
X172577249Y-122147590D02*
X173148677Y-122719019D01*
X173148677Y-122719019D02*
X172529630Y-122719019D01*
X171386772Y-122671400D02*
X171291534Y-122719019D01*
X171291534Y-122719019D02*
X171101058Y-122719019D01*
X171101058Y-122719019D02*
X171005820Y-122671400D01*
X171005820Y-122671400D02*
X170958201Y-122576161D01*
X170958201Y-122576161D02*
X170958201Y-122528542D01*
X170958201Y-122528542D02*
X171005820Y-122433304D01*
X171005820Y-122433304D02*
X171101058Y-122385685D01*
X171101058Y-122385685D02*
X171243915Y-122385685D01*
X171243915Y-122385685D02*
X171339153Y-122338066D01*
X171339153Y-122338066D02*
X171386772Y-122242828D01*
X171386772Y-122242828D02*
X171386772Y-122195209D01*
X171386772Y-122195209D02*
X171339153Y-122099971D01*
X171339153Y-122099971D02*
X171243915Y-122052352D01*
X171243915Y-122052352D02*
X171101058Y-122052352D01*
X171101058Y-122052352D02*
X171005820Y-122099971D01*
X170672486Y-122052352D02*
X170291534Y-122052352D01*
X170529629Y-121719019D02*
X170529629Y-122576161D01*
X170529629Y-122576161D02*
X170482010Y-122671400D01*
X170482010Y-122671400D02*
X170386772Y-122719019D01*
X170386772Y-122719019D02*
X170291534Y-122719019D01*
X169577248Y-122671400D02*
X169672486Y-122719019D01*
X169672486Y-122719019D02*
X169862962Y-122719019D01*
X169862962Y-122719019D02*
X169958200Y-122671400D01*
X169958200Y-122671400D02*
X170005819Y-122576161D01*
X170005819Y-122576161D02*
X170005819Y-122195209D01*
X170005819Y-122195209D02*
X169958200Y-122099971D01*
X169958200Y-122099971D02*
X169862962Y-122052352D01*
X169862962Y-122052352D02*
X169672486Y-122052352D01*
X169672486Y-122052352D02*
X169577248Y-122099971D01*
X169577248Y-122099971D02*
X169529629Y-122195209D01*
X169529629Y-122195209D02*
X169529629Y-122290447D01*
X169529629Y-122290447D02*
X170005819Y-122385685D01*
X169101057Y-122052352D02*
X169101057Y-123052352D01*
X169101057Y-122099971D02*
X169005819Y-122052352D01*
X169005819Y-122052352D02*
X168815343Y-122052352D01*
X168815343Y-122052352D02*
X168720105Y-122099971D01*
X168720105Y-122099971D02*
X168672486Y-122147590D01*
X168672486Y-122147590D02*
X168624867Y-122242828D01*
X168624867Y-122242828D02*
X168624867Y-122528542D01*
X168624867Y-122528542D02*
X168672486Y-122623780D01*
X168672486Y-122623780D02*
X168720105Y-122671400D01*
X168720105Y-122671400D02*
X168815343Y-122719019D01*
X168815343Y-122719019D02*
X169005819Y-122719019D01*
X169005819Y-122719019D02*
X169101057Y-122671400D01*
X119154580Y-130470039D02*
X120154580Y-130470039D01*
X120154580Y-130470039D02*
X119440295Y-130203373D01*
X119440295Y-130203373D02*
X120154580Y-129936706D01*
X120154580Y-129936706D02*
X119154580Y-129936706D01*
X119154580Y-129555753D02*
X120154580Y-129555753D01*
X119202200Y-129212897D02*
X119154580Y-129098611D01*
X119154580Y-129098611D02*
X119154580Y-128908135D01*
X119154580Y-128908135D02*
X119202200Y-128831944D01*
X119202200Y-128831944D02*
X119249819Y-128793849D01*
X119249819Y-128793849D02*
X119345057Y-128755754D01*
X119345057Y-128755754D02*
X119440295Y-128755754D01*
X119440295Y-128755754D02*
X119535533Y-128793849D01*
X119535533Y-128793849D02*
X119583152Y-128831944D01*
X119583152Y-128831944D02*
X119630771Y-128908135D01*
X119630771Y-128908135D02*
X119678390Y-129060516D01*
X119678390Y-129060516D02*
X119726009Y-129136706D01*
X119726009Y-129136706D02*
X119773628Y-129174801D01*
X119773628Y-129174801D02*
X119868866Y-129212897D01*
X119868866Y-129212897D02*
X119964104Y-129212897D01*
X119964104Y-129212897D02*
X120059342Y-129174801D01*
X120059342Y-129174801D02*
X120106961Y-129136706D01*
X120106961Y-129136706D02*
X120154580Y-129060516D01*
X120154580Y-129060516D02*
X120154580Y-128870039D01*
X120154580Y-128870039D02*
X120106961Y-128755754D01*
X120154580Y-128260515D02*
X120154580Y-128108134D01*
X120154580Y-128108134D02*
X120106961Y-128031944D01*
X120106961Y-128031944D02*
X120011723Y-127955753D01*
X120011723Y-127955753D02*
X119821247Y-127917658D01*
X119821247Y-127917658D02*
X119487914Y-127917658D01*
X119487914Y-127917658D02*
X119297438Y-127955753D01*
X119297438Y-127955753D02*
X119202200Y-128031944D01*
X119202200Y-128031944D02*
X119154580Y-128108134D01*
X119154580Y-128108134D02*
X119154580Y-128260515D01*
X119154580Y-128260515D02*
X119202200Y-128336706D01*
X119202200Y-128336706D02*
X119297438Y-128412896D01*
X119297438Y-128412896D02*
X119487914Y-128450992D01*
X119487914Y-128450992D02*
X119821247Y-128450992D01*
X119821247Y-128450992D02*
X120011723Y-128412896D01*
X120011723Y-128412896D02*
X120106961Y-128336706D01*
X120106961Y-128336706D02*
X120154580Y-128260515D01*
D12*
X185362202Y-104905823D02*
X185362202Y-103655823D01*
X185362202Y-103655823D02*
X184945536Y-104548680D01*
X184945536Y-104548680D02*
X184528869Y-103655823D01*
X184528869Y-103655823D02*
X184528869Y-104905823D01*
X183695536Y-103655823D02*
X183576489Y-103655823D01*
X183576489Y-103655823D02*
X183457441Y-103715347D01*
X183457441Y-103715347D02*
X183397917Y-103774871D01*
X183397917Y-103774871D02*
X183338393Y-103893919D01*
X183338393Y-103893919D02*
X183278870Y-104132014D01*
X183278870Y-104132014D02*
X183278870Y-104429633D01*
X183278870Y-104429633D02*
X183338393Y-104667728D01*
X183338393Y-104667728D02*
X183397917Y-104786776D01*
X183397917Y-104786776D02*
X183457441Y-104846300D01*
X183457441Y-104846300D02*
X183576489Y-104905823D01*
X183576489Y-104905823D02*
X183695536Y-104905823D01*
X183695536Y-104905823D02*
X183814584Y-104846300D01*
X183814584Y-104846300D02*
X183874108Y-104786776D01*
X183874108Y-104786776D02*
X183933631Y-104667728D01*
X183933631Y-104667728D02*
X183993155Y-104429633D01*
X183993155Y-104429633D02*
X183993155Y-104132014D01*
X183993155Y-104132014D02*
X183933631Y-103893919D01*
X183933631Y-103893919D02*
X183874108Y-103774871D01*
X183874108Y-103774871D02*
X183814584Y-103715347D01*
X183814584Y-103715347D02*
X183695536Y-103655823D01*
D10*
X175529761Y-139753811D02*
X175577380Y-139849049D01*
X175577380Y-139849049D02*
X175577380Y-139991906D01*
X175577380Y-139991906D02*
X175529761Y-140134763D01*
X175529761Y-140134763D02*
X175434523Y-140230001D01*
X175434523Y-140230001D02*
X175339285Y-140277620D01*
X175339285Y-140277620D02*
X175148809Y-140325239D01*
X175148809Y-140325239D02*
X175005952Y-140325239D01*
X175005952Y-140325239D02*
X174815476Y-140277620D01*
X174815476Y-140277620D02*
X174720238Y-140230001D01*
X174720238Y-140230001D02*
X174625000Y-140134763D01*
X174625000Y-140134763D02*
X174577380Y-139991906D01*
X174577380Y-139991906D02*
X174577380Y-139896668D01*
X174577380Y-139896668D02*
X174625000Y-139753811D01*
X174625000Y-139753811D02*
X174672619Y-139706192D01*
X174672619Y-139706192D02*
X175005952Y-139706192D01*
X175005952Y-139706192D02*
X175005952Y-139896668D01*
X174577380Y-139277620D02*
X175577380Y-139277620D01*
X175577380Y-139277620D02*
X174577380Y-138706192D01*
X174577380Y-138706192D02*
X175577380Y-138706192D01*
X174577380Y-138230001D02*
X175577380Y-138230001D01*
X175577380Y-138230001D02*
X175577380Y-137991906D01*
X175577380Y-137991906D02*
X175529761Y-137849049D01*
X175529761Y-137849049D02*
X175434523Y-137753811D01*
X175434523Y-137753811D02*
X175339285Y-137706192D01*
X175339285Y-137706192D02*
X175148809Y-137658573D01*
X175148809Y-137658573D02*
X175005952Y-137658573D01*
X175005952Y-137658573D02*
X174815476Y-137706192D01*
X174815476Y-137706192D02*
X174720238Y-137753811D01*
X174720238Y-137753811D02*
X174625000Y-137849049D01*
X174625000Y-137849049D02*
X174577380Y-137991906D01*
X174577380Y-137991906D02*
X174577380Y-138230001D01*
X147932611Y-139430238D02*
X148027849Y-139382619D01*
X148027849Y-139382619D02*
X148170706Y-139382619D01*
X148170706Y-139382619D02*
X148313563Y-139430238D01*
X148313563Y-139430238D02*
X148408801Y-139525476D01*
X148408801Y-139525476D02*
X148456420Y-139620714D01*
X148456420Y-139620714D02*
X148504039Y-139811190D01*
X148504039Y-139811190D02*
X148504039Y-139954047D01*
X148504039Y-139954047D02*
X148456420Y-140144523D01*
X148456420Y-140144523D02*
X148408801Y-140239761D01*
X148408801Y-140239761D02*
X148313563Y-140335000D01*
X148313563Y-140335000D02*
X148170706Y-140382619D01*
X148170706Y-140382619D02*
X148075468Y-140382619D01*
X148075468Y-140382619D02*
X147932611Y-140335000D01*
X147932611Y-140335000D02*
X147884992Y-140287380D01*
X147884992Y-140287380D02*
X147884992Y-139954047D01*
X147884992Y-139954047D02*
X148075468Y-139954047D01*
X147456420Y-140382619D02*
X147456420Y-139382619D01*
X147456420Y-139382619D02*
X146884992Y-140382619D01*
X146884992Y-140382619D02*
X146884992Y-139382619D01*
X146408801Y-140382619D02*
X146408801Y-139382619D01*
X146408801Y-139382619D02*
X146170706Y-139382619D01*
X146170706Y-139382619D02*
X146027849Y-139430238D01*
X146027849Y-139430238D02*
X145932611Y-139525476D01*
X145932611Y-139525476D02*
X145884992Y-139620714D01*
X145884992Y-139620714D02*
X145837373Y-139811190D01*
X145837373Y-139811190D02*
X145837373Y-139954047D01*
X145837373Y-139954047D02*
X145884992Y-140144523D01*
X145884992Y-140144523D02*
X145932611Y-140239761D01*
X145932611Y-140239761D02*
X146027849Y-140335000D01*
X146027849Y-140335000D02*
X146170706Y-140382619D01*
X146170706Y-140382619D02*
X146408801Y-140382619D01*
X144170706Y-139382619D02*
X144646896Y-139382619D01*
X144646896Y-139382619D02*
X144694515Y-139858809D01*
X144694515Y-139858809D02*
X144646896Y-139811190D01*
X144646896Y-139811190D02*
X144551658Y-139763571D01*
X144551658Y-139763571D02*
X144313563Y-139763571D01*
X144313563Y-139763571D02*
X144218325Y-139811190D01*
X144218325Y-139811190D02*
X144170706Y-139858809D01*
X144170706Y-139858809D02*
X144123087Y-139954047D01*
X144123087Y-139954047D02*
X144123087Y-140192142D01*
X144123087Y-140192142D02*
X144170706Y-140287380D01*
X144170706Y-140287380D02*
X144218325Y-140335000D01*
X144218325Y-140335000D02*
X144313563Y-140382619D01*
X144313563Y-140382619D02*
X144551658Y-140382619D01*
X144551658Y-140382619D02*
X144646896Y-140335000D01*
X144646896Y-140335000D02*
X144694515Y-140287380D01*
X143837372Y-139382619D02*
X143504039Y-140382619D01*
X143504039Y-140382619D02*
X143170706Y-139382619D01*
X197646847Y-94484649D02*
X196980180Y-94484649D01*
X198027800Y-94722744D02*
X197313514Y-94960839D01*
X197313514Y-94960839D02*
X197313514Y-94341792D01*
X197551609Y-93817982D02*
X197599228Y-93913220D01*
X197599228Y-93913220D02*
X197646847Y-93960839D01*
X197646847Y-93960839D02*
X197742085Y-94008458D01*
X197742085Y-94008458D02*
X197789704Y-94008458D01*
X197789704Y-94008458D02*
X197884942Y-93960839D01*
X197884942Y-93960839D02*
X197932561Y-93913220D01*
X197932561Y-93913220D02*
X197980180Y-93817982D01*
X197980180Y-93817982D02*
X197980180Y-93627506D01*
X197980180Y-93627506D02*
X197932561Y-93532268D01*
X197932561Y-93532268D02*
X197884942Y-93484649D01*
X197884942Y-93484649D02*
X197789704Y-93437030D01*
X197789704Y-93437030D02*
X197742085Y-93437030D01*
X197742085Y-93437030D02*
X197646847Y-93484649D01*
X197646847Y-93484649D02*
X197599228Y-93532268D01*
X197599228Y-93532268D02*
X197551609Y-93627506D01*
X197551609Y-93627506D02*
X197551609Y-93817982D01*
X197551609Y-93817982D02*
X197503990Y-93913220D01*
X197503990Y-93913220D02*
X197456371Y-93960839D01*
X197456371Y-93960839D02*
X197361133Y-94008458D01*
X197361133Y-94008458D02*
X197170657Y-94008458D01*
X197170657Y-94008458D02*
X197075419Y-93960839D01*
X197075419Y-93960839D02*
X197027800Y-93913220D01*
X197027800Y-93913220D02*
X196980180Y-93817982D01*
X196980180Y-93817982D02*
X196980180Y-93627506D01*
X196980180Y-93627506D02*
X197027800Y-93532268D01*
X197027800Y-93532268D02*
X197075419Y-93484649D01*
X197075419Y-93484649D02*
X197170657Y-93437030D01*
X197170657Y-93437030D02*
X197361133Y-93437030D01*
X197361133Y-93437030D02*
X197456371Y-93484649D01*
X197456371Y-93484649D02*
X197503990Y-93532268D01*
X197503990Y-93532268D02*
X197551609Y-93627506D01*
X197980180Y-93151315D02*
X196980180Y-92817982D01*
X196980180Y-92817982D02*
X197980180Y-92484649D01*
D11*
X179638249Y-122788723D02*
X179638249Y-121538723D01*
X179638249Y-121538723D02*
X179340630Y-121538723D01*
X179340630Y-121538723D02*
X179162059Y-121598247D01*
X179162059Y-121598247D02*
X179043011Y-121717295D01*
X179043011Y-121717295D02*
X178983488Y-121836342D01*
X178983488Y-121836342D02*
X178923964Y-122074438D01*
X178923964Y-122074438D02*
X178923964Y-122253009D01*
X178923964Y-122253009D02*
X178983488Y-122491104D01*
X178983488Y-122491104D02*
X179043011Y-122610152D01*
X179043011Y-122610152D02*
X179162059Y-122729200D01*
X179162059Y-122729200D02*
X179340630Y-122788723D01*
X179340630Y-122788723D02*
X179638249Y-122788723D01*
X179221583Y-113193161D02*
X179043011Y-113252685D01*
X179043011Y-113252685D02*
X178983488Y-113312209D01*
X178983488Y-113312209D02*
X178923964Y-113431257D01*
X178923964Y-113431257D02*
X178923964Y-113609828D01*
X178923964Y-113609828D02*
X178983488Y-113728876D01*
X178983488Y-113728876D02*
X179043011Y-113788400D01*
X179043011Y-113788400D02*
X179162059Y-113847923D01*
X179162059Y-113847923D02*
X179638249Y-113847923D01*
X179638249Y-113847923D02*
X179638249Y-112597923D01*
X179638249Y-112597923D02*
X179221583Y-112597923D01*
X179221583Y-112597923D02*
X179102535Y-112657447D01*
X179102535Y-112657447D02*
X179043011Y-112716971D01*
X179043011Y-112716971D02*
X178983488Y-112836019D01*
X178983488Y-112836019D02*
X178983488Y-112955066D01*
X178983488Y-112955066D02*
X179043011Y-113074114D01*
X179043011Y-113074114D02*
X179102535Y-113133638D01*
X179102535Y-113133638D02*
X179221583Y-113193161D01*
X179221583Y-113193161D02*
X179638249Y-113193161D01*
D10*
X115366630Y-51406861D02*
X115188058Y-51466385D01*
X115188058Y-51466385D02*
X115128535Y-51525909D01*
X115128535Y-51525909D02*
X115069011Y-51644957D01*
X115069011Y-51644957D02*
X115069011Y-51823528D01*
X115069011Y-51823528D02*
X115128535Y-51942576D01*
X115128535Y-51942576D02*
X115188058Y-52002100D01*
X115188058Y-52002100D02*
X115307106Y-52061623D01*
X115307106Y-52061623D02*
X115783296Y-52061623D01*
X115783296Y-52061623D02*
X115783296Y-50811623D01*
X115783296Y-50811623D02*
X115366630Y-50811623D01*
X115366630Y-50811623D02*
X115247582Y-50871147D01*
X115247582Y-50871147D02*
X115188058Y-50930671D01*
X115188058Y-50930671D02*
X115128535Y-51049719D01*
X115128535Y-51049719D02*
X115128535Y-51168766D01*
X115128535Y-51168766D02*
X115188058Y-51287814D01*
X115188058Y-51287814D02*
X115247582Y-51347338D01*
X115247582Y-51347338D02*
X115366630Y-51406861D01*
X115366630Y-51406861D02*
X115783296Y-51406861D01*
X114533296Y-51585433D02*
X113580916Y-51585433D01*
X114057106Y-52061623D02*
X114057106Y-51109242D01*
X128120611Y-139481038D02*
X128215849Y-139433419D01*
X128215849Y-139433419D02*
X128358706Y-139433419D01*
X128358706Y-139433419D02*
X128501563Y-139481038D01*
X128501563Y-139481038D02*
X128596801Y-139576276D01*
X128596801Y-139576276D02*
X128644420Y-139671514D01*
X128644420Y-139671514D02*
X128692039Y-139861990D01*
X128692039Y-139861990D02*
X128692039Y-140004847D01*
X128692039Y-140004847D02*
X128644420Y-140195323D01*
X128644420Y-140195323D02*
X128596801Y-140290561D01*
X128596801Y-140290561D02*
X128501563Y-140385800D01*
X128501563Y-140385800D02*
X128358706Y-140433419D01*
X128358706Y-140433419D02*
X128263468Y-140433419D01*
X128263468Y-140433419D02*
X128120611Y-140385800D01*
X128120611Y-140385800D02*
X128072992Y-140338180D01*
X128072992Y-140338180D02*
X128072992Y-140004847D01*
X128072992Y-140004847D02*
X128263468Y-140004847D01*
X127644420Y-140433419D02*
X127644420Y-139433419D01*
X127644420Y-139433419D02*
X127072992Y-140433419D01*
X127072992Y-140433419D02*
X127072992Y-139433419D01*
X126596801Y-140433419D02*
X126596801Y-139433419D01*
X126596801Y-139433419D02*
X126358706Y-139433419D01*
X126358706Y-139433419D02*
X126215849Y-139481038D01*
X126215849Y-139481038D02*
X126120611Y-139576276D01*
X126120611Y-139576276D02*
X126072992Y-139671514D01*
X126072992Y-139671514D02*
X126025373Y-139861990D01*
X126025373Y-139861990D02*
X126025373Y-140004847D01*
X126025373Y-140004847D02*
X126072992Y-140195323D01*
X126072992Y-140195323D02*
X126120611Y-140290561D01*
X126120611Y-140290561D02*
X126215849Y-140385800D01*
X126215849Y-140385800D02*
X126358706Y-140433419D01*
X126358706Y-140433419D02*
X126596801Y-140433419D01*
X124882515Y-140385800D02*
X124739658Y-140433419D01*
X124739658Y-140433419D02*
X124501563Y-140433419D01*
X124501563Y-140433419D02*
X124406325Y-140385800D01*
X124406325Y-140385800D02*
X124358706Y-140338180D01*
X124358706Y-140338180D02*
X124311087Y-140242942D01*
X124311087Y-140242942D02*
X124311087Y-140147704D01*
X124311087Y-140147704D02*
X124358706Y-140052466D01*
X124358706Y-140052466D02*
X124406325Y-140004847D01*
X124406325Y-140004847D02*
X124501563Y-139957228D01*
X124501563Y-139957228D02*
X124692039Y-139909609D01*
X124692039Y-139909609D02*
X124787277Y-139861990D01*
X124787277Y-139861990D02*
X124834896Y-139814371D01*
X124834896Y-139814371D02*
X124882515Y-139719133D01*
X124882515Y-139719133D02*
X124882515Y-139623895D01*
X124882515Y-139623895D02*
X124834896Y-139528657D01*
X124834896Y-139528657D02*
X124787277Y-139481038D01*
X124787277Y-139481038D02*
X124692039Y-139433419D01*
X124692039Y-139433419D02*
X124453944Y-139433419D01*
X124453944Y-139433419D02*
X124311087Y-139481038D01*
X123215848Y-139433419D02*
X122596801Y-139433419D01*
X122596801Y-139433419D02*
X122930134Y-139814371D01*
X122930134Y-139814371D02*
X122787277Y-139814371D01*
X122787277Y-139814371D02*
X122692039Y-139861990D01*
X122692039Y-139861990D02*
X122644420Y-139909609D01*
X122644420Y-139909609D02*
X122596801Y-140004847D01*
X122596801Y-140004847D02*
X122596801Y-140242942D01*
X122596801Y-140242942D02*
X122644420Y-140338180D01*
X122644420Y-140338180D02*
X122692039Y-140385800D01*
X122692039Y-140385800D02*
X122787277Y-140433419D01*
X122787277Y-140433419D02*
X123072991Y-140433419D01*
X123072991Y-140433419D02*
X123168229Y-140385800D01*
X123168229Y-140385800D02*
X123215848Y-140338180D01*
X122311086Y-139433419D02*
X121977753Y-140433419D01*
X121977753Y-140433419D02*
X121644420Y-139433419D01*
X121406324Y-139433419D02*
X120787277Y-139433419D01*
X120787277Y-139433419D02*
X121120610Y-139814371D01*
X121120610Y-139814371D02*
X120977753Y-139814371D01*
X120977753Y-139814371D02*
X120882515Y-139861990D01*
X120882515Y-139861990D02*
X120834896Y-139909609D01*
X120834896Y-139909609D02*
X120787277Y-140004847D01*
X120787277Y-140004847D02*
X120787277Y-140242942D01*
X120787277Y-140242942D02*
X120834896Y-140338180D01*
X120834896Y-140338180D02*
X120882515Y-140385800D01*
X120882515Y-140385800D02*
X120977753Y-140433419D01*
X120977753Y-140433419D02*
X121263467Y-140433419D01*
X121263467Y-140433419D02*
X121358705Y-140385800D01*
X121358705Y-140385800D02*
X121406324Y-140338180D01*
D11*
X184718249Y-125023923D02*
X184718249Y-123773923D01*
X184718249Y-123773923D02*
X184420630Y-123773923D01*
X184420630Y-123773923D02*
X184242059Y-123833447D01*
X184242059Y-123833447D02*
X184123011Y-123952495D01*
X184123011Y-123952495D02*
X184063488Y-124071542D01*
X184063488Y-124071542D02*
X184003964Y-124309638D01*
X184003964Y-124309638D02*
X184003964Y-124488209D01*
X184003964Y-124488209D02*
X184063488Y-124726304D01*
X184063488Y-124726304D02*
X184123011Y-124845352D01*
X184123011Y-124845352D02*
X184242059Y-124964400D01*
X184242059Y-124964400D02*
X184420630Y-125023923D01*
X184420630Y-125023923D02*
X184718249Y-125023923D01*
D10*
X194567011Y-109458238D02*
X194662249Y-109410619D01*
X194662249Y-109410619D02*
X194805106Y-109410619D01*
X194805106Y-109410619D02*
X194947963Y-109458238D01*
X194947963Y-109458238D02*
X195043201Y-109553476D01*
X195043201Y-109553476D02*
X195090820Y-109648714D01*
X195090820Y-109648714D02*
X195138439Y-109839190D01*
X195138439Y-109839190D02*
X195138439Y-109982047D01*
X195138439Y-109982047D02*
X195090820Y-110172523D01*
X195090820Y-110172523D02*
X195043201Y-110267761D01*
X195043201Y-110267761D02*
X194947963Y-110363000D01*
X194947963Y-110363000D02*
X194805106Y-110410619D01*
X194805106Y-110410619D02*
X194709868Y-110410619D01*
X194709868Y-110410619D02*
X194567011Y-110363000D01*
X194567011Y-110363000D02*
X194519392Y-110315380D01*
X194519392Y-110315380D02*
X194519392Y-109982047D01*
X194519392Y-109982047D02*
X194709868Y-109982047D01*
X194090820Y-110410619D02*
X194090820Y-109410619D01*
X194090820Y-109410619D02*
X193519392Y-110410619D01*
X193519392Y-110410619D02*
X193519392Y-109410619D01*
X193043201Y-110410619D02*
X193043201Y-109410619D01*
X193043201Y-109410619D02*
X192805106Y-109410619D01*
X192805106Y-109410619D02*
X192662249Y-109458238D01*
X192662249Y-109458238D02*
X192567011Y-109553476D01*
X192567011Y-109553476D02*
X192519392Y-109648714D01*
X192519392Y-109648714D02*
X192471773Y-109839190D01*
X192471773Y-109839190D02*
X192471773Y-109982047D01*
X192471773Y-109982047D02*
X192519392Y-110172523D01*
X192519392Y-110172523D02*
X192567011Y-110267761D01*
X192567011Y-110267761D02*
X192662249Y-110363000D01*
X192662249Y-110363000D02*
X192805106Y-110410619D01*
X192805106Y-110410619D02*
X193043201Y-110410619D01*
X197919811Y-131137019D02*
X198491239Y-131137019D01*
X198205525Y-131137019D02*
X198205525Y-130137019D01*
X198205525Y-130137019D02*
X198300763Y-130279876D01*
X198300763Y-130279876D02*
X198396001Y-130375114D01*
X198396001Y-130375114D02*
X198491239Y-130422733D01*
X197538858Y-130232257D02*
X197491239Y-130184638D01*
X197491239Y-130184638D02*
X197396001Y-130137019D01*
X197396001Y-130137019D02*
X197157906Y-130137019D01*
X197157906Y-130137019D02*
X197062668Y-130184638D01*
X197062668Y-130184638D02*
X197015049Y-130232257D01*
X197015049Y-130232257D02*
X196967430Y-130327495D01*
X196967430Y-130327495D02*
X196967430Y-130422733D01*
X196967430Y-130422733D02*
X197015049Y-130565590D01*
X197015049Y-130565590D02*
X197586477Y-131137019D01*
X197586477Y-131137019D02*
X196967430Y-131137019D01*
X196681715Y-130137019D02*
X196348382Y-131137019D01*
X196348382Y-131137019D02*
X196015049Y-130137019D01*
X122596161Y-130139887D02*
X122643780Y-130211316D01*
X122643780Y-130211316D02*
X122643780Y-130318458D01*
X122643780Y-130318458D02*
X122596161Y-130425601D01*
X122596161Y-130425601D02*
X122500923Y-130497030D01*
X122500923Y-130497030D02*
X122405685Y-130532744D01*
X122405685Y-130532744D02*
X122215209Y-130568458D01*
X122215209Y-130568458D02*
X122072352Y-130568458D01*
X122072352Y-130568458D02*
X121881876Y-130532744D01*
X121881876Y-130532744D02*
X121786638Y-130497030D01*
X121786638Y-130497030D02*
X121691400Y-130425601D01*
X121691400Y-130425601D02*
X121643780Y-130318458D01*
X121643780Y-130318458D02*
X121643780Y-130247030D01*
X121643780Y-130247030D02*
X121691400Y-130139887D01*
X121691400Y-130139887D02*
X121739019Y-130104173D01*
X121739019Y-130104173D02*
X122072352Y-130104173D01*
X122072352Y-130104173D02*
X122072352Y-130247030D01*
X121643780Y-129782744D02*
X122643780Y-129782744D01*
X122643780Y-129782744D02*
X121643780Y-129354173D01*
X121643780Y-129354173D02*
X122643780Y-129354173D01*
X121643780Y-128997030D02*
X122643780Y-128997030D01*
X122643780Y-128997030D02*
X122643780Y-128818459D01*
X122643780Y-128818459D02*
X122596161Y-128711316D01*
X122596161Y-128711316D02*
X122500923Y-128639887D01*
X122500923Y-128639887D02*
X122405685Y-128604173D01*
X122405685Y-128604173D02*
X122215209Y-128568459D01*
X122215209Y-128568459D02*
X122072352Y-128568459D01*
X122072352Y-128568459D02*
X121881876Y-128604173D01*
X121881876Y-128604173D02*
X121786638Y-128639887D01*
X121786638Y-128639887D02*
X121691400Y-128711316D01*
X121691400Y-128711316D02*
X121643780Y-128818459D01*
X121643780Y-128818459D02*
X121643780Y-128997030D01*
X119297220Y-51704480D02*
X118701982Y-51704480D01*
X119416268Y-52061623D02*
X118999601Y-50811623D01*
X118999601Y-50811623D02*
X118582935Y-52061623D01*
X118166267Y-51585433D02*
X117213887Y-51585433D01*
X117046211Y-139481038D02*
X117141449Y-139433419D01*
X117141449Y-139433419D02*
X117284306Y-139433419D01*
X117284306Y-139433419D02*
X117427163Y-139481038D01*
X117427163Y-139481038D02*
X117522401Y-139576276D01*
X117522401Y-139576276D02*
X117570020Y-139671514D01*
X117570020Y-139671514D02*
X117617639Y-139861990D01*
X117617639Y-139861990D02*
X117617639Y-140004847D01*
X117617639Y-140004847D02*
X117570020Y-140195323D01*
X117570020Y-140195323D02*
X117522401Y-140290561D01*
X117522401Y-140290561D02*
X117427163Y-140385800D01*
X117427163Y-140385800D02*
X117284306Y-140433419D01*
X117284306Y-140433419D02*
X117189068Y-140433419D01*
X117189068Y-140433419D02*
X117046211Y-140385800D01*
X117046211Y-140385800D02*
X116998592Y-140338180D01*
X116998592Y-140338180D02*
X116998592Y-140004847D01*
X116998592Y-140004847D02*
X117189068Y-140004847D01*
X116570020Y-140433419D02*
X116570020Y-139433419D01*
X116570020Y-139433419D02*
X115998592Y-140433419D01*
X115998592Y-140433419D02*
X115998592Y-139433419D01*
X115522401Y-140433419D02*
X115522401Y-139433419D01*
X115522401Y-139433419D02*
X115284306Y-139433419D01*
X115284306Y-139433419D02*
X115141449Y-139481038D01*
X115141449Y-139481038D02*
X115046211Y-139576276D01*
X115046211Y-139576276D02*
X114998592Y-139671514D01*
X114998592Y-139671514D02*
X114950973Y-139861990D01*
X114950973Y-139861990D02*
X114950973Y-140004847D01*
X114950973Y-140004847D02*
X114998592Y-140195323D01*
X114998592Y-140195323D02*
X115046211Y-140290561D01*
X115046211Y-140290561D02*
X115141449Y-140385800D01*
X115141449Y-140385800D02*
X115284306Y-140433419D01*
X115284306Y-140433419D02*
X115522401Y-140433419D01*
X113808115Y-140385800D02*
X113665258Y-140433419D01*
X113665258Y-140433419D02*
X113427163Y-140433419D01*
X113427163Y-140433419D02*
X113331925Y-140385800D01*
X113331925Y-140385800D02*
X113284306Y-140338180D01*
X113284306Y-140338180D02*
X113236687Y-140242942D01*
X113236687Y-140242942D02*
X113236687Y-140147704D01*
X113236687Y-140147704D02*
X113284306Y-140052466D01*
X113284306Y-140052466D02*
X113331925Y-140004847D01*
X113331925Y-140004847D02*
X113427163Y-139957228D01*
X113427163Y-139957228D02*
X113617639Y-139909609D01*
X113617639Y-139909609D02*
X113712877Y-139861990D01*
X113712877Y-139861990D02*
X113760496Y-139814371D01*
X113760496Y-139814371D02*
X113808115Y-139719133D01*
X113808115Y-139719133D02*
X113808115Y-139623895D01*
X113808115Y-139623895D02*
X113760496Y-139528657D01*
X113760496Y-139528657D02*
X113712877Y-139481038D01*
X113712877Y-139481038D02*
X113617639Y-139433419D01*
X113617639Y-139433419D02*
X113379544Y-139433419D01*
X113379544Y-139433419D02*
X113236687Y-139481038D01*
X112141448Y-139433419D02*
X111522401Y-139433419D01*
X111522401Y-139433419D02*
X111855734Y-139814371D01*
X111855734Y-139814371D02*
X111712877Y-139814371D01*
X111712877Y-139814371D02*
X111617639Y-139861990D01*
X111617639Y-139861990D02*
X111570020Y-139909609D01*
X111570020Y-139909609D02*
X111522401Y-140004847D01*
X111522401Y-140004847D02*
X111522401Y-140242942D01*
X111522401Y-140242942D02*
X111570020Y-140338180D01*
X111570020Y-140338180D02*
X111617639Y-140385800D01*
X111617639Y-140385800D02*
X111712877Y-140433419D01*
X111712877Y-140433419D02*
X111998591Y-140433419D01*
X111998591Y-140433419D02*
X112093829Y-140385800D01*
X112093829Y-140385800D02*
X112141448Y-140338180D01*
X111236686Y-139433419D02*
X110903353Y-140433419D01*
X110903353Y-140433419D02*
X110570020Y-139433419D01*
X110331924Y-139433419D02*
X109712877Y-139433419D01*
X109712877Y-139433419D02*
X110046210Y-139814371D01*
X110046210Y-139814371D02*
X109903353Y-139814371D01*
X109903353Y-139814371D02*
X109808115Y-139861990D01*
X109808115Y-139861990D02*
X109760496Y-139909609D01*
X109760496Y-139909609D02*
X109712877Y-140004847D01*
X109712877Y-140004847D02*
X109712877Y-140242942D01*
X109712877Y-140242942D02*
X109760496Y-140338180D01*
X109760496Y-140338180D02*
X109808115Y-140385800D01*
X109808115Y-140385800D02*
X109903353Y-140433419D01*
X109903353Y-140433419D02*
X110189067Y-140433419D01*
X110189067Y-140433419D02*
X110284305Y-140385800D01*
X110284305Y-140385800D02*
X110331924Y-140338180D01*
X175482011Y-118248619D02*
X176053439Y-118248619D01*
X175767725Y-118248619D02*
X175767725Y-117248619D01*
X175767725Y-117248619D02*
X175862963Y-117391476D01*
X175862963Y-117391476D02*
X175958201Y-117486714D01*
X175958201Y-117486714D02*
X176053439Y-117534333D01*
X174339154Y-117201000D02*
X175196296Y-118486714D01*
X173862963Y-117677190D02*
X173958201Y-117629571D01*
X173958201Y-117629571D02*
X174005820Y-117581952D01*
X174005820Y-117581952D02*
X174053439Y-117486714D01*
X174053439Y-117486714D02*
X174053439Y-117439095D01*
X174053439Y-117439095D02*
X174005820Y-117343857D01*
X174005820Y-117343857D02*
X173958201Y-117296238D01*
X173958201Y-117296238D02*
X173862963Y-117248619D01*
X173862963Y-117248619D02*
X173672487Y-117248619D01*
X173672487Y-117248619D02*
X173577249Y-117296238D01*
X173577249Y-117296238D02*
X173529630Y-117343857D01*
X173529630Y-117343857D02*
X173482011Y-117439095D01*
X173482011Y-117439095D02*
X173482011Y-117486714D01*
X173482011Y-117486714D02*
X173529630Y-117581952D01*
X173529630Y-117581952D02*
X173577249Y-117629571D01*
X173577249Y-117629571D02*
X173672487Y-117677190D01*
X173672487Y-117677190D02*
X173862963Y-117677190D01*
X173862963Y-117677190D02*
X173958201Y-117724809D01*
X173958201Y-117724809D02*
X174005820Y-117772428D01*
X174005820Y-117772428D02*
X174053439Y-117867666D01*
X174053439Y-117867666D02*
X174053439Y-118058142D01*
X174053439Y-118058142D02*
X174005820Y-118153380D01*
X174005820Y-118153380D02*
X173958201Y-118201000D01*
X173958201Y-118201000D02*
X173862963Y-118248619D01*
X173862963Y-118248619D02*
X173672487Y-118248619D01*
X173672487Y-118248619D02*
X173577249Y-118201000D01*
X173577249Y-118201000D02*
X173529630Y-118153380D01*
X173529630Y-118153380D02*
X173482011Y-118058142D01*
X173482011Y-118058142D02*
X173482011Y-117867666D01*
X173482011Y-117867666D02*
X173529630Y-117772428D01*
X173529630Y-117772428D02*
X173577249Y-117724809D01*
X173577249Y-117724809D02*
X173672487Y-117677190D01*
X172339153Y-118201000D02*
X172243915Y-118248619D01*
X172243915Y-118248619D02*
X172053439Y-118248619D01*
X172053439Y-118248619D02*
X171958201Y-118201000D01*
X171958201Y-118201000D02*
X171910582Y-118105761D01*
X171910582Y-118105761D02*
X171910582Y-118058142D01*
X171910582Y-118058142D02*
X171958201Y-117962904D01*
X171958201Y-117962904D02*
X172053439Y-117915285D01*
X172053439Y-117915285D02*
X172196296Y-117915285D01*
X172196296Y-117915285D02*
X172291534Y-117867666D01*
X172291534Y-117867666D02*
X172339153Y-117772428D01*
X172339153Y-117772428D02*
X172339153Y-117724809D01*
X172339153Y-117724809D02*
X172291534Y-117629571D01*
X172291534Y-117629571D02*
X172196296Y-117581952D01*
X172196296Y-117581952D02*
X172053439Y-117581952D01*
X172053439Y-117581952D02*
X171958201Y-117629571D01*
X171624867Y-117581952D02*
X171243915Y-117581952D01*
X171482010Y-117248619D02*
X171482010Y-118105761D01*
X171482010Y-118105761D02*
X171434391Y-118201000D01*
X171434391Y-118201000D02*
X171339153Y-118248619D01*
X171339153Y-118248619D02*
X171243915Y-118248619D01*
X170529629Y-118201000D02*
X170624867Y-118248619D01*
X170624867Y-118248619D02*
X170815343Y-118248619D01*
X170815343Y-118248619D02*
X170910581Y-118201000D01*
X170910581Y-118201000D02*
X170958200Y-118105761D01*
X170958200Y-118105761D02*
X170958200Y-117724809D01*
X170958200Y-117724809D02*
X170910581Y-117629571D01*
X170910581Y-117629571D02*
X170815343Y-117581952D01*
X170815343Y-117581952D02*
X170624867Y-117581952D01*
X170624867Y-117581952D02*
X170529629Y-117629571D01*
X170529629Y-117629571D02*
X170482010Y-117724809D01*
X170482010Y-117724809D02*
X170482010Y-117820047D01*
X170482010Y-117820047D02*
X170958200Y-117915285D01*
X170053438Y-117581952D02*
X170053438Y-118581952D01*
X170053438Y-117629571D02*
X169958200Y-117581952D01*
X169958200Y-117581952D02*
X169767724Y-117581952D01*
X169767724Y-117581952D02*
X169672486Y-117629571D01*
X169672486Y-117629571D02*
X169624867Y-117677190D01*
X169624867Y-117677190D02*
X169577248Y-117772428D01*
X169577248Y-117772428D02*
X169577248Y-118058142D01*
X169577248Y-118058142D02*
X169624867Y-118153380D01*
X169624867Y-118153380D02*
X169672486Y-118201000D01*
X169672486Y-118201000D02*
X169767724Y-118248619D01*
X169767724Y-118248619D02*
X169958200Y-118248619D01*
X169958200Y-118248619D02*
X170053438Y-118201000D01*
X119103780Y-138355944D02*
X120103780Y-138355944D01*
X120103780Y-138355944D02*
X119389495Y-138105944D01*
X119389495Y-138105944D02*
X120103780Y-137855944D01*
X120103780Y-137855944D02*
X119103780Y-137855944D01*
X120103780Y-137355944D02*
X120103780Y-137213087D01*
X120103780Y-137213087D02*
X120056161Y-137141658D01*
X120056161Y-137141658D02*
X119960923Y-137070230D01*
X119960923Y-137070230D02*
X119770447Y-137034515D01*
X119770447Y-137034515D02*
X119437114Y-137034515D01*
X119437114Y-137034515D02*
X119246638Y-137070230D01*
X119246638Y-137070230D02*
X119151400Y-137141658D01*
X119151400Y-137141658D02*
X119103780Y-137213087D01*
X119103780Y-137213087D02*
X119103780Y-137355944D01*
X119103780Y-137355944D02*
X119151400Y-137427373D01*
X119151400Y-137427373D02*
X119246638Y-137498801D01*
X119246638Y-137498801D02*
X119437114Y-137534515D01*
X119437114Y-137534515D02*
X119770447Y-137534515D01*
X119770447Y-137534515D02*
X119960923Y-137498801D01*
X119960923Y-137498801D02*
X120056161Y-137427373D01*
X120056161Y-137427373D02*
X120103780Y-137355944D01*
X119151400Y-136748801D02*
X119103780Y-136641659D01*
X119103780Y-136641659D02*
X119103780Y-136463087D01*
X119103780Y-136463087D02*
X119151400Y-136391659D01*
X119151400Y-136391659D02*
X119199019Y-136355944D01*
X119199019Y-136355944D02*
X119294257Y-136320230D01*
X119294257Y-136320230D02*
X119389495Y-136320230D01*
X119389495Y-136320230D02*
X119484733Y-136355944D01*
X119484733Y-136355944D02*
X119532352Y-136391659D01*
X119532352Y-136391659D02*
X119579971Y-136463087D01*
X119579971Y-136463087D02*
X119627590Y-136605944D01*
X119627590Y-136605944D02*
X119675209Y-136677373D01*
X119675209Y-136677373D02*
X119722828Y-136713087D01*
X119722828Y-136713087D02*
X119818066Y-136748801D01*
X119818066Y-136748801D02*
X119913304Y-136748801D01*
X119913304Y-136748801D02*
X120008542Y-136713087D01*
X120008542Y-136713087D02*
X120056161Y-136677373D01*
X120056161Y-136677373D02*
X120103780Y-136605944D01*
X120103780Y-136605944D02*
X120103780Y-136427373D01*
X120103780Y-136427373D02*
X120056161Y-136320230D01*
X119103780Y-135998801D02*
X120103780Y-135998801D01*
X194900344Y-123329819D02*
X194709868Y-123329819D01*
X194709868Y-123329819D02*
X194614630Y-123377438D01*
X194614630Y-123377438D02*
X194519392Y-123472676D01*
X194519392Y-123472676D02*
X194471773Y-123663152D01*
X194471773Y-123663152D02*
X194471773Y-123996485D01*
X194471773Y-123996485D02*
X194519392Y-124186961D01*
X194519392Y-124186961D02*
X194614630Y-124282200D01*
X194614630Y-124282200D02*
X194709868Y-124329819D01*
X194709868Y-124329819D02*
X194900344Y-124329819D01*
X194900344Y-124329819D02*
X194995582Y-124282200D01*
X194995582Y-124282200D02*
X195090820Y-124186961D01*
X195090820Y-124186961D02*
X195138439Y-123996485D01*
X195138439Y-123996485D02*
X195138439Y-123663152D01*
X195138439Y-123663152D02*
X195090820Y-123472676D01*
X195090820Y-123472676D02*
X194995582Y-123377438D01*
X194995582Y-123377438D02*
X194900344Y-123329819D01*
X194043201Y-123329819D02*
X194043201Y-124139342D01*
X194043201Y-124139342D02*
X193995582Y-124234580D01*
X193995582Y-124234580D02*
X193947963Y-124282200D01*
X193947963Y-124282200D02*
X193852725Y-124329819D01*
X193852725Y-124329819D02*
X193662249Y-124329819D01*
X193662249Y-124329819D02*
X193567011Y-124282200D01*
X193567011Y-124282200D02*
X193519392Y-124234580D01*
X193519392Y-124234580D02*
X193471773Y-124139342D01*
X193471773Y-124139342D02*
X193471773Y-123329819D01*
X193138439Y-123329819D02*
X192567011Y-123329819D01*
X192852725Y-124329819D02*
X192852725Y-123329819D01*
X102460588Y-97863019D02*
X102460588Y-96863019D01*
X102460588Y-96863019D02*
X102222493Y-96863019D01*
X102222493Y-96863019D02*
X102079636Y-96910638D01*
X102079636Y-96910638D02*
X101984398Y-97005876D01*
X101984398Y-97005876D02*
X101936779Y-97101114D01*
X101936779Y-97101114D02*
X101889160Y-97291590D01*
X101889160Y-97291590D02*
X101889160Y-97434447D01*
X101889160Y-97434447D02*
X101936779Y-97624923D01*
X101936779Y-97624923D02*
X101984398Y-97720161D01*
X101984398Y-97720161D02*
X102079636Y-97815400D01*
X102079636Y-97815400D02*
X102222493Y-97863019D01*
X102222493Y-97863019D02*
X102460588Y-97863019D01*
X197919811Y-117370219D02*
X198491239Y-117370219D01*
X198205525Y-117370219D02*
X198205525Y-116370219D01*
X198205525Y-116370219D02*
X198300763Y-116513076D01*
X198300763Y-116513076D02*
X198396001Y-116608314D01*
X198396001Y-116608314D02*
X198491239Y-116655933D01*
X197538858Y-116465457D02*
X197491239Y-116417838D01*
X197491239Y-116417838D02*
X197396001Y-116370219D01*
X197396001Y-116370219D02*
X197157906Y-116370219D01*
X197157906Y-116370219D02*
X197062668Y-116417838D01*
X197062668Y-116417838D02*
X197015049Y-116465457D01*
X197015049Y-116465457D02*
X196967430Y-116560695D01*
X196967430Y-116560695D02*
X196967430Y-116655933D01*
X196967430Y-116655933D02*
X197015049Y-116798790D01*
X197015049Y-116798790D02*
X197586477Y-117370219D01*
X197586477Y-117370219D02*
X196967430Y-117370219D01*
X196681715Y-116370219D02*
X196348382Y-117370219D01*
X196348382Y-117370219D02*
X196015049Y-116370219D01*
X175583611Y-127138619D02*
X176155039Y-127138619D01*
X175869325Y-127138619D02*
X175869325Y-126138619D01*
X175869325Y-126138619D02*
X175964563Y-126281476D01*
X175964563Y-126281476D02*
X176059801Y-126376714D01*
X176059801Y-126376714D02*
X176155039Y-126424333D01*
X174440754Y-126091000D02*
X175297896Y-127376714D01*
X173583611Y-127138619D02*
X174155039Y-127138619D01*
X173869325Y-127138619D02*
X173869325Y-126138619D01*
X173869325Y-126138619D02*
X173964563Y-126281476D01*
X173964563Y-126281476D02*
X174059801Y-126376714D01*
X174059801Y-126376714D02*
X174155039Y-126424333D01*
X173202658Y-126233857D02*
X173155039Y-126186238D01*
X173155039Y-126186238D02*
X173059801Y-126138619D01*
X173059801Y-126138619D02*
X172821706Y-126138619D01*
X172821706Y-126138619D02*
X172726468Y-126186238D01*
X172726468Y-126186238D02*
X172678849Y-126233857D01*
X172678849Y-126233857D02*
X172631230Y-126329095D01*
X172631230Y-126329095D02*
X172631230Y-126424333D01*
X172631230Y-126424333D02*
X172678849Y-126567190D01*
X172678849Y-126567190D02*
X173250277Y-127138619D01*
X173250277Y-127138619D02*
X172631230Y-127138619D01*
X172059801Y-126567190D02*
X172155039Y-126519571D01*
X172155039Y-126519571D02*
X172202658Y-126471952D01*
X172202658Y-126471952D02*
X172250277Y-126376714D01*
X172250277Y-126376714D02*
X172250277Y-126329095D01*
X172250277Y-126329095D02*
X172202658Y-126233857D01*
X172202658Y-126233857D02*
X172155039Y-126186238D01*
X172155039Y-126186238D02*
X172059801Y-126138619D01*
X172059801Y-126138619D02*
X171869325Y-126138619D01*
X171869325Y-126138619D02*
X171774087Y-126186238D01*
X171774087Y-126186238D02*
X171726468Y-126233857D01*
X171726468Y-126233857D02*
X171678849Y-126329095D01*
X171678849Y-126329095D02*
X171678849Y-126376714D01*
X171678849Y-126376714D02*
X171726468Y-126471952D01*
X171726468Y-126471952D02*
X171774087Y-126519571D01*
X171774087Y-126519571D02*
X171869325Y-126567190D01*
X171869325Y-126567190D02*
X172059801Y-126567190D01*
X172059801Y-126567190D02*
X172155039Y-126614809D01*
X172155039Y-126614809D02*
X172202658Y-126662428D01*
X172202658Y-126662428D02*
X172250277Y-126757666D01*
X172250277Y-126757666D02*
X172250277Y-126948142D01*
X172250277Y-126948142D02*
X172202658Y-127043380D01*
X172202658Y-127043380D02*
X172155039Y-127091000D01*
X172155039Y-127091000D02*
X172059801Y-127138619D01*
X172059801Y-127138619D02*
X171869325Y-127138619D01*
X171869325Y-127138619D02*
X171774087Y-127091000D01*
X171774087Y-127091000D02*
X171726468Y-127043380D01*
X171726468Y-127043380D02*
X171678849Y-126948142D01*
X171678849Y-126948142D02*
X171678849Y-126757666D01*
X171678849Y-126757666D02*
X171726468Y-126662428D01*
X171726468Y-126662428D02*
X171774087Y-126614809D01*
X171774087Y-126614809D02*
X171869325Y-126567190D01*
X170535991Y-127091000D02*
X170440753Y-127138619D01*
X170440753Y-127138619D02*
X170250277Y-127138619D01*
X170250277Y-127138619D02*
X170155039Y-127091000D01*
X170155039Y-127091000D02*
X170107420Y-126995761D01*
X170107420Y-126995761D02*
X170107420Y-126948142D01*
X170107420Y-126948142D02*
X170155039Y-126852904D01*
X170155039Y-126852904D02*
X170250277Y-126805285D01*
X170250277Y-126805285D02*
X170393134Y-126805285D01*
X170393134Y-126805285D02*
X170488372Y-126757666D01*
X170488372Y-126757666D02*
X170535991Y-126662428D01*
X170535991Y-126662428D02*
X170535991Y-126614809D01*
X170535991Y-126614809D02*
X170488372Y-126519571D01*
X170488372Y-126519571D02*
X170393134Y-126471952D01*
X170393134Y-126471952D02*
X170250277Y-126471952D01*
X170250277Y-126471952D02*
X170155039Y-126519571D01*
X169821705Y-126471952D02*
X169440753Y-126471952D01*
X169678848Y-126138619D02*
X169678848Y-126995761D01*
X169678848Y-126995761D02*
X169631229Y-127091000D01*
X169631229Y-127091000D02*
X169535991Y-127138619D01*
X169535991Y-127138619D02*
X169440753Y-127138619D01*
X168726467Y-127091000D02*
X168821705Y-127138619D01*
X168821705Y-127138619D02*
X169012181Y-127138619D01*
X169012181Y-127138619D02*
X169107419Y-127091000D01*
X169107419Y-127091000D02*
X169155038Y-126995761D01*
X169155038Y-126995761D02*
X169155038Y-126614809D01*
X169155038Y-126614809D02*
X169107419Y-126519571D01*
X169107419Y-126519571D02*
X169012181Y-126471952D01*
X169012181Y-126471952D02*
X168821705Y-126471952D01*
X168821705Y-126471952D02*
X168726467Y-126519571D01*
X168726467Y-126519571D02*
X168678848Y-126614809D01*
X168678848Y-126614809D02*
X168678848Y-126710047D01*
X168678848Y-126710047D02*
X169155038Y-126805285D01*
X168250276Y-126471952D02*
X168250276Y-127471952D01*
X168250276Y-126519571D02*
X168155038Y-126471952D01*
X168155038Y-126471952D02*
X167964562Y-126471952D01*
X167964562Y-126471952D02*
X167869324Y-126519571D01*
X167869324Y-126519571D02*
X167821705Y-126567190D01*
X167821705Y-126567190D02*
X167774086Y-126662428D01*
X167774086Y-126662428D02*
X167774086Y-126948142D01*
X167774086Y-126948142D02*
X167821705Y-127043380D01*
X167821705Y-127043380D02*
X167869324Y-127091000D01*
X167869324Y-127091000D02*
X167964562Y-127138619D01*
X167964562Y-127138619D02*
X168155038Y-127138619D01*
X168155038Y-127138619D02*
X168250276Y-127091000D01*
X175532811Y-124903419D02*
X176104239Y-124903419D01*
X175818525Y-124903419D02*
X175818525Y-123903419D01*
X175818525Y-123903419D02*
X175913763Y-124046276D01*
X175913763Y-124046276D02*
X176009001Y-124141514D01*
X176009001Y-124141514D02*
X176104239Y-124189133D01*
X174389954Y-123855800D02*
X175247096Y-125141514D01*
X173628049Y-123903419D02*
X173818525Y-123903419D01*
X173818525Y-123903419D02*
X173913763Y-123951038D01*
X173913763Y-123951038D02*
X173961382Y-123998657D01*
X173961382Y-123998657D02*
X174056620Y-124141514D01*
X174056620Y-124141514D02*
X174104239Y-124331990D01*
X174104239Y-124331990D02*
X174104239Y-124712942D01*
X174104239Y-124712942D02*
X174056620Y-124808180D01*
X174056620Y-124808180D02*
X174009001Y-124855800D01*
X174009001Y-124855800D02*
X173913763Y-124903419D01*
X173913763Y-124903419D02*
X173723287Y-124903419D01*
X173723287Y-124903419D02*
X173628049Y-124855800D01*
X173628049Y-124855800D02*
X173580430Y-124808180D01*
X173580430Y-124808180D02*
X173532811Y-124712942D01*
X173532811Y-124712942D02*
X173532811Y-124474847D01*
X173532811Y-124474847D02*
X173580430Y-124379609D01*
X173580430Y-124379609D02*
X173628049Y-124331990D01*
X173628049Y-124331990D02*
X173723287Y-124284371D01*
X173723287Y-124284371D02*
X173913763Y-124284371D01*
X173913763Y-124284371D02*
X174009001Y-124331990D01*
X174009001Y-124331990D02*
X174056620Y-124379609D01*
X174056620Y-124379609D02*
X174104239Y-124474847D01*
X172675668Y-124236752D02*
X172675668Y-124903419D01*
X172913763Y-123855800D02*
X173151858Y-124570085D01*
X173151858Y-124570085D02*
X172532811Y-124570085D01*
X171437572Y-124855800D02*
X171342334Y-124903419D01*
X171342334Y-124903419D02*
X171151858Y-124903419D01*
X171151858Y-124903419D02*
X171056620Y-124855800D01*
X171056620Y-124855800D02*
X171009001Y-124760561D01*
X171009001Y-124760561D02*
X171009001Y-124712942D01*
X171009001Y-124712942D02*
X171056620Y-124617704D01*
X171056620Y-124617704D02*
X171151858Y-124570085D01*
X171151858Y-124570085D02*
X171294715Y-124570085D01*
X171294715Y-124570085D02*
X171389953Y-124522466D01*
X171389953Y-124522466D02*
X171437572Y-124427228D01*
X171437572Y-124427228D02*
X171437572Y-124379609D01*
X171437572Y-124379609D02*
X171389953Y-124284371D01*
X171389953Y-124284371D02*
X171294715Y-124236752D01*
X171294715Y-124236752D02*
X171151858Y-124236752D01*
X171151858Y-124236752D02*
X171056620Y-124284371D01*
X170723286Y-124236752D02*
X170342334Y-124236752D01*
X170580429Y-123903419D02*
X170580429Y-124760561D01*
X170580429Y-124760561D02*
X170532810Y-124855800D01*
X170532810Y-124855800D02*
X170437572Y-124903419D01*
X170437572Y-124903419D02*
X170342334Y-124903419D01*
X169628048Y-124855800D02*
X169723286Y-124903419D01*
X169723286Y-124903419D02*
X169913762Y-124903419D01*
X169913762Y-124903419D02*
X170009000Y-124855800D01*
X170009000Y-124855800D02*
X170056619Y-124760561D01*
X170056619Y-124760561D02*
X170056619Y-124379609D01*
X170056619Y-124379609D02*
X170009000Y-124284371D01*
X170009000Y-124284371D02*
X169913762Y-124236752D01*
X169913762Y-124236752D02*
X169723286Y-124236752D01*
X169723286Y-124236752D02*
X169628048Y-124284371D01*
X169628048Y-124284371D02*
X169580429Y-124379609D01*
X169580429Y-124379609D02*
X169580429Y-124474847D01*
X169580429Y-124474847D02*
X170056619Y-124570085D01*
X169151857Y-124236752D02*
X169151857Y-125236752D01*
X169151857Y-124284371D02*
X169056619Y-124236752D01*
X169056619Y-124236752D02*
X168866143Y-124236752D01*
X168866143Y-124236752D02*
X168770905Y-124284371D01*
X168770905Y-124284371D02*
X168723286Y-124331990D01*
X168723286Y-124331990D02*
X168675667Y-124427228D01*
X168675667Y-124427228D02*
X168675667Y-124712942D01*
X168675667Y-124712942D02*
X168723286Y-124808180D01*
X168723286Y-124808180D02*
X168770905Y-124855800D01*
X168770905Y-124855800D02*
X168866143Y-124903419D01*
X168866143Y-124903419D02*
X169056619Y-124903419D01*
X169056619Y-124903419D02*
X169151857Y-124855800D01*
X183261000Y-140376039D02*
X183213380Y-140233182D01*
X183213380Y-140233182D02*
X183213380Y-139995087D01*
X183213380Y-139995087D02*
X183261000Y-139899849D01*
X183261000Y-139899849D02*
X183308619Y-139852230D01*
X183308619Y-139852230D02*
X183403857Y-139804611D01*
X183403857Y-139804611D02*
X183499095Y-139804611D01*
X183499095Y-139804611D02*
X183594333Y-139852230D01*
X183594333Y-139852230D02*
X183641952Y-139899849D01*
X183641952Y-139899849D02*
X183689571Y-139995087D01*
X183689571Y-139995087D02*
X183737190Y-140185563D01*
X183737190Y-140185563D02*
X183784809Y-140280801D01*
X183784809Y-140280801D02*
X183832428Y-140328420D01*
X183832428Y-140328420D02*
X183927666Y-140376039D01*
X183927666Y-140376039D02*
X184022904Y-140376039D01*
X184022904Y-140376039D02*
X184118142Y-140328420D01*
X184118142Y-140328420D02*
X184165761Y-140280801D01*
X184165761Y-140280801D02*
X184213380Y-140185563D01*
X184213380Y-140185563D02*
X184213380Y-139947468D01*
X184213380Y-139947468D02*
X184165761Y-139804611D01*
X183213380Y-139376039D02*
X184213380Y-139376039D01*
X184213380Y-139376039D02*
X184213380Y-138995087D01*
X184213380Y-138995087D02*
X184165761Y-138899849D01*
X184165761Y-138899849D02*
X184118142Y-138852230D01*
X184118142Y-138852230D02*
X184022904Y-138804611D01*
X184022904Y-138804611D02*
X183880047Y-138804611D01*
X183880047Y-138804611D02*
X183784809Y-138852230D01*
X183784809Y-138852230D02*
X183737190Y-138899849D01*
X183737190Y-138899849D02*
X183689571Y-138995087D01*
X183689571Y-138995087D02*
X183689571Y-139376039D01*
X183213380Y-138376039D02*
X184213380Y-138376039D01*
X184213380Y-138376039D02*
X184213380Y-138137944D01*
X184213380Y-138137944D02*
X184165761Y-137995087D01*
X184165761Y-137995087D02*
X184070523Y-137899849D01*
X184070523Y-137899849D02*
X183975285Y-137852230D01*
X183975285Y-137852230D02*
X183784809Y-137804611D01*
X183784809Y-137804611D02*
X183641952Y-137804611D01*
X183641952Y-137804611D02*
X183451476Y-137852230D01*
X183451476Y-137852230D02*
X183356238Y-137899849D01*
X183356238Y-137899849D02*
X183261000Y-137995087D01*
X183261000Y-137995087D02*
X183213380Y-138137944D01*
X183213380Y-138137944D02*
X183213380Y-138376039D01*
D11*
X179221583Y-110957961D02*
X179043011Y-111017485D01*
X179043011Y-111017485D02*
X178983488Y-111077009D01*
X178983488Y-111077009D02*
X178923964Y-111196057D01*
X178923964Y-111196057D02*
X178923964Y-111374628D01*
X178923964Y-111374628D02*
X178983488Y-111493676D01*
X178983488Y-111493676D02*
X179043011Y-111553200D01*
X179043011Y-111553200D02*
X179162059Y-111612723D01*
X179162059Y-111612723D02*
X179638249Y-111612723D01*
X179638249Y-111612723D02*
X179638249Y-110362723D01*
X179638249Y-110362723D02*
X179221583Y-110362723D01*
X179221583Y-110362723D02*
X179102535Y-110422247D01*
X179102535Y-110422247D02*
X179043011Y-110481771D01*
X179043011Y-110481771D02*
X178983488Y-110600819D01*
X178983488Y-110600819D02*
X178983488Y-110719866D01*
X178983488Y-110719866D02*
X179043011Y-110838914D01*
X179043011Y-110838914D02*
X179102535Y-110898438D01*
X179102535Y-110898438D02*
X179221583Y-110957961D01*
X179221583Y-110957961D02*
X179638249Y-110957961D01*
X179638249Y-129494323D02*
X179638249Y-128244323D01*
X179638249Y-128244323D02*
X179340630Y-128244323D01*
X179340630Y-128244323D02*
X179162059Y-128303847D01*
X179162059Y-128303847D02*
X179043011Y-128422895D01*
X179043011Y-128422895D02*
X178983488Y-128541942D01*
X178983488Y-128541942D02*
X178923964Y-128780038D01*
X178923964Y-128780038D02*
X178923964Y-128958609D01*
X178923964Y-128958609D02*
X178983488Y-129196704D01*
X178983488Y-129196704D02*
X179043011Y-129315752D01*
X179043011Y-129315752D02*
X179162059Y-129434800D01*
X179162059Y-129434800D02*
X179340630Y-129494323D01*
X179340630Y-129494323D02*
X179638249Y-129494323D01*
D10*
X186226390Y-140379220D02*
X186226390Y-140045887D01*
X185702580Y-139903030D02*
X185702580Y-140379220D01*
X185702580Y-140379220D02*
X186702580Y-140379220D01*
X186702580Y-140379220D02*
X186702580Y-139903030D01*
X185702580Y-139474458D02*
X186702580Y-139474458D01*
X186702580Y-139474458D02*
X185702580Y-138903030D01*
X185702580Y-138903030D02*
X186702580Y-138903030D01*
X194900344Y-116370219D02*
X194709868Y-116370219D01*
X194709868Y-116370219D02*
X194614630Y-116417838D01*
X194614630Y-116417838D02*
X194519392Y-116513076D01*
X194519392Y-116513076D02*
X194471773Y-116703552D01*
X194471773Y-116703552D02*
X194471773Y-117036885D01*
X194471773Y-117036885D02*
X194519392Y-117227361D01*
X194519392Y-117227361D02*
X194614630Y-117322600D01*
X194614630Y-117322600D02*
X194709868Y-117370219D01*
X194709868Y-117370219D02*
X194900344Y-117370219D01*
X194900344Y-117370219D02*
X194995582Y-117322600D01*
X194995582Y-117322600D02*
X195090820Y-117227361D01*
X195090820Y-117227361D02*
X195138439Y-117036885D01*
X195138439Y-117036885D02*
X195138439Y-116703552D01*
X195138439Y-116703552D02*
X195090820Y-116513076D01*
X195090820Y-116513076D02*
X194995582Y-116417838D01*
X194995582Y-116417838D02*
X194900344Y-116370219D01*
X194043201Y-116370219D02*
X194043201Y-117179742D01*
X194043201Y-117179742D02*
X193995582Y-117274980D01*
X193995582Y-117274980D02*
X193947963Y-117322600D01*
X193947963Y-117322600D02*
X193852725Y-117370219D01*
X193852725Y-117370219D02*
X193662249Y-117370219D01*
X193662249Y-117370219D02*
X193567011Y-117322600D01*
X193567011Y-117322600D02*
X193519392Y-117274980D01*
X193519392Y-117274980D02*
X193471773Y-117179742D01*
X193471773Y-117179742D02*
X193471773Y-116370219D01*
X193138439Y-116370219D02*
X192567011Y-116370219D01*
X192852725Y-117370219D02*
X192852725Y-116370219D01*
D11*
X184301583Y-108671961D02*
X184123011Y-108731485D01*
X184123011Y-108731485D02*
X184063488Y-108791009D01*
X184063488Y-108791009D02*
X184003964Y-108910057D01*
X184003964Y-108910057D02*
X184003964Y-109088628D01*
X184003964Y-109088628D02*
X184063488Y-109207676D01*
X184063488Y-109207676D02*
X184123011Y-109267200D01*
X184123011Y-109267200D02*
X184242059Y-109326723D01*
X184242059Y-109326723D02*
X184718249Y-109326723D01*
X184718249Y-109326723D02*
X184718249Y-108076723D01*
X184718249Y-108076723D02*
X184301583Y-108076723D01*
X184301583Y-108076723D02*
X184182535Y-108136247D01*
X184182535Y-108136247D02*
X184123011Y-108195771D01*
X184123011Y-108195771D02*
X184063488Y-108314819D01*
X184063488Y-108314819D02*
X184063488Y-108433866D01*
X184063488Y-108433866D02*
X184123011Y-108552914D01*
X184123011Y-108552914D02*
X184182535Y-108612438D01*
X184182535Y-108612438D02*
X184301583Y-108671961D01*
X184301583Y-108671961D02*
X184718249Y-108671961D01*
D10*
X160531011Y-100517438D02*
X160626249Y-100469819D01*
X160626249Y-100469819D02*
X160769106Y-100469819D01*
X160769106Y-100469819D02*
X160911963Y-100517438D01*
X160911963Y-100517438D02*
X161007201Y-100612676D01*
X161007201Y-100612676D02*
X161054820Y-100707914D01*
X161054820Y-100707914D02*
X161102439Y-100898390D01*
X161102439Y-100898390D02*
X161102439Y-101041247D01*
X161102439Y-101041247D02*
X161054820Y-101231723D01*
X161054820Y-101231723D02*
X161007201Y-101326961D01*
X161007201Y-101326961D02*
X160911963Y-101422200D01*
X160911963Y-101422200D02*
X160769106Y-101469819D01*
X160769106Y-101469819D02*
X160673868Y-101469819D01*
X160673868Y-101469819D02*
X160531011Y-101422200D01*
X160531011Y-101422200D02*
X160483392Y-101374580D01*
X160483392Y-101374580D02*
X160483392Y-101041247D01*
X160483392Y-101041247D02*
X160673868Y-101041247D01*
X160054820Y-101469819D02*
X160054820Y-100469819D01*
X160054820Y-100469819D02*
X159483392Y-101469819D01*
X159483392Y-101469819D02*
X159483392Y-100469819D01*
X159007201Y-101469819D02*
X159007201Y-100469819D01*
X159007201Y-100469819D02*
X158769106Y-100469819D01*
X158769106Y-100469819D02*
X158626249Y-100517438D01*
X158626249Y-100517438D02*
X158531011Y-100612676D01*
X158531011Y-100612676D02*
X158483392Y-100707914D01*
X158483392Y-100707914D02*
X158435773Y-100898390D01*
X158435773Y-100898390D02*
X158435773Y-101041247D01*
X158435773Y-101041247D02*
X158483392Y-101231723D01*
X158483392Y-101231723D02*
X158531011Y-101326961D01*
X158531011Y-101326961D02*
X158626249Y-101422200D01*
X158626249Y-101422200D02*
X158769106Y-101469819D01*
X158769106Y-101469819D02*
X159007201Y-101469819D01*
X102416150Y-94850009D02*
X102082817Y-94850009D01*
X101939960Y-95373819D02*
X102416150Y-95373819D01*
X102416150Y-95373819D02*
X102416150Y-94373819D01*
X102416150Y-94373819D02*
X101939960Y-94373819D01*
X177342630Y-51406861D02*
X177164058Y-51466385D01*
X177164058Y-51466385D02*
X177104535Y-51525909D01*
X177104535Y-51525909D02*
X177045011Y-51644957D01*
X177045011Y-51644957D02*
X177045011Y-51823528D01*
X177045011Y-51823528D02*
X177104535Y-51942576D01*
X177104535Y-51942576D02*
X177164058Y-52002100D01*
X177164058Y-52002100D02*
X177283106Y-52061623D01*
X177283106Y-52061623D02*
X177759296Y-52061623D01*
X177759296Y-52061623D02*
X177759296Y-50811623D01*
X177759296Y-50811623D02*
X177342630Y-50811623D01*
X177342630Y-50811623D02*
X177223582Y-50871147D01*
X177223582Y-50871147D02*
X177164058Y-50930671D01*
X177164058Y-50930671D02*
X177104535Y-51049719D01*
X177104535Y-51049719D02*
X177104535Y-51168766D01*
X177104535Y-51168766D02*
X177164058Y-51287814D01*
X177164058Y-51287814D02*
X177223582Y-51347338D01*
X177223582Y-51347338D02*
X177342630Y-51406861D01*
X177342630Y-51406861D02*
X177759296Y-51406861D01*
X176509296Y-51585433D02*
X175556916Y-51585433D01*
D11*
X179272383Y-106436761D02*
X179093811Y-106496285D01*
X179093811Y-106496285D02*
X179034288Y-106555809D01*
X179034288Y-106555809D02*
X178974764Y-106674857D01*
X178974764Y-106674857D02*
X178974764Y-106853428D01*
X178974764Y-106853428D02*
X179034288Y-106972476D01*
X179034288Y-106972476D02*
X179093811Y-107032000D01*
X179093811Y-107032000D02*
X179212859Y-107091523D01*
X179212859Y-107091523D02*
X179689049Y-107091523D01*
X179689049Y-107091523D02*
X179689049Y-105841523D01*
X179689049Y-105841523D02*
X179272383Y-105841523D01*
X179272383Y-105841523D02*
X179153335Y-105901047D01*
X179153335Y-105901047D02*
X179093811Y-105960571D01*
X179093811Y-105960571D02*
X179034288Y-106079619D01*
X179034288Y-106079619D02*
X179034288Y-106198666D01*
X179034288Y-106198666D02*
X179093811Y-106317714D01*
X179093811Y-106317714D02*
X179153335Y-106377238D01*
X179153335Y-106377238D02*
X179272383Y-106436761D01*
X179272383Y-106436761D02*
X179689049Y-106436761D01*
X184054764Y-129375276D02*
X184114288Y-129434800D01*
X184114288Y-129434800D02*
X184292859Y-129494323D01*
X184292859Y-129494323D02*
X184411907Y-129494323D01*
X184411907Y-129494323D02*
X184590478Y-129434800D01*
X184590478Y-129434800D02*
X184709526Y-129315752D01*
X184709526Y-129315752D02*
X184769049Y-129196704D01*
X184769049Y-129196704D02*
X184828573Y-128958609D01*
X184828573Y-128958609D02*
X184828573Y-128780038D01*
X184828573Y-128780038D02*
X184769049Y-128541942D01*
X184769049Y-128541942D02*
X184709526Y-128422895D01*
X184709526Y-128422895D02*
X184590478Y-128303847D01*
X184590478Y-128303847D02*
X184411907Y-128244323D01*
X184411907Y-128244323D02*
X184292859Y-128244323D01*
X184292859Y-128244323D02*
X184114288Y-128303847D01*
X184114288Y-128303847D02*
X184054764Y-128363371D01*
D10*
X175482011Y-116013419D02*
X176053439Y-116013419D01*
X175767725Y-116013419D02*
X175767725Y-115013419D01*
X175767725Y-115013419D02*
X175862963Y-115156276D01*
X175862963Y-115156276D02*
X175958201Y-115251514D01*
X175958201Y-115251514D02*
X176053439Y-115299133D01*
X174339154Y-114965800D02*
X175196296Y-116251514D01*
X173577249Y-115346752D02*
X173577249Y-116013419D01*
X173815344Y-114965800D02*
X174053439Y-115680085D01*
X174053439Y-115680085D02*
X173434392Y-115680085D01*
X172339153Y-115965800D02*
X172243915Y-116013419D01*
X172243915Y-116013419D02*
X172053439Y-116013419D01*
X172053439Y-116013419D02*
X171958201Y-115965800D01*
X171958201Y-115965800D02*
X171910582Y-115870561D01*
X171910582Y-115870561D02*
X171910582Y-115822942D01*
X171910582Y-115822942D02*
X171958201Y-115727704D01*
X171958201Y-115727704D02*
X172053439Y-115680085D01*
X172053439Y-115680085D02*
X172196296Y-115680085D01*
X172196296Y-115680085D02*
X172291534Y-115632466D01*
X172291534Y-115632466D02*
X172339153Y-115537228D01*
X172339153Y-115537228D02*
X172339153Y-115489609D01*
X172339153Y-115489609D02*
X172291534Y-115394371D01*
X172291534Y-115394371D02*
X172196296Y-115346752D01*
X172196296Y-115346752D02*
X172053439Y-115346752D01*
X172053439Y-115346752D02*
X171958201Y-115394371D01*
X171624867Y-115346752D02*
X171243915Y-115346752D01*
X171482010Y-115013419D02*
X171482010Y-115870561D01*
X171482010Y-115870561D02*
X171434391Y-115965800D01*
X171434391Y-115965800D02*
X171339153Y-116013419D01*
X171339153Y-116013419D02*
X171243915Y-116013419D01*
X170529629Y-115965800D02*
X170624867Y-116013419D01*
X170624867Y-116013419D02*
X170815343Y-116013419D01*
X170815343Y-116013419D02*
X170910581Y-115965800D01*
X170910581Y-115965800D02*
X170958200Y-115870561D01*
X170958200Y-115870561D02*
X170958200Y-115489609D01*
X170958200Y-115489609D02*
X170910581Y-115394371D01*
X170910581Y-115394371D02*
X170815343Y-115346752D01*
X170815343Y-115346752D02*
X170624867Y-115346752D01*
X170624867Y-115346752D02*
X170529629Y-115394371D01*
X170529629Y-115394371D02*
X170482010Y-115489609D01*
X170482010Y-115489609D02*
X170482010Y-115584847D01*
X170482010Y-115584847D02*
X170958200Y-115680085D01*
X170053438Y-115346752D02*
X170053438Y-116346752D01*
X170053438Y-115394371D02*
X169958200Y-115346752D01*
X169958200Y-115346752D02*
X169767724Y-115346752D01*
X169767724Y-115346752D02*
X169672486Y-115394371D01*
X169672486Y-115394371D02*
X169624867Y-115441990D01*
X169624867Y-115441990D02*
X169577248Y-115537228D01*
X169577248Y-115537228D02*
X169577248Y-115822942D01*
X169577248Y-115822942D02*
X169624867Y-115918180D01*
X169624867Y-115918180D02*
X169672486Y-115965800D01*
X169672486Y-115965800D02*
X169767724Y-116013419D01*
X169767724Y-116013419D02*
X169958200Y-116013419D01*
X169958200Y-116013419D02*
X170053438Y-115965800D01*
D11*
X179638249Y-127259123D02*
X179638249Y-126009123D01*
X179638249Y-126009123D02*
X179340630Y-126009123D01*
X179340630Y-126009123D02*
X179162059Y-126068647D01*
X179162059Y-126068647D02*
X179043011Y-126187695D01*
X179043011Y-126187695D02*
X178983488Y-126306742D01*
X178983488Y-126306742D02*
X178923964Y-126544838D01*
X178923964Y-126544838D02*
X178923964Y-126723409D01*
X178923964Y-126723409D02*
X178983488Y-126961504D01*
X178983488Y-126961504D02*
X179043011Y-127080552D01*
X179043011Y-127080552D02*
X179162059Y-127199600D01*
X179162059Y-127199600D02*
X179340630Y-127259123D01*
X179340630Y-127259123D02*
X179638249Y-127259123D01*
D10*
X197881761Y-99418611D02*
X197929380Y-99513849D01*
X197929380Y-99513849D02*
X197929380Y-99656706D01*
X197929380Y-99656706D02*
X197881761Y-99799563D01*
X197881761Y-99799563D02*
X197786523Y-99894801D01*
X197786523Y-99894801D02*
X197691285Y-99942420D01*
X197691285Y-99942420D02*
X197500809Y-99990039D01*
X197500809Y-99990039D02*
X197357952Y-99990039D01*
X197357952Y-99990039D02*
X197167476Y-99942420D01*
X197167476Y-99942420D02*
X197072238Y-99894801D01*
X197072238Y-99894801D02*
X196977000Y-99799563D01*
X196977000Y-99799563D02*
X196929380Y-99656706D01*
X196929380Y-99656706D02*
X196929380Y-99561468D01*
X196929380Y-99561468D02*
X196977000Y-99418611D01*
X196977000Y-99418611D02*
X197024619Y-99370992D01*
X197024619Y-99370992D02*
X197357952Y-99370992D01*
X197357952Y-99370992D02*
X197357952Y-99561468D01*
X196929380Y-98942420D02*
X197929380Y-98942420D01*
X197929380Y-98942420D02*
X196929380Y-98370992D01*
X196929380Y-98370992D02*
X197929380Y-98370992D01*
X196929380Y-97894801D02*
X197929380Y-97894801D01*
X197929380Y-97894801D02*
X197929380Y-97656706D01*
X197929380Y-97656706D02*
X197881761Y-97513849D01*
X197881761Y-97513849D02*
X197786523Y-97418611D01*
X197786523Y-97418611D02*
X197691285Y-97370992D01*
X197691285Y-97370992D02*
X197500809Y-97323373D01*
X197500809Y-97323373D02*
X197357952Y-97323373D01*
X197357952Y-97323373D02*
X197167476Y-97370992D01*
X197167476Y-97370992D02*
X197072238Y-97418611D01*
X197072238Y-97418611D02*
X196977000Y-97513849D01*
X196977000Y-97513849D02*
X196929380Y-97656706D01*
X196929380Y-97656706D02*
X196929380Y-97894801D01*
X152603030Y-51406861D02*
X152424458Y-51466385D01*
X152424458Y-51466385D02*
X152364935Y-51525909D01*
X152364935Y-51525909D02*
X152305411Y-51644957D01*
X152305411Y-51644957D02*
X152305411Y-51823528D01*
X152305411Y-51823528D02*
X152364935Y-51942576D01*
X152364935Y-51942576D02*
X152424458Y-52002100D01*
X152424458Y-52002100D02*
X152543506Y-52061623D01*
X152543506Y-52061623D02*
X153019696Y-52061623D01*
X153019696Y-52061623D02*
X153019696Y-50811623D01*
X153019696Y-50811623D02*
X152603030Y-50811623D01*
X152603030Y-50811623D02*
X152483982Y-50871147D01*
X152483982Y-50871147D02*
X152424458Y-50930671D01*
X152424458Y-50930671D02*
X152364935Y-51049719D01*
X152364935Y-51049719D02*
X152364935Y-51168766D01*
X152364935Y-51168766D02*
X152424458Y-51287814D01*
X152424458Y-51287814D02*
X152483982Y-51347338D01*
X152483982Y-51347338D02*
X152603030Y-51406861D01*
X152603030Y-51406861D02*
X153019696Y-51406861D01*
X151769696Y-51585433D02*
X150817316Y-51585433D01*
X194900344Y-130137019D02*
X194709868Y-130137019D01*
X194709868Y-130137019D02*
X194614630Y-130184638D01*
X194614630Y-130184638D02*
X194519392Y-130279876D01*
X194519392Y-130279876D02*
X194471773Y-130470352D01*
X194471773Y-130470352D02*
X194471773Y-130803685D01*
X194471773Y-130803685D02*
X194519392Y-130994161D01*
X194519392Y-130994161D02*
X194614630Y-131089400D01*
X194614630Y-131089400D02*
X194709868Y-131137019D01*
X194709868Y-131137019D02*
X194900344Y-131137019D01*
X194900344Y-131137019D02*
X194995582Y-131089400D01*
X194995582Y-131089400D02*
X195090820Y-130994161D01*
X195090820Y-130994161D02*
X195138439Y-130803685D01*
X195138439Y-130803685D02*
X195138439Y-130470352D01*
X195138439Y-130470352D02*
X195090820Y-130279876D01*
X195090820Y-130279876D02*
X194995582Y-130184638D01*
X194995582Y-130184638D02*
X194900344Y-130137019D01*
X194043201Y-130137019D02*
X194043201Y-130946542D01*
X194043201Y-130946542D02*
X193995582Y-131041780D01*
X193995582Y-131041780D02*
X193947963Y-131089400D01*
X193947963Y-131089400D02*
X193852725Y-131137019D01*
X193852725Y-131137019D02*
X193662249Y-131137019D01*
X193662249Y-131137019D02*
X193567011Y-131089400D01*
X193567011Y-131089400D02*
X193519392Y-131041780D01*
X193519392Y-131041780D02*
X193471773Y-130946542D01*
X193471773Y-130946542D02*
X193471773Y-130137019D01*
X193138439Y-130137019D02*
X192567011Y-130137019D01*
X192852725Y-131137019D02*
X192852725Y-130137019D01*
X121789819Y-136809773D02*
X121742200Y-136845487D01*
X121742200Y-136845487D02*
X121694580Y-136952630D01*
X121694580Y-136952630D02*
X121694580Y-137024058D01*
X121694580Y-137024058D02*
X121742200Y-137131201D01*
X121742200Y-137131201D02*
X121837438Y-137202630D01*
X121837438Y-137202630D02*
X121932676Y-137238344D01*
X121932676Y-137238344D02*
X122123152Y-137274058D01*
X122123152Y-137274058D02*
X122266009Y-137274058D01*
X122266009Y-137274058D02*
X122456485Y-137238344D01*
X122456485Y-137238344D02*
X122551723Y-137202630D01*
X122551723Y-137202630D02*
X122646961Y-137131201D01*
X122646961Y-137131201D02*
X122694580Y-137024058D01*
X122694580Y-137024058D02*
X122694580Y-136952630D01*
X122694580Y-136952630D02*
X122646961Y-136845487D01*
X122646961Y-136845487D02*
X122599342Y-136809773D01*
X121742200Y-136524058D02*
X121694580Y-136416916D01*
X121694580Y-136416916D02*
X121694580Y-136238344D01*
X121694580Y-136238344D02*
X121742200Y-136166916D01*
X121742200Y-136166916D02*
X121789819Y-136131201D01*
X121789819Y-136131201D02*
X121885057Y-136095487D01*
X121885057Y-136095487D02*
X121980295Y-136095487D01*
X121980295Y-136095487D02*
X122075533Y-136131201D01*
X122075533Y-136131201D02*
X122123152Y-136166916D01*
X122123152Y-136166916D02*
X122170771Y-136238344D01*
X122170771Y-136238344D02*
X122218390Y-136381201D01*
X122218390Y-136381201D02*
X122266009Y-136452630D01*
X122266009Y-136452630D02*
X122313628Y-136488344D01*
X122313628Y-136488344D02*
X122408866Y-136524058D01*
X122408866Y-136524058D02*
X122504104Y-136524058D01*
X122504104Y-136524058D02*
X122599342Y-136488344D01*
X122599342Y-136488344D02*
X122646961Y-136452630D01*
X122646961Y-136452630D02*
X122694580Y-136381201D01*
X122694580Y-136381201D02*
X122694580Y-136202630D01*
X122694580Y-136202630D02*
X122646961Y-136095487D01*
X160950039Y-98983800D02*
X160807182Y-99031419D01*
X160807182Y-99031419D02*
X160569087Y-99031419D01*
X160569087Y-99031419D02*
X160473849Y-98983800D01*
X160473849Y-98983800D02*
X160426230Y-98936180D01*
X160426230Y-98936180D02*
X160378611Y-98840942D01*
X160378611Y-98840942D02*
X160378611Y-98745704D01*
X160378611Y-98745704D02*
X160426230Y-98650466D01*
X160426230Y-98650466D02*
X160473849Y-98602847D01*
X160473849Y-98602847D02*
X160569087Y-98555228D01*
X160569087Y-98555228D02*
X160759563Y-98507609D01*
X160759563Y-98507609D02*
X160854801Y-98459990D01*
X160854801Y-98459990D02*
X160902420Y-98412371D01*
X160902420Y-98412371D02*
X160950039Y-98317133D01*
X160950039Y-98317133D02*
X160950039Y-98221895D01*
X160950039Y-98221895D02*
X160902420Y-98126657D01*
X160902420Y-98126657D02*
X160854801Y-98079038D01*
X160854801Y-98079038D02*
X160759563Y-98031419D01*
X160759563Y-98031419D02*
X160521468Y-98031419D01*
X160521468Y-98031419D02*
X160378611Y-98079038D01*
X159950039Y-99031419D02*
X159950039Y-98031419D01*
X158950040Y-98079038D02*
X159045278Y-98031419D01*
X159045278Y-98031419D02*
X159188135Y-98031419D01*
X159188135Y-98031419D02*
X159330992Y-98079038D01*
X159330992Y-98079038D02*
X159426230Y-98174276D01*
X159426230Y-98174276D02*
X159473849Y-98269514D01*
X159473849Y-98269514D02*
X159521468Y-98459990D01*
X159521468Y-98459990D02*
X159521468Y-98602847D01*
X159521468Y-98602847D02*
X159473849Y-98793323D01*
X159473849Y-98793323D02*
X159426230Y-98888561D01*
X159426230Y-98888561D02*
X159330992Y-98983800D01*
X159330992Y-98983800D02*
X159188135Y-99031419D01*
X159188135Y-99031419D02*
X159092897Y-99031419D01*
X159092897Y-99031419D02*
X158950040Y-98983800D01*
X158950040Y-98983800D02*
X158902421Y-98936180D01*
X158902421Y-98936180D02*
X158902421Y-98602847D01*
X158902421Y-98602847D02*
X159092897Y-98602847D01*
X176107420Y-111492219D02*
X176107420Y-110492219D01*
X176107420Y-110492219D02*
X175535992Y-111492219D01*
X175535992Y-111492219D02*
X175535992Y-110492219D01*
X174488373Y-111396980D02*
X174535992Y-111444600D01*
X174535992Y-111444600D02*
X174678849Y-111492219D01*
X174678849Y-111492219D02*
X174774087Y-111492219D01*
X174774087Y-111492219D02*
X174916944Y-111444600D01*
X174916944Y-111444600D02*
X175012182Y-111349361D01*
X175012182Y-111349361D02*
X175059801Y-111254123D01*
X175059801Y-111254123D02*
X175107420Y-111063647D01*
X175107420Y-111063647D02*
X175107420Y-110920790D01*
X175107420Y-110920790D02*
X175059801Y-110730314D01*
X175059801Y-110730314D02*
X175012182Y-110635076D01*
X175012182Y-110635076D02*
X174916944Y-110539838D01*
X174916944Y-110539838D02*
X174774087Y-110492219D01*
X174774087Y-110492219D02*
X174678849Y-110492219D01*
X174678849Y-110492219D02*
X174535992Y-110539838D01*
X174535992Y-110539838D02*
X174488373Y-110587457D01*
X172774087Y-111492219D02*
X173345515Y-111492219D01*
X173059801Y-111492219D02*
X173059801Y-110492219D01*
X173059801Y-110492219D02*
X173155039Y-110635076D01*
X173155039Y-110635076D02*
X173250277Y-110730314D01*
X173250277Y-110730314D02*
X173345515Y-110777933D01*
X171631230Y-110444600D02*
X172488372Y-111730314D01*
X171345515Y-110587457D02*
X171297896Y-110539838D01*
X171297896Y-110539838D02*
X171202658Y-110492219D01*
X171202658Y-110492219D02*
X170964563Y-110492219D01*
X170964563Y-110492219D02*
X170869325Y-110539838D01*
X170869325Y-110539838D02*
X170821706Y-110587457D01*
X170821706Y-110587457D02*
X170774087Y-110682695D01*
X170774087Y-110682695D02*
X170774087Y-110777933D01*
X170774087Y-110777933D02*
X170821706Y-110920790D01*
X170821706Y-110920790D02*
X171393134Y-111492219D01*
X171393134Y-111492219D02*
X170774087Y-111492219D01*
X169631229Y-111444600D02*
X169535991Y-111492219D01*
X169535991Y-111492219D02*
X169345515Y-111492219D01*
X169345515Y-111492219D02*
X169250277Y-111444600D01*
X169250277Y-111444600D02*
X169202658Y-111349361D01*
X169202658Y-111349361D02*
X169202658Y-111301742D01*
X169202658Y-111301742D02*
X169250277Y-111206504D01*
X169250277Y-111206504D02*
X169345515Y-111158885D01*
X169345515Y-111158885D02*
X169488372Y-111158885D01*
X169488372Y-111158885D02*
X169583610Y-111111266D01*
X169583610Y-111111266D02*
X169631229Y-111016028D01*
X169631229Y-111016028D02*
X169631229Y-110968409D01*
X169631229Y-110968409D02*
X169583610Y-110873171D01*
X169583610Y-110873171D02*
X169488372Y-110825552D01*
X169488372Y-110825552D02*
X169345515Y-110825552D01*
X169345515Y-110825552D02*
X169250277Y-110873171D01*
X168916943Y-110825552D02*
X168535991Y-110825552D01*
X168774086Y-110492219D02*
X168774086Y-111349361D01*
X168774086Y-111349361D02*
X168726467Y-111444600D01*
X168726467Y-111444600D02*
X168631229Y-111492219D01*
X168631229Y-111492219D02*
X168535991Y-111492219D01*
X167821705Y-111444600D02*
X167916943Y-111492219D01*
X167916943Y-111492219D02*
X168107419Y-111492219D01*
X168107419Y-111492219D02*
X168202657Y-111444600D01*
X168202657Y-111444600D02*
X168250276Y-111349361D01*
X168250276Y-111349361D02*
X168250276Y-110968409D01*
X168250276Y-110968409D02*
X168202657Y-110873171D01*
X168202657Y-110873171D02*
X168107419Y-110825552D01*
X168107419Y-110825552D02*
X167916943Y-110825552D01*
X167916943Y-110825552D02*
X167821705Y-110873171D01*
X167821705Y-110873171D02*
X167774086Y-110968409D01*
X167774086Y-110968409D02*
X167774086Y-111063647D01*
X167774086Y-111063647D02*
X168250276Y-111158885D01*
X167345514Y-110825552D02*
X167345514Y-111825552D01*
X167345514Y-110873171D02*
X167250276Y-110825552D01*
X167250276Y-110825552D02*
X167059800Y-110825552D01*
X167059800Y-110825552D02*
X166964562Y-110873171D01*
X166964562Y-110873171D02*
X166916943Y-110920790D01*
X166916943Y-110920790D02*
X166869324Y-111016028D01*
X166869324Y-111016028D02*
X166869324Y-111301742D01*
X166869324Y-111301742D02*
X166916943Y-111396980D01*
X166916943Y-111396980D02*
X166964562Y-111444600D01*
X166964562Y-111444600D02*
X167059800Y-111492219D01*
X167059800Y-111492219D02*
X167250276Y-111492219D01*
X167250276Y-111492219D02*
X167345514Y-111444600D01*
D11*
X184301583Y-122133961D02*
X184123011Y-122193485D01*
X184123011Y-122193485D02*
X184063488Y-122253009D01*
X184063488Y-122253009D02*
X184003964Y-122372057D01*
X184003964Y-122372057D02*
X184003964Y-122550628D01*
X184003964Y-122550628D02*
X184063488Y-122669676D01*
X184063488Y-122669676D02*
X184123011Y-122729200D01*
X184123011Y-122729200D02*
X184242059Y-122788723D01*
X184242059Y-122788723D02*
X184718249Y-122788723D01*
X184718249Y-122788723D02*
X184718249Y-121538723D01*
X184718249Y-121538723D02*
X184301583Y-121538723D01*
X184301583Y-121538723D02*
X184182535Y-121598247D01*
X184182535Y-121598247D02*
X184123011Y-121657771D01*
X184123011Y-121657771D02*
X184063488Y-121776819D01*
X184063488Y-121776819D02*
X184063488Y-121895866D01*
X184063488Y-121895866D02*
X184123011Y-122014914D01*
X184123011Y-122014914D02*
X184182535Y-122074438D01*
X184182535Y-122074438D02*
X184301583Y-122133961D01*
X184301583Y-122133961D02*
X184718249Y-122133961D01*
D10*
X105806419Y-126630133D02*
X105330228Y-126296800D01*
X105806419Y-126058705D02*
X104806419Y-126058705D01*
X104806419Y-126058705D02*
X104806419Y-126439657D01*
X104806419Y-126439657D02*
X104854038Y-126534895D01*
X104854038Y-126534895D02*
X104901657Y-126582514D01*
X104901657Y-126582514D02*
X104996895Y-126630133D01*
X104996895Y-126630133D02*
X105139752Y-126630133D01*
X105139752Y-126630133D02*
X105234990Y-126582514D01*
X105234990Y-126582514D02*
X105282609Y-126534895D01*
X105282609Y-126534895D02*
X105330228Y-126439657D01*
X105330228Y-126439657D02*
X105330228Y-126058705D01*
X104806419Y-127249181D02*
X104806419Y-127344419D01*
X104806419Y-127344419D02*
X104854038Y-127439657D01*
X104854038Y-127439657D02*
X104901657Y-127487276D01*
X104901657Y-127487276D02*
X104996895Y-127534895D01*
X104996895Y-127534895D02*
X105187371Y-127582514D01*
X105187371Y-127582514D02*
X105425466Y-127582514D01*
X105425466Y-127582514D02*
X105615942Y-127534895D01*
X105615942Y-127534895D02*
X105711180Y-127487276D01*
X105711180Y-127487276D02*
X105758800Y-127439657D01*
X105758800Y-127439657D02*
X105806419Y-127344419D01*
X105806419Y-127344419D02*
X105806419Y-127249181D01*
X105806419Y-127249181D02*
X105758800Y-127153943D01*
X105758800Y-127153943D02*
X105711180Y-127106324D01*
X105711180Y-127106324D02*
X105615942Y-127058705D01*
X105615942Y-127058705D02*
X105425466Y-127011086D01*
X105425466Y-127011086D02*
X105187371Y-127011086D01*
X105187371Y-127011086D02*
X104996895Y-127058705D01*
X104996895Y-127058705D02*
X104901657Y-127106324D01*
X104901657Y-127106324D02*
X104854038Y-127153943D01*
X104854038Y-127153943D02*
X104806419Y-127249181D01*
D13*
X107304100Y-126559542D02*
X107304100Y-127034058D01*
X106259100Y-126559542D02*
X106259100Y-127034058D01*
%LPC*%
D14*
X127152400Y-141986000D03*
D15*
X124652400Y-141986000D03*
X122152400Y-141986000D03*
D16*
X194513400Y-98704400D03*
D17*
X194513400Y-93704400D03*
D14*
X188712800Y-142003000D03*
D15*
X186212800Y-142003000D03*
X183712800Y-142003000D03*
X181212800Y-142003000D03*
D18*
X112000000Y-54000000D03*
D19*
X115500000Y-54000000D03*
X119000000Y-54000000D03*
X122500000Y-54000000D03*
D20*
X154560000Y-87500000D03*
D21*
X152020000Y-87500000D03*
X154560000Y-84960000D03*
X152020000Y-84960000D03*
X154560000Y-82420000D03*
X152020000Y-82420000D03*
X154560000Y-79880000D03*
X152020000Y-79880000D03*
D22*
X146822800Y-141986000D03*
D23*
X144322800Y-141986000D03*
D24*
X194451600Y-119075200D03*
D23*
X196951600Y-119075200D03*
D20*
X145907061Y-124927690D03*
D21*
X148447061Y-124927690D03*
D25*
X196000000Y-141000000D03*
D20*
X141750000Y-87500000D03*
D21*
X139210000Y-87500000D03*
X141750000Y-84960000D03*
X139210000Y-84960000D03*
X141750000Y-82420000D03*
X139210000Y-82420000D03*
X141750000Y-79880000D03*
X139210000Y-79880000D03*
D26*
X129250000Y-101000000D03*
D27*
X129250000Y-98500000D03*
X129250000Y-96000000D03*
D24*
X194451600Y-105206800D03*
D23*
X196951600Y-105206800D03*
D20*
X123000000Y-87500000D03*
D21*
X120460000Y-87500000D03*
X123000000Y-84960000D03*
X120460000Y-84960000D03*
X123000000Y-82420000D03*
X120460000Y-82420000D03*
X123000000Y-79880000D03*
X120460000Y-79880000D03*
D24*
X194449875Y-132875800D03*
D23*
X196949875Y-132875800D03*
D20*
X111500000Y-128000000D03*
D28*
X111500000Y-125500000D03*
X109500000Y-125500000D03*
X109500000Y-128000000D03*
D29*
X106790000Y-132770000D03*
X106790000Y-120730000D03*
D20*
X122159000Y-132040200D03*
D21*
X122159000Y-134580200D03*
X119619000Y-132040200D03*
X119619000Y-134580200D03*
X117079000Y-132040200D03*
X117079000Y-134580200D03*
D18*
X136750000Y-54000000D03*
D19*
X140250000Y-54000000D03*
X143750000Y-54000000D03*
X147250000Y-54000000D03*
D26*
X122500000Y-101000000D03*
D27*
X122500000Y-98500000D03*
X122500000Y-96000000D03*
D20*
X179560000Y-87500000D03*
D21*
X177020000Y-87500000D03*
X179560000Y-84960000D03*
X177020000Y-84960000D03*
X179560000Y-82420000D03*
X177020000Y-82420000D03*
X179560000Y-79880000D03*
X177020000Y-79880000D03*
D25*
X104000000Y-141000000D03*
D20*
X148000000Y-87500000D03*
D21*
X145460000Y-87500000D03*
X148000000Y-84960000D03*
X145460000Y-84960000D03*
X148000000Y-82420000D03*
X145460000Y-82420000D03*
X148000000Y-79880000D03*
X145460000Y-79880000D03*
D18*
X152750000Y-54000000D03*
D19*
X156250000Y-54000000D03*
X159750000Y-54000000D03*
X163250000Y-54000000D03*
D14*
X138226800Y-141986000D03*
D15*
X135726800Y-141986000D03*
X133226800Y-141986000D03*
D20*
X103784400Y-102463600D03*
D21*
X103784400Y-99923600D03*
X103784400Y-97383600D03*
X103784400Y-94843600D03*
D18*
X177500000Y-54000000D03*
D19*
X181000000Y-54000000D03*
X184500000Y-54000000D03*
X188000000Y-54000000D03*
D22*
X175096800Y-141969200D03*
D23*
X172596800Y-141969200D03*
D20*
X160810000Y-87500000D03*
D21*
X158270000Y-87500000D03*
X160810000Y-84960000D03*
X158270000Y-84960000D03*
X160810000Y-82420000D03*
X158270000Y-82420000D03*
X160810000Y-79880000D03*
X158270000Y-79880000D03*
D26*
X136000000Y-101000000D03*
D27*
X136000000Y-98500000D03*
X136000000Y-96000000D03*
D20*
X148462910Y-128539430D03*
D21*
X145922910Y-128539430D03*
D25*
X196000000Y-54000000D03*
X104000000Y-54000000D03*
D24*
X194451600Y-112115600D03*
D23*
X196951600Y-112115600D03*
D26*
X156250000Y-101000000D03*
D27*
X156250000Y-98500000D03*
X156250000Y-96000000D03*
D14*
X116078000Y-141986000D03*
D15*
X113578000Y-141986000D03*
X111078000Y-141986000D03*
D26*
X149500000Y-101000000D03*
D27*
X149500000Y-98500000D03*
X149500000Y-96000000D03*
D26*
X109000000Y-101000000D03*
D27*
X109000000Y-98500000D03*
X109000000Y-96000000D03*
D26*
X142750000Y-101000000D03*
D27*
X142750000Y-98500000D03*
X142750000Y-96000000D03*
D20*
X116750000Y-87500000D03*
D21*
X114210000Y-87500000D03*
X116750000Y-84960000D03*
X114210000Y-84960000D03*
X116750000Y-82420000D03*
X114210000Y-82420000D03*
X116750000Y-79880000D03*
X114210000Y-79880000D03*
D26*
X115750000Y-101000000D03*
D27*
X115750000Y-98500000D03*
X115750000Y-96000000D03*
D24*
X194451600Y-125984000D03*
D23*
X196951600Y-125984000D03*
D20*
X185810000Y-87500000D03*
D21*
X183270000Y-87500000D03*
X185810000Y-84960000D03*
X183270000Y-84960000D03*
X185810000Y-82420000D03*
X183270000Y-82420000D03*
X185810000Y-79880000D03*
X183270000Y-79880000D03*
D30*
X106781600Y-125971800D03*
X106781600Y-127621800D03*
%LPD*%
M02*
