M48
; DRILL file {KiCad 7.0.8} date Sat Nov 23 18:49:31 2024
; FORMAT={-:-/ absolute / metric / decimal}
; #@! TF.CreationDate,2024-11-23T18:49:31+01:00
; #@! TF.GenerationSoftware,Kicad,Pcbnew,7.0.8
; #@! TF.FileFunction,Plated,1,4,PTH
FMAT,2
METRIC
; #@! TA.AperFunction,Plated,PTH,ViaDrill
T1C0.300
; #@! TA.AperFunction,Plated,PTH,ComponentDrill
T2C0.920
; #@! TA.AperFunction,Plated,PTH,ComponentDrill
T3C0.950
; #@! TA.AperFunction,Plated,PTH,ComponentDrill
T4C1.000
; #@! TA.AperFunction,Plated,PTH,ComponentDrill
T5C1.200
; #@! TA.AperFunction,Plated,PTH,ComponentDrill
T6C1.300
; #@! TA.AperFunction,Plated,PTH,ComponentDrill
T7C2.330
; #@! TA.AperFunction,Plated,PTH,ComponentDrill
T8C3.500
%
G90
G05
T1
X100.94Y-71.476
X101.092Y-103.276
X101.092Y-106.731
X101.092Y-116.332
X101.498Y-71.476
X101.752Y-115.214
X102.057Y-71.476
X102.616Y-71.476
X103.022Y-114.808
X104.445Y-82.855
X105.004Y-61.773
X105.562Y-61.773
X105.766Y-106.578
X105.918Y-114.656
X106.121Y-61.773
X106.426Y-84.988
X106.426Y-87.02
X106.578Y-116.281
X106.604Y-106.633
X106.68Y-61.773
X106.832Y-71.476
X107.239Y-61.773
X107.391Y-71.476
X107.798Y-61.773
X107.95Y-71.476
X108.356Y-61.773
X108.509Y-71.476
X108.509Y-114.808
X108.61Y-84.023
X108.61Y-86.004
X108.61Y-87.986
X108.763Y-75.032
X108.915Y-61.773
X109.474Y-61.773
X110.033Y-61.773
X110.744Y-73.508
X111.109Y-65.337
X111.109Y-66.062
X111.109Y-66.787
X111.109Y-67.512
X111.109Y-68.237
X111.109Y-68.962
X111.109Y-69.687
X111.252Y-106.629
X111.404Y-114.656
X111.834Y-65.337
X111.834Y-66.062
X111.834Y-66.787
X111.834Y-67.512
X111.834Y-68.237
X111.834Y-68.962
X111.834Y-69.687
X112.094Y-106.629
X112.11Y-116.281
X112.559Y-65.337
X112.559Y-66.062
X112.559Y-66.787
X112.559Y-67.512
X112.559Y-68.237
X112.559Y-68.962
X112.559Y-69.687
X112.776Y-74.27
X113.284Y-65.337
X113.284Y-66.062
X113.284Y-66.787
X113.284Y-67.512
X113.284Y-68.237
X113.284Y-68.962
X113.284Y-69.687
X113.995Y-114.808
X114.009Y-65.337
X114.009Y-66.062
X114.009Y-66.787
X114.009Y-67.512
X114.009Y-68.237
X114.009Y-68.962
X114.009Y-69.687
X114.3Y-125.374
X114.734Y-65.337
X114.734Y-66.062
X114.734Y-66.787
X114.734Y-67.512
X114.734Y-68.237
X114.734Y-68.962
X114.734Y-69.687
X114.808Y-75.082
X115.459Y-65.337
X115.459Y-66.062
X115.459Y-66.787
X115.459Y-67.512
X115.459Y-68.237
X115.459Y-68.962
X115.459Y-69.687
X116.184Y-65.337
X116.184Y-66.062
X116.184Y-66.787
X116.184Y-67.512
X116.184Y-68.237
X116.184Y-68.962
X116.184Y-69.687
X116.738Y-106.578
X116.909Y-65.337
X116.909Y-66.062
X116.909Y-66.787
X116.909Y-67.512
X116.909Y-68.237
X116.909Y-68.962
X116.909Y-69.687
X116.934Y-61.419
X116.937Y-62.036
X116.937Y-62.67
X116.942Y-114.656
X117.094Y-127.089
X117.5Y-90.983
X117.551Y-72.39
X117.57Y-61.423
X117.573Y-62.027
X117.573Y-62.656
X117.574Y-106.631
X117.602Y-116.281
X117.634Y-65.337
X117.634Y-66.062
X117.634Y-66.787
X117.634Y-67.512
X117.634Y-68.237
X117.634Y-68.962
X117.634Y-69.687
X118.192Y-72.542
X118.359Y-65.337
X118.359Y-66.062
X118.359Y-66.787
X118.359Y-67.512
X118.359Y-68.237
X118.359Y-68.962
X118.359Y-69.687
X118.77Y-73.457
X118.842Y-72.441
X119.084Y-65.337
X119.084Y-66.062
X119.084Y-66.787
X119.084Y-67.512
X119.084Y-68.237
X119.084Y-68.962
X119.084Y-69.687
X119.532Y-72.542
X119.532Y-114.808
X119.725Y-126.401
X119.736Y-75.946
X119.809Y-65.337
X119.809Y-66.062
X119.809Y-66.787
X119.809Y-67.512
X119.809Y-68.237
X119.809Y-68.962
X119.809Y-69.687
X120.193Y-72.39
X120.534Y-65.337
X120.534Y-66.062
X120.534Y-66.787
X120.534Y-67.512
X120.534Y-68.237
X120.534Y-68.962
X120.534Y-69.687
X120.752Y-124.663
X121.209Y-128.372
X121.259Y-65.337
X121.259Y-66.062
X121.259Y-66.787
X121.259Y-67.512
X121.259Y-68.237
X121.259Y-68.962
X121.259Y-69.687
X121.826Y-128.38
X121.971Y-72.492
X121.984Y-65.337
X121.984Y-66.062
X121.984Y-66.787
X121.984Y-67.512
X121.984Y-68.237
X121.984Y-68.962
X121.984Y-69.687
X122.326Y-106.578
X122.377Y-124.612
X122.428Y-114.656
X122.631Y-72.238
X122.709Y-65.337
X122.709Y-66.062
X122.709Y-66.787
X122.709Y-67.512
X122.709Y-68.237
X122.709Y-68.962
X122.709Y-69.687
X123.088Y-116.281
X123.101Y-106.619
X123.434Y-65.337
X123.434Y-66.062
X123.434Y-66.787
X123.434Y-67.512
X123.434Y-68.237
X123.434Y-68.962
X123.434Y-69.687
X123.495Y-60.909
X124.003Y-132.08
X124.054Y-60.909
X124.612Y-60.909
X125.019Y-114.859
X125.736Y-125.921
X126.086Y-59.69
X126.086Y-71.628
X126.644Y-59.69
X126.644Y-71.628
X126.644Y-133.401
X126.898Y-91.643
X127.051Y-116.84
X127.203Y-59.69
X127.203Y-71.628
X127.711Y-106.528
X127.762Y-59.69
X127.762Y-71.628
X127.914Y-114.673
X128.118Y-135.115
X128.168Y-133.96
X128.321Y-59.69
X128.604Y-106.621
X129.032Y-59.944
X129.337Y-131.013
X129.438Y-60.35
X129.489Y-82.753
X129.743Y-60.858
X129.743Y-61.57
X129.743Y-62.128
X129.946Y-131.826
X130.505Y-61.674
X130.556Y-136.246
X131.064Y-61.671
X131.236Y-119.215
X131.47Y-85.039
X131.47Y-87.071
X131.623Y-61.663
X131.826Y-71.628
X131.826Y-121.412
X131.877Y-136.246
X132.029Y-116.18
X132.041Y-116.775
X132.182Y-61.668
X132.385Y-71.628
X132.385Y-106.375
X132.74Y-61.663
X132.842Y-128.981
X132.944Y-71.628
X132.944Y-85.09
X132.944Y-87.122
X132.944Y-89.052
X133.299Y-61.659
X133.502Y-71.628
X133.502Y-134.823
X133.858Y-61.654
X134.163Y-129.743
X134.417Y-61.654
X134.933Y-105.899
X134.976Y-61.654
X135.001Y-128.905
X135.788Y-73.457
X135.992Y-125.882
X136.093Y-132.944
X136.096Y-65.34
X136.096Y-66.065
X136.096Y-66.79
X136.096Y-67.515
X136.096Y-68.24
X136.096Y-68.965
X136.096Y-69.69
X136.457Y-115.799
X136.821Y-65.34
X136.821Y-66.065
X136.821Y-66.79
X136.821Y-67.515
X136.821Y-68.24
X136.821Y-68.965
X136.821Y-69.69
X137.516Y-112.979
X137.546Y-65.34
X137.546Y-66.065
X137.546Y-66.79
X137.546Y-67.515
X137.546Y-68.24
X137.546Y-68.965
X137.546Y-69.69
X137.77Y-74.219
X138.141Y-123.612
X138.176Y-105.867
X138.271Y-65.34
X138.271Y-66.065
X138.271Y-66.79
X138.271Y-67.515
X138.271Y-68.24
X138.271Y-68.965
X138.271Y-69.69
X138.836Y-132.74
X138.989Y-135.839
X138.996Y-65.34
X138.996Y-66.065
X138.996Y-66.79
X138.996Y-67.515
X138.996Y-68.24
X138.996Y-68.965
X138.996Y-69.69
X139.04Y-104.699
X139.04Y-124.562
X139.298Y-130.987
X139.721Y-65.34
X139.721Y-66.065
X139.721Y-66.79
X139.721Y-67.515
X139.721Y-68.24
X139.721Y-68.965
X139.721Y-69.69
X139.751Y-115.824
X139.802Y-75.082
X139.948Y-133.69
X139.954Y-135.331
X140.446Y-65.34
X140.446Y-66.065
X140.446Y-66.79
X140.446Y-67.515
X140.446Y-68.24
X140.446Y-68.965
X140.446Y-69.69
X140.614Y-112.979
X141.171Y-65.34
X141.171Y-66.065
X141.171Y-66.79
X141.171Y-67.515
X141.171Y-68.24
X141.171Y-68.965
X141.171Y-69.69
X141.427Y-105.867
X141.46Y-126.078
X141.478Y-121.514
X141.896Y-65.34
X141.896Y-66.065
X141.896Y-66.79
X141.896Y-67.515
X141.896Y-68.24
X141.896Y-68.965
X141.896Y-69.69
X141.927Y-61.478
X141.931Y-62.062
X141.935Y-62.636
X142.291Y-104.699
X142.561Y-72.39
X142.564Y-61.482
X142.567Y-62.066
X142.57Y-62.641
X142.621Y-65.34
X142.621Y-66.065
X142.621Y-66.79
X142.621Y-67.515
X142.621Y-68.24
X142.621Y-68.965
X142.621Y-69.69
X142.687Y-127.203
X143.002Y-115.824
X143.205Y-72.593
X143.346Y-65.34
X143.346Y-66.065
X143.346Y-66.79
X143.346Y-67.515
X143.346Y-68.24
X143.346Y-68.965
X143.346Y-69.69
X143.582Y-130.797
X143.764Y-73.406
X143.827Y-72.39
X143.916Y-112.979
X144.071Y-65.34
X144.071Y-66.065
X144.071Y-66.79
X144.071Y-67.515
X144.071Y-68.24
X144.071Y-68.965
X144.071Y-69.69
X144.475Y-72.593
X144.678Y-105.867
X144.747Y-126.838
X144.78Y-75.794
X144.796Y-65.34
X144.796Y-66.065
X144.796Y-66.79
X144.796Y-67.515
X144.796Y-68.24
X144.796Y-68.965
X144.796Y-69.69
X145.136Y-72.39
X145.491Y-104.699
X145.521Y-65.34
X145.521Y-66.065
X145.521Y-66.79
X145.521Y-67.515
X145.521Y-68.24
X145.521Y-68.965
X145.521Y-69.69
X145.999Y-134.518
X146.205Y-115.798
X146.246Y-65.34
X146.246Y-66.065
X146.246Y-66.79
X146.246Y-67.515
X146.246Y-68.24
X146.246Y-68.965
X146.246Y-69.69
X146.971Y-65.34
X146.971Y-66.065
X146.971Y-66.79
X146.971Y-67.515
X146.971Y-68.24
X146.971Y-68.965
X146.971Y-69.69
X147.015Y-72.492
X147.117Y-112.979
X147.676Y-72.492
X147.696Y-65.34
X147.696Y-66.065
X147.696Y-66.79
X147.696Y-67.515
X147.696Y-68.24
X147.696Y-68.965
X147.696Y-69.69
X147.98Y-60.046
X147.98Y-60.604
X147.98Y-61.163
X148.421Y-65.34
X148.421Y-66.065
X148.421Y-66.79
X148.421Y-67.515
X148.421Y-68.24
X148.421Y-68.965
X148.421Y-69.69
X148.539Y-60.808
X149.098Y-60.808
X149.454Y-115.824
X149.657Y-60.808
X150.216Y-60.808
X150.266Y-121.158
X150.317Y-112.979
X150.317Y-131.064
X150.317Y-134.518
X150.317Y-137.77
X150.368Y-104.75
X150.571Y-78.486
X150.774Y-60.808
X151.333Y-127.356
X151.536Y-75.184
X151.598Y-65.325
X151.598Y-66.05
X151.598Y-66.775
X151.598Y-67.5
X151.598Y-68.225
X151.598Y-68.95
X151.598Y-69.675
X151.638Y-123.241
X152.323Y-65.325
X152.323Y-66.05
X152.323Y-66.775
X152.323Y-67.5
X152.323Y-68.225
X152.323Y-68.95
X152.323Y-69.675
X152.705Y-115.824
X152.756Y-142.697
X152.806Y-119.939
X152.806Y-123.342
X152.806Y-126.797
X152.806Y-130.404
X152.806Y-133.858
X152.806Y-137.312
X153.048Y-65.325
X153.048Y-66.05
X153.048Y-66.775
X153.048Y-67.5
X153.048Y-68.225
X153.048Y-68.95
X153.048Y-69.675
X153.467Y-73.66
X153.568Y-112.979
X153.619Y-104.75
X153.773Y-65.325
X153.773Y-66.05
X153.773Y-66.775
X153.773Y-67.5
X153.773Y-68.225
X153.773Y-68.95
X153.773Y-69.675
X154.498Y-65.325
X154.498Y-66.05
X154.498Y-66.775
X154.498Y-67.5
X154.498Y-68.225
X154.498Y-68.95
X154.498Y-69.675
X155.223Y-65.325
X155.223Y-66.05
X155.223Y-66.775
X155.223Y-67.5
X155.223Y-68.225
X155.223Y-68.95
X155.223Y-69.675
X155.397Y-77.368
X155.948Y-65.325
X155.948Y-66.05
X155.948Y-66.775
X155.948Y-67.5
X155.948Y-68.225
X155.948Y-68.95
X155.948Y-69.675
X155.956Y-115.824
X156.413Y-137.211
X156.413Y-140.767
X156.515Y-130.2
X156.566Y-133.706
X156.615Y-123.148
X156.616Y-126.644
X156.673Y-65.325
X156.673Y-66.05
X156.673Y-66.775
X156.673Y-67.5
X156.673Y-68.225
X156.673Y-68.95
X156.673Y-69.675
X156.769Y-112.979
X156.837Y-143.143
X156.87Y-104.75
X157.398Y-65.325
X157.398Y-66.05
X157.398Y-66.775
X157.398Y-67.5
X157.398Y-68.225
X157.398Y-68.95
X157.398Y-69.675
X157.429Y-62.033
X157.429Y-62.636
X157.429Y-72.339
X157.439Y-61.416
X157.531Y-75.082
X158.062Y-72.542
X158.07Y-62.027
X158.07Y-62.633
X158.075Y-61.42
X158.123Y-65.325
X158.123Y-66.05
X158.123Y-66.775
X158.123Y-67.5
X158.123Y-68.225
X158.123Y-68.95
X158.123Y-69.675
X158.242Y-119.177
X158.293Y-89.256
X158.699Y-72.441
X158.848Y-65.325
X158.848Y-66.05
X158.848Y-66.775
X158.848Y-67.5
X158.848Y-68.225
X158.848Y-68.95
X158.848Y-69.675
X159.335Y-72.593
X159.573Y-65.325
X159.573Y-66.05
X159.573Y-66.775
X159.573Y-67.5
X159.573Y-68.225
X159.573Y-68.95
X159.573Y-69.675
X159.969Y-72.441
X159.969Y-107.391
X159.969Y-107.95
X160.298Y-65.325
X160.298Y-66.05
X160.298Y-66.775
X160.298Y-67.5
X160.298Y-68.225
X160.298Y-68.95
X160.298Y-69.675
X160.506Y-74.218
X160.528Y-107.391
X160.528Y-107.95
X160.68Y-72.493
X161.023Y-65.325
X161.023Y-66.05
X161.023Y-66.775
X161.023Y-67.5
X161.023Y-68.225
X161.023Y-68.95
X161.023Y-69.675
X161.087Y-99.814
X161.087Y-107.391
X161.087Y-107.95
X161.748Y-65.325
X161.748Y-66.05
X161.748Y-66.775
X161.748Y-67.5
X161.748Y-68.225
X161.748Y-68.95
X161.748Y-69.675
X162.204Y-95.801
X162.473Y-65.325
X162.473Y-66.05
X162.473Y-66.775
X162.473Y-67.5
X162.473Y-68.225
X162.473Y-68.95
X162.512Y-70.107
X162.814Y-105.004
X162.814Y-105.562
X162.814Y-106.121
X162.814Y-106.68
X162.814Y-107.239
X162.995Y-74.235
X163.017Y-122.326
X163.017Y-126.187
X163.17Y-72.492
X163.198Y-65.325
X163.198Y-66.05
X163.198Y-66.775
X163.198Y-67.5
X163.198Y-68.225
X163.198Y-68.95
X163.198Y-69.675
X163.271Y-99.814
X163.923Y-65.325
X163.923Y-66.05
X163.923Y-66.775
X163.923Y-67.5
X163.923Y-68.225
X163.923Y-68.95
X163.923Y-69.675
X164.135Y-61.011
X164.389Y-95.801
X164.592Y-81.128
X164.694Y-61.011
X164.744Y-114.859
X164.795Y-140.767
X165.456Y-99.814
X165.506Y-102.667
X165.659Y-85.039
X165.659Y-87.071
X165.964Y-137.16
X166.116Y-144.424
X166.167Y-126.746
X166.268Y-77.114
X166.319Y-134.163
X166.421Y-59.893
X166.421Y-141.834
X166.827Y-71.577
X166.873Y-108.241
X166.873Y-108.991
X166.873Y-109.741
X166.873Y-110.491
X166.875Y-107.438
X166.879Y-106.821
X166.98Y-59.893
X167.132Y-84.879
X167.132Y-86.868
X167.132Y-88.9
X167.386Y-71.577
X167.386Y-80.264
X167.538Y-59.893
X167.538Y-118.872
X167.623Y-108.241
X167.623Y-108.991
X167.623Y-109.741
X167.623Y-110.491
X167.625Y-107.438
X167.629Y-106.821
X167.894Y-96.063
X167.894Y-96.622
X167.894Y-97.18
X167.945Y-71.577
X167.945Y-82.245
X168.097Y-59.893
X168.097Y-118.872
X168.373Y-108.241
X168.373Y-108.991
X168.373Y-109.741
X168.373Y-110.491
X168.375Y-107.438
X168.379Y-106.821
X168.453Y-96.063
X168.453Y-96.622
X168.453Y-97.18
X168.504Y-71.577
X168.656Y-59.893
X168.656Y-118.872
X168.671Y-92.958
X168.671Y-93.558
X168.671Y-94.158
X169.215Y-59.893
X169.215Y-118.872
X169.367Y-137.77
X169.421Y-92.958
X169.421Y-93.558
X169.421Y-94.158
X169.57Y-132.639
X169.57Y-136.144
X169.723Y-125.628
X169.774Y-118.872
X169.787Y-129.437
X169.875Y-122.174
X170.171Y-92.958
X170.171Y-93.558
X170.171Y-94.158
X170.282Y-61.214
X170.282Y-61.773
X170.332Y-118.872
X170.434Y-140.36
X170.536Y-82.855
X170.663Y-114.96
X170.84Y-61.773
X170.891Y-118.872
X170.921Y-92.958
X170.921Y-93.558
X170.921Y-94.158
X171.399Y-61.773
X171.45Y-118.872
X171.602Y-110.033
X171.602Y-111.303
X171.671Y-92.958
X171.671Y-93.558
X171.671Y-94.158
X171.704Y-137.262
X171.907Y-96.063
X171.907Y-96.622
X171.907Y-97.18
X171.958Y-61.773
X172.009Y-71.577
X172.009Y-118.872
X172.466Y-96.063
X172.466Y-96.622
X172.466Y-97.18
X172.517Y-61.773
X172.568Y-71.577
X172.822Y-102.819
X172.822Y-103.378
X173.076Y-61.773
X173.078Y-126.867
X173.126Y-71.577
X173.38Y-102.819
X173.38Y-103.378
X173.634Y-61.773
X173.677Y-99.863
X173.685Y-71.577
X173.939Y-102.819
X173.939Y-103.378
X174.193Y-61.773
X174.252Y-99.863
X174.453Y-127.75
X174.752Y-61.773
X174.846Y-99.863
X175.063Y-127.75
X175.209Y-131.812
X175.311Y-61.773
X175.311Y-134.657
X175.565Y-78.537
X175.672Y-127.75
X176.586Y-65.32
X176.586Y-66.045
X176.586Y-66.77
X176.586Y-67.495
X176.586Y-68.22
X176.586Y-68.945
X176.586Y-69.67
X177.089Y-138.278
X177.311Y-65.32
X177.311Y-66.045
X177.311Y-66.77
X177.311Y-67.495
X177.311Y-68.22
X177.311Y-68.945
X177.311Y-69.67
X177.546Y-131.775
X178.036Y-65.32
X178.036Y-66.045
X178.036Y-66.77
X178.036Y-67.495
X178.036Y-68.22
X178.036Y-68.945
X178.036Y-69.67
X178.156Y-141.935
X178.308Y-86.208
X178.46Y-73.609
X178.761Y-65.32
X178.761Y-66.045
X178.761Y-66.77
X178.761Y-67.495
X178.761Y-68.22
X178.761Y-68.945
X178.761Y-69.67
X179.486Y-65.32
X179.486Y-66.045
X179.486Y-66.77
X179.486Y-67.495
X179.486Y-68.22
X179.486Y-68.945
X179.486Y-69.67
X179.547Y-126.911
X180.211Y-65.32
X180.211Y-66.045
X180.211Y-66.77
X180.211Y-67.495
X180.211Y-68.22
X180.211Y-68.945
X180.211Y-69.67
X180.391Y-77.572
X180.903Y-127.799
X180.936Y-65.32
X180.936Y-66.045
X180.936Y-66.77
X180.936Y-67.495
X180.936Y-68.22
X180.936Y-68.945
X180.936Y-69.67
X181.254Y-133.996
X181.513Y-127.799
X181.661Y-65.32
X181.661Y-66.045
X181.661Y-66.77
X181.661Y-67.495
X181.661Y-68.22
X181.661Y-68.945
X181.661Y-69.67
X181.762Y-125.425
X182.122Y-127.799
X182.386Y-65.32
X182.386Y-66.045
X182.386Y-66.77
X182.386Y-67.495
X182.386Y-68.22
X182.386Y-68.945
X182.386Y-69.67
X182.423Y-62.027
X182.423Y-62.636
X182.432Y-72.288
X182.436Y-61.426
X182.524Y-75.235
X182.524Y-135.063
X183.067Y-72.593
X183.073Y-61.43
X183.083Y-62.027
X183.083Y-62.636
X183.111Y-65.32
X183.111Y-66.045
X183.111Y-66.77
X183.111Y-67.495
X183.111Y-68.22
X183.111Y-68.945
X183.111Y-69.67
X183.591Y-136.739
X183.693Y-72.39
X183.836Y-65.32
X183.836Y-66.045
X183.836Y-66.77
X183.836Y-67.495
X183.836Y-68.22
X183.836Y-68.945
X183.836Y-69.67
X184.334Y-72.593
X184.506Y-89.103
X184.561Y-65.32
X184.561Y-66.045
X184.561Y-66.77
X184.561Y-67.495
X184.561Y-68.22
X184.561Y-68.945
X184.561Y-69.67
X184.963Y-72.39
X184.963Y-144.069
X185.286Y-65.32
X185.286Y-66.045
X185.286Y-66.77
X185.286Y-67.495
X185.286Y-68.22
X185.286Y-68.945
X185.286Y-69.67
X185.471Y-74.32
X185.605Y-72.593
X186.011Y-65.32
X186.011Y-66.045
X186.011Y-66.77
X186.011Y-67.495
X186.011Y-68.22
X186.011Y-68.945
X186.011Y-69.67
X186.074Y-126.896
X186.736Y-65.32
X186.736Y-66.045
X186.736Y-66.77
X186.736Y-67.495
X186.736Y-68.22
X186.736Y-68.945
X186.736Y-69.67
X187.353Y-127.755
X187.461Y-65.32
X187.461Y-66.045
X187.461Y-66.77
X187.461Y-67.495
X187.461Y-68.22
X187.461Y-68.945
X187.512Y-70.215
X187.554Y-72.492
X188.011Y-74.32
X188.011Y-131.928
X188.014Y-127.755
X188.186Y-65.32
X188.186Y-66.045
X188.186Y-66.77
X188.186Y-67.495
X188.186Y-68.22
X188.186Y-68.945
X188.186Y-69.67
X188.671Y-131.928
X188.674Y-127.755
X188.911Y-65.32
X188.911Y-66.045
X188.911Y-66.77
X188.911Y-67.495
X188.911Y-68.22
X188.911Y-68.945
X188.911Y-69.67
X189.078Y-61.011
X189.078Y-76.556
X189.535Y-81.128
X189.535Y-135.738
X189.535Y-136.296
X189.636Y-61.011
X189.89Y-144.069
X190.652Y-85.039
X190.652Y-87.02
X191.16Y-82.601
X191.313Y-71.425
X191.567Y-59.842
X191.872Y-71.425
X192.126Y-59.842
X192.126Y-85.141
X192.126Y-86.817
X192.126Y-88.798
X192.43Y-71.425
X192.684Y-59.842
X193.243Y-59.842
X193.802Y-59.842
X194.361Y-59.842
X195.246Y-61.771
X195.259Y-60.655
X195.259Y-61.214
X195.259Y-62.332
X195.58Y-82.804
X195.783Y-129.286
T2
X109.5Y-125.5
X109.5Y-128.0
X111.5Y-125.5
X111.5Y-128.0
T3
X109.0Y-96.0
X109.0Y-98.5
X109.0Y-101.0
X111.078Y-141.986
X113.578Y-141.986
X115.75Y-96.0
X115.75Y-98.5
X115.75Y-101.0
X116.078Y-141.986
X122.152Y-141.986
X122.5Y-96.0
X122.5Y-98.5
X122.5Y-101.0
X124.652Y-141.986
X127.152Y-141.986
X129.25Y-96.0
X129.25Y-98.5
X129.25Y-101.0
X133.227Y-141.986
X135.727Y-141.986
X136.0Y-96.0
X136.0Y-98.5
X136.0Y-101.0
X138.227Y-141.986
X142.75Y-96.0
X142.75Y-98.5
X142.75Y-101.0
X149.5Y-96.0
X149.5Y-98.5
X149.5Y-101.0
X156.25Y-96.0
X156.25Y-98.5
X156.25Y-101.0
X181.213Y-142.003
X183.713Y-142.003
X186.213Y-142.003
X188.713Y-142.003
T4
X103.784Y-94.844
X103.784Y-97.384
X103.784Y-99.924
X103.784Y-102.464
X114.21Y-79.88
X114.21Y-82.42
X114.21Y-84.96
X114.21Y-87.5
X116.75Y-79.88
X116.75Y-82.42
X116.75Y-84.96
X116.75Y-87.5
X117.079Y-132.04
X117.079Y-134.58
X119.619Y-132.04
X119.619Y-134.58
X120.46Y-79.88
X120.46Y-82.42
X120.46Y-84.96
X120.46Y-87.5
X122.159Y-132.04
X122.159Y-134.58
X123.0Y-79.88
X123.0Y-82.42
X123.0Y-84.96
X123.0Y-87.5
X139.21Y-79.88
X139.21Y-82.42
X139.21Y-84.96
X139.21Y-87.5
X141.75Y-79.88
X141.75Y-82.42
X141.75Y-84.96
X141.75Y-87.5
X144.323Y-141.986
X145.46Y-79.88
X145.46Y-82.42
X145.46Y-84.96
X145.46Y-87.5
X145.907Y-124.928
X145.923Y-128.539
X146.823Y-141.986
X148.0Y-79.88
X148.0Y-82.42
X148.0Y-84.96
X148.0Y-87.5
X148.447Y-124.928
X148.463Y-128.539
X152.02Y-79.88
X152.02Y-82.42
X152.02Y-84.96
X152.02Y-87.5
X154.56Y-79.88
X154.56Y-82.42
X154.56Y-84.96
X154.56Y-87.5
X158.27Y-79.88
X158.27Y-82.42
X158.27Y-84.96
X158.27Y-87.5
X160.81Y-79.88
X160.81Y-82.42
X160.81Y-84.96
X160.81Y-87.5
X172.597Y-141.969
X175.097Y-141.969
X177.02Y-79.88
X177.02Y-82.42
X177.02Y-84.96
X177.02Y-87.5
X179.56Y-79.88
X179.56Y-82.42
X179.56Y-84.96
X179.56Y-87.5
X183.27Y-79.88
X183.27Y-82.42
X183.27Y-84.96
X183.27Y-87.5
X185.81Y-79.88
X185.81Y-82.42
X185.81Y-84.96
X185.81Y-87.5
X194.45Y-132.876
X194.452Y-105.207
X194.452Y-112.116
X194.452Y-119.075
X194.452Y-125.984
X196.95Y-132.876
X196.952Y-105.207
X196.952Y-112.116
X196.952Y-119.075
X196.952Y-125.984
T5
X112.0Y-54.0
X115.5Y-54.0
X119.0Y-54.0
X122.5Y-54.0
X136.75Y-54.0
X140.25Y-54.0
X143.75Y-54.0
X147.25Y-54.0
X152.75Y-54.0
X156.25Y-54.0
X159.75Y-54.0
X163.25Y-54.0
X177.5Y-54.0
X181.0Y-54.0
X184.5Y-54.0
X188.0Y-54.0
T6
X194.513Y-93.704
X194.513Y-98.704
T7
X106.79Y-120.73
X106.79Y-132.77
T8
X104.0Y-54.0
X104.0Y-141.0
X196.0Y-54.0
X196.0Y-141.0
T0
M30
