G04 #@! TF.GenerationSoftware,KiCad,Pcbnew,7.0.8*
G04 #@! TF.CreationDate,2024-11-23T18:49:15+01:00*
G04 #@! TF.ProjectId,PCK-Controller,50434b2d-436f-46e7-9472-6f6c6c65722e,rev?*
G04 #@! TF.SameCoordinates,Original*
G04 #@! TF.FileFunction,Soldermask,Bot*
G04 #@! TF.FilePolarity,Negative*
%FSLAX46Y46*%
G04 Gerber Fmt 4.6, Leading zero omitted, Abs format (unit mm)*
G04 Created by KiCad (PCBNEW 7.0.8) date 2024-11-23 18:49:15*
%MOMM*%
%LPD*%
G01*
G04 APERTURE LIST*
G04 Aperture macros list*
%AMRoundRect*
0 Rectangle with rounded corners*
0 $1 Rounding radius*
0 $2 $3 $4 $5 $6 $7 $8 $9 X,Y pos of 4 corners*
0 Add a 4 corners polygon primitive as box body*
4,1,4,$2,$3,$4,$5,$6,$7,$8,$9,$2,$3,0*
0 Add four circle primitives for the rounded corners*
1,1,$1+$1,$2,$3*
1,1,$1+$1,$4,$5*
1,1,$1+$1,$6,$7*
1,1,$1+$1,$8,$9*
0 Add four rect primitives between the rounded corners*
20,1,$1+$1,$2,$3,$4,$5,0*
20,1,$1+$1,$4,$5,$6,$7,0*
20,1,$1+$1,$6,$7,$8,$9,0*
20,1,$1+$1,$8,$9,$2,$3,0*%
G04 Aperture macros list end*
%ADD10RoundRect,0.250000X0.600000X0.725000X-0.600000X0.725000X-0.600000X-0.725000X0.600000X-0.725000X0*%
%ADD11O,1.700000X1.950000*%
%ADD12R,2.600000X2.600000*%
%ADD13C,2.600000*%
%ADD14R,2.400000X2.400000*%
%ADD15C,2.400000*%
%ADD16R,1.700000X1.700000*%
%ADD17O,1.700000X1.700000*%
%ADD18RoundRect,0.250000X0.600000X0.750000X-0.600000X0.750000X-0.600000X-0.750000X0.600000X-0.750000X0*%
%ADD19O,1.700000X2.000000*%
%ADD20RoundRect,0.250000X-0.600000X-0.750000X0.600000X-0.750000X0.600000X0.750000X-0.600000X0.750000X0*%
%ADD21C,7.000000*%
%ADD22RoundRect,0.250000X0.725000X-0.600000X0.725000X0.600000X-0.725000X0.600000X-0.725000X-0.600000X0*%
%ADD23O,1.950000X1.700000*%
%ADD24C,1.700000*%
%ADD25C,3.500000*%
%ADD26RoundRect,0.200000X-0.275000X0.200000X-0.275000X-0.200000X0.275000X-0.200000X0.275000X0.200000X0*%
G04 APERTURE END LIST*
D10*
X127152400Y-141986000D03*
D11*
X124652400Y-141986000D03*
X122152400Y-141986000D03*
D12*
X194513400Y-98704400D03*
D13*
X194513400Y-93704400D03*
D10*
X188712800Y-142003000D03*
D11*
X186212800Y-142003000D03*
X183712800Y-142003000D03*
X181212800Y-142003000D03*
D14*
X112000000Y-54000000D03*
D15*
X115500000Y-54000000D03*
X119000000Y-54000000D03*
X122500000Y-54000000D03*
D16*
X154560000Y-87500000D03*
D17*
X152020000Y-87500000D03*
X154560000Y-84960000D03*
X152020000Y-84960000D03*
X154560000Y-82420000D03*
X152020000Y-82420000D03*
X154560000Y-79880000D03*
X152020000Y-79880000D03*
D18*
X146822800Y-141986000D03*
D19*
X144322800Y-141986000D03*
D20*
X194451600Y-119075200D03*
D19*
X196951600Y-119075200D03*
D16*
X145907061Y-124927690D03*
D17*
X148447061Y-124927690D03*
D21*
X196000000Y-141000000D03*
D16*
X141750000Y-87500000D03*
D17*
X139210000Y-87500000D03*
X141750000Y-84960000D03*
X139210000Y-84960000D03*
X141750000Y-82420000D03*
X139210000Y-82420000D03*
X141750000Y-79880000D03*
X139210000Y-79880000D03*
D22*
X129250000Y-101000000D03*
D23*
X129250000Y-98500000D03*
X129250000Y-96000000D03*
D20*
X194451600Y-105206800D03*
D19*
X196951600Y-105206800D03*
D16*
X123000000Y-87500000D03*
D17*
X120460000Y-87500000D03*
X123000000Y-84960000D03*
X120460000Y-84960000D03*
X123000000Y-82420000D03*
X120460000Y-82420000D03*
X123000000Y-79880000D03*
X120460000Y-79880000D03*
D20*
X194449875Y-132875800D03*
D19*
X196949875Y-132875800D03*
D16*
X111500000Y-128000000D03*
D24*
X111500000Y-125500000D03*
X109500000Y-125500000D03*
X109500000Y-128000000D03*
D25*
X106790000Y-132770000D03*
X106790000Y-120730000D03*
D16*
X122159000Y-132040200D03*
D17*
X122159000Y-134580200D03*
X119619000Y-132040200D03*
X119619000Y-134580200D03*
X117079000Y-132040200D03*
X117079000Y-134580200D03*
D14*
X136750000Y-54000000D03*
D15*
X140250000Y-54000000D03*
X143750000Y-54000000D03*
X147250000Y-54000000D03*
D22*
X122500000Y-101000000D03*
D23*
X122500000Y-98500000D03*
X122500000Y-96000000D03*
D16*
X179560000Y-87500000D03*
D17*
X177020000Y-87500000D03*
X179560000Y-84960000D03*
X177020000Y-84960000D03*
X179560000Y-82420000D03*
X177020000Y-82420000D03*
X179560000Y-79880000D03*
X177020000Y-79880000D03*
D21*
X104000000Y-141000000D03*
D16*
X148000000Y-87500000D03*
D17*
X145460000Y-87500000D03*
X148000000Y-84960000D03*
X145460000Y-84960000D03*
X148000000Y-82420000D03*
X145460000Y-82420000D03*
X148000000Y-79880000D03*
X145460000Y-79880000D03*
D14*
X152750000Y-54000000D03*
D15*
X156250000Y-54000000D03*
X159750000Y-54000000D03*
X163250000Y-54000000D03*
D10*
X138226800Y-141986000D03*
D11*
X135726800Y-141986000D03*
X133226800Y-141986000D03*
D16*
X103784400Y-102463600D03*
D17*
X103784400Y-99923600D03*
X103784400Y-97383600D03*
X103784400Y-94843600D03*
D14*
X177500000Y-54000000D03*
D15*
X181000000Y-54000000D03*
X184500000Y-54000000D03*
X188000000Y-54000000D03*
D18*
X175096800Y-141969200D03*
D19*
X172596800Y-141969200D03*
D16*
X160810000Y-87500000D03*
D17*
X158270000Y-87500000D03*
X160810000Y-84960000D03*
X158270000Y-84960000D03*
X160810000Y-82420000D03*
X158270000Y-82420000D03*
X160810000Y-79880000D03*
X158270000Y-79880000D03*
D22*
X136000000Y-101000000D03*
D23*
X136000000Y-98500000D03*
X136000000Y-96000000D03*
D16*
X148462910Y-128539430D03*
D17*
X145922910Y-128539430D03*
D21*
X196000000Y-54000000D03*
X104000000Y-54000000D03*
D20*
X194451600Y-112115600D03*
D19*
X196951600Y-112115600D03*
D22*
X156250000Y-101000000D03*
D23*
X156250000Y-98500000D03*
X156250000Y-96000000D03*
D10*
X116078000Y-141986000D03*
D11*
X113578000Y-141986000D03*
X111078000Y-141986000D03*
D22*
X149500000Y-101000000D03*
D23*
X149500000Y-98500000D03*
X149500000Y-96000000D03*
D22*
X109000000Y-101000000D03*
D23*
X109000000Y-98500000D03*
X109000000Y-96000000D03*
D22*
X142750000Y-101000000D03*
D23*
X142750000Y-98500000D03*
X142750000Y-96000000D03*
D16*
X116750000Y-87500000D03*
D17*
X114210000Y-87500000D03*
X116750000Y-84960000D03*
X114210000Y-84960000D03*
X116750000Y-82420000D03*
X114210000Y-82420000D03*
X116750000Y-79880000D03*
X114210000Y-79880000D03*
D22*
X115750000Y-101000000D03*
D23*
X115750000Y-98500000D03*
X115750000Y-96000000D03*
D20*
X194451600Y-125984000D03*
D19*
X196951600Y-125984000D03*
D16*
X185810000Y-87500000D03*
D17*
X183270000Y-87500000D03*
X185810000Y-84960000D03*
X183270000Y-84960000D03*
X185810000Y-82420000D03*
X183270000Y-82420000D03*
X185810000Y-79880000D03*
X183270000Y-79880000D03*
D26*
X106781600Y-125971800D03*
X106781600Y-127621800D03*
M02*
